<?xml version="1.0" encoding="utf-8" ?>
<svg xmlns="http://www.w3.org/2000/svg" xmlns:xlink="http://www.w3.org/1999/xlink" width="200" height="70">
	<path fill="#427AA1" transform="scale(0.0683594 0.0683594)" d="M0 -0L128.068 0L897.314 0L898.324 0L1157.66 0L1910.8 0L2046.25 0C2047.07 1.20932 2047.82 2.52707 2048 4C2048.76 10.3984 2048.14 17.7124 2048.16 24.1912L2048.18 65.3048L2048.1 86.28C2048.08 89.2929 2048.53 93.4064 2047.87 96.2799C2047.65 97.2315 2047.12 98.1974 2046.62 99.0308C2047.49 100.686 2047.99 102.06 2048.02 103.95L2048.15 342.4L2048.07 401.674C2048.06 407.792 2049.24 416.489 2047.87 422.286C2047.64 423.243 2047.07 424.217 2046.55 425.046C2047.24 426.286 2047.85 427.574 2048 429C2049.12 439.422 2048.12 451.239 2048.14 461.79L2048.17 533.795L2048.09 580.028C2048.07 585.498 2048.99 593.132 2047.88 598.3C2047.66 599.276 2047.14 600.269 2046.65 601.134C2047.29 602.505 2047.89 603.979 2048 605.5C2048.69 614.784 2048.07 624.566 2048.08 633.923L2048.15 691.101L2048.12 876.566L2048.05 914.193C2048.04 917.45 2048.85 923.906 2047.69 926.844C2047.38 927.622 2047.01 928.347 2046.57 929.059C2047.25 930.287 2047.86 931.589 2048 933C2048.68 939.679 2048.14 947.03 2048.16 953.768L2048.18 996.116C2048.16 1003.03 2049.68 1014.86 2047.84 1021.29C2047.56 1022.25 2046.86 1023.22 2046.25 1024L1910.38 1024L1903.65 1024L1178.94 1024L1160.98 1024L907.099 1024L889.135 1024L135.458 1024L-0 1024L0 932.61L0 598.541L0 428.062L0 95.9638L0 -0Z"/>
	<path fill="#98BBD2" transform="scale(0.0683594 0.0683594)" d="M1290.73 767.24C1293.94 766.655 1298.84 765.895 1302.02 765.957C1307.67 773.058 1310.78 785.814 1313.11 794.576C1313.96 797.747 1315.22 801.297 1315.26 804.588C1311.29 796.501 1297.83 771.495 1290.73 767.24Z"/>
	<path fill="#EBF2FA" transform="scale(0.0683594 0.0683594)" d="M1823.1 17.1795C1849.93 11.7675 1877.09 7.46021 1904.5 6.94078L1904.5 7.57996C1884.26 9.78176 1864.77 13.5282 1845.83 21.1234C1838.28 24.1506 1831.01 28.805 1823.28 31.0879L1823.51 29.5L1829.51 26.5C1828.29 25.6054 1828.13 25.3878 1827.51 24L1829.5 21.51L1828.51 18.5L1823.99 19.0466L1823.1 17.1795Z"/>
	<path fill="#98BBD2" transform="scale(0.0683594 0.0683594)" d="M1155.04 494.016L1155.27 493.475C1156.48 490.368 1155.98 487.262 1155.69 484.023C1154.49 482.127 1153.87 480.559 1151.5 480.011C1150.42 479.762 1149.16 479.819 1148.05 479.814L1148.25 478.31C1155.23 477.747 1162.28 477.817 1169.28 477.787C1171.63 477.777 1174.63 477.342 1176.71 478.5L1176 479.864C1172.29 480.931 1171.52 480.805 1169.13 484C1169.06 490.505 1171.04 505.898 1167.55 511.142L1166.97 511.918C1164.56 513.133 1161.65 512.93 1159 513.036C1154.84 509.88 1159.61 499.391 1155.04 494.016Z"/>
	<path fill="#98BBD2" transform="scale(0.0683594 0.0683594)" d="M1305.89 57.8436L1306.67 57.8065C1313.36 57.4009 1318.76 51.2394 1325.7 53.5C1332.02 63.8611 1330.1 81.1231 1330.09 92.9084C1322.13 84.1609 1312.38 70.5076 1301.88 64.9873L1304.97 63.7125C1306.55 61.212 1306.26 60.6523 1305.89 57.8436Z"/>
	<path fill="#EBF2FA" transform="scale(0.0683594 0.0683594)" d="M232.651 36.5872C208.029 22.3052 178.777 13.4033 150.905 8.26131L117.204 3.40446C129.496 2.54816 142.402 4.12847 154.608 5.76488C186.044 9.97939 219.118 18.8062 248.123 31.5795C242.617 31.1214 240.027 29.9589 235.628 33.7011L232.651 36.5872Z"/>
	<path fill="#98BBD2" transform="scale(0.0683594 0.0683594)" d="M1337.98 51.7625L1376.22 51.7692C1369.9 58.2387 1363.13 69.614 1355.32 73.793C1354.59 78.2131 1341.86 88.6111 1338.17 92.2412L1338.29 71.5532C1338.57 66.166 1340.81 57.2035 1338.29 52.3008L1337.98 51.7625Z"/>
	<path fill="#98BBD2" transform="scale(0.0683594 0.0683594)" d="M743.496 965.847C740.115 964.22 732.914 966.463 728.898 966.314C722.948 950.282 722.71 933.063 722.916 916.175C730.758 925.452 740.355 934.826 746.452 945.327C749.235 950.121 750.969 955.553 752.84 960.756L747.322 957.392C745.265 959.781 744.489 962.911 743.496 965.847Z"/>
	<path fill="#98BBD2" transform="scale(0.0683594 0.0683594)" d="M1155.04 494.016C1159.61 499.391 1154.84 509.88 1159 513.036C1161.65 512.93 1164.56 513.133 1166.97 511.918L1167.55 511.142C1173.78 519.864 1164.09 537.872 1171.81 546.294C1174.72 547.56 1177.47 547.897 1180.63 547.88C1190.13 547.829 1194.74 546.398 1201.18 539.778L1199.97 554.879L1161.3 554.248C1157.55 554.159 1150.49 554.875 1147.46 553C1148.8 551.972 1149.96 551.772 1151.6 551.457C1152.85 551.217 1153.97 549.844 1154.94 549C1156.91 544.017 1156 536.304 1156.04 530.933C1156.11 519.861 1157.8 505.598 1155.26 494.898L1155.04 494.016Z"/>
	<path fill="#98BBD2" transform="scale(0.0683594 0.0683594)" d="M1217.93 478.498C1226.62 476.874 1238.1 477.848 1246.96 478.282C1246.99 478.688 1247.33 479.225 1247.03 479.5C1246.38 480.094 1243.63 479.983 1242.75 480.5C1242.09 480.888 1240.8 482.843 1240.26 483.5C1238.2 492.286 1239.59 502.489 1239.57 511.5C1239.56 521.668 1236.55 540.508 1241.08 549.5C1243.03 551.523 1244.85 551.674 1247.49 551.961L1248.5 552.064L1246.39 554.072L1218.5 553.942L1217.72 552.5C1219.62 552.05 1222.36 551.649 1223.91 550.434C1225.72 549.008 1226.44 547.279 1226.66 545C1227.24 538.826 1227.55 487.163 1225.89 484C1223.68 479.783 1220.63 481.571 1217.93 478.498Z"/>
	<path fill="#EBF2FA" transform="scale(0.0683594 0.0683594)" d="M743.496 965.847C744.489 962.911 745.265 959.781 747.322 957.392L752.84 960.756C788.596 989.612 831.358 1011.01 876.784 1018.94C887.016 1020.73 897.316 1022.53 907.75 1021.89L907.099 1024L889.135 1024L851.603 1017.77C822.216 1011.56 794.679 1000.4 769.215 984.434C760.47 978.952 750.817 973.17 743.496 965.847Z"/>
	<path fill="#98BBD2" transform="scale(0.0683594 0.0683594)" d="M476.325 479.524C479.987 479.417 486.503 478.364 489.58 480.326C486.562 481.4 482.711 482.666 481.033 485.643C479.979 487.513 480.309 491.152 480.288 493.274L480.589 515C480.971 525.409 478.597 537.402 481.098 547.5C483.462 550.103 485.154 551.856 488.767 552.573L489.658 552.729L468.389 553.032C464.949 553.232 459.628 554.244 456.5 552.832C459.229 551.331 461.973 551.111 464.148 548.5C464.664 547.881 465.717 546.306 465.87 545.5C466.938 539.855 465.92 531.858 465.939 525.998C465.981 512.972 467.371 498.351 465.585 485.5C462.392 482.334 459.754 482.179 455.739 480.5C459.889 478.322 471.303 479.57 476.325 479.524Z"/>
	<path fill="#98BBD2" transform="scale(0.0683594 0.0683594)" d="M1749.51 481.499C1752.65 481.117 1756.48 480.193 1759.43 481.5C1758.51 483.108 1757.87 484.773 1757.21 486.5L1772.37 516.878C1776.25 507.332 1782.26 497.355 1784.55 487.361C1785.01 485.39 1783.67 484.147 1782.64 482.5L1784 481.152L1799.29 481.41C1798.87 482.153 1798.47 482.699 1797.84 483.28C1789 491.452 1787.74 505.819 1779.27 513.144C1779.53 514.697 1778.84 516.658 1778.02 517.986L1777.69 518.501C1774.68 523.429 1774.41 541.605 1776.12 547.151C1776.89 549.62 1779.42 550.371 1781.5 551.458L1780.5 552.781C1775.68 552.775 1761.48 554.131 1758.07 551.5C1759.06 550.796 1760.05 550.077 1760.87 549.175C1763.9 545.813 1763.1 542.931 1763.12 538.577C1763.14 533.881 1763.63 528.518 1763.05 523.885C1762.83 522.163 1760.53 519.102 1759.62 517.404C1755.76 510.12 1746.35 496.318 1746.26 488.304C1746.22 484.822 1747.26 483.909 1749.51 481.499Z"/>
	<path fill="#98BBD2" transform="scale(0.0683594 0.0683594)" d="M676.046 973.644L667.744 973.531L717.153 916.071C717.658 931.261 717.573 948 713.232 962.692C712.247 966.028 711.528 969.504 709.106 972.131C708.553 972.617 707.623 973.7 707 973.985C704.545 975.106 682.228 974.119 678.058 973.821L676.046 973.644Z"/>
	<path fill="#98BBD2" transform="scale(0.0683594 0.0683594)" d="M676.046 973.644C676.915 972.451 677.758 971.917 679 971.195L698 971.317C701.857 971.263 705.466 970.477 709.106 972.131C708.553 972.617 707.623 973.7 707 973.985C704.545 975.106 682.228 974.119 678.058 973.821L676.046 973.644Z"/>
	<path fill="#98BBD2" transform="scale(0.0683594 0.0683594)" d="M721.87 479.538L736.5 479.318L736.732 480.5C733.7 481.389 731.977 482.445 729.609 484.5C729.082 487.824 732.274 491.686 733.923 494.659L745.702 517.508C746.173 517.065 746.591 516.684 746.949 516.138C751.196 509.659 763.16 489.827 762.152 483C760.426 481.746 758.966 481.186 756.895 480.666L756.207 480.5C763.85 479.08 772.961 479.959 780.785 479.931L776.5 482.007C767.497 486.151 757.95 504.861 754.232 514.059L753.877 514.952L752.5 517.09C751.49 518.62 750.425 520.046 749.732 521.767C747.881 526.37 747.727 542.715 749.71 547.218C751.196 550.594 756.583 551.767 759.83 552.95L727.122 552.627C727.97 551.04 733.307 549.572 735.322 547.007C735.697 540.243 736.949 524.444 733.047 518.991C725.906 509.014 717.702 485.377 706.584 481.278C705.679 480.944 705.066 480.639 704.293 480.027C709.224 478.723 716.647 479.568 721.87 479.538Z"/>
	<path fill="#EBF2FA" transform="scale(0.0683594 0.0683594)" d="M1647.96 477.5C1654.2 477.467 1660.01 479.074 1666.06 480.402L1666.24 501.036C1663.73 495.781 1663.45 490.064 1659.31 485.576C1657.18 483.263 1654.22 482.178 1651.1 482.078C1648.18 481.985 1644.98 483.366 1642.97 485.461C1640.9 487.615 1639.94 491.056 1640.02 493.992C1640.22 501.758 1655.19 509.925 1660.56 515.104C1666.01 520.364 1669.71 525.939 1669.68 533.767C1669.66 539.321 1667.87 544.639 1663.93 548.604C1657.15 555.429 1648.96 555.067 1639.96 554.985L1630 551.925L1627.73 553.71L1626.5 552.856C1626.41 544.959 1625.72 536.442 1627.4 528.707C1629.63 532.706 1630.38 537.099 1632.41 541.12C1634.14 544.555 1637.41 548.588 1641.27 549.64C1644 550.384 1648.06 550.386 1650.5 548.833C1653.21 547.102 1655.44 544.697 1656.16 541.511L1656.28 541C1660.42 522.592 1632.34 518.104 1628.87 501.511C1627.64 495.667 1628.59 489.473 1632.1 484.577C1635.44 479.919 1642.63 478.465 1647.96 477.5Z"/>
	<path fill="#98BBD2" transform="scale(0.0683594 0.0683594)" d="M1549.3 478.499C1554.65 477.548 1560.75 478.062 1566.19 478.044L1596.93 477.97C1596.98 481.922 1598.08 489.741 1596 493C1593.92 492.078 1593.6 487.466 1591.5 485.108L1570.77 485.028L1570.57 512.451C1575.28 512.721 1586.58 513.656 1590.34 511.293C1590.87 509.065 1591.64 507.621 1592.98 505.77L1594.01 506.5C1593.8 512.804 1593.89 519.279 1592.78 525.5L1588.84 521.281C1583.05 519.569 1576.81 520.079 1570.83 520.14C1570.98 524.887 1571.84 530.401 1569.06 534.504C1571.88 538.162 1570.66 543.845 1570.35 548.208L1576.97 548.164C1585.19 548.082 1592.08 549.602 1596.6 541.375C1597.89 539.034 1598.97 536.184 1600.84 534.277L1598.8 554.047L1563.05 553.963C1559.2 553.954 1552.54 554.874 1549.32 552.912L1549.91 551.768L1551.27 551.681C1554.65 551.355 1556.35 550.043 1558.52 547.521L1558.45 500.609C1558.47 496.91 1559.54 486.989 1558.24 484C1557.98 483.399 1556.96 482.487 1556.5 481.95C1553.82 481.313 1552.05 480.664 1549.86 478.951L1549.3 478.499Z"/>
	<path fill="#98BBD2" transform="scale(0.0683594 0.0683594)" d="M1406.87 476.174C1411.41 479.523 1413.63 486.877 1415.86 491.932L1430.05 526.406C1432.54 532.959 1434.53 540.149 1437.59 546.417C1439.67 550.678 1441.54 551.039 1445.74 552.5L1444.5 554.025L1420.09 553.738L1419.5 552.04L1425.03 550.5L1425.2 549.545C1425.8 545.22 1419.17 532.279 1416.5 528.534L1406.75 528.005C1402.44 527.932 1397.72 527.459 1393.48 528.265C1391.05 534.048 1385.23 544.308 1386.47 550.5C1388.8 550.718 1390.26 550.827 1391.99 552.5L1390.5 554.015C1385.78 554.025 1374.18 555.281 1370.5 552.982L1371.06 551.5L1375.13 550.5C1379.47 546.051 1381.23 538.261 1383.52 532.551L1396.32 502.236C1399.52 495.036 1406.37 484.441 1406.86 476.781L1406.87 476.174Z"/>
	<path fill="#427AA1" transform="scale(0.0683594 0.0683594)" d="M1403.5 498.628C1408.56 502.517 1411.37 513.849 1413.67 520.01L1412.88 521.686L1403.75 521.936C1401.1 521.974 1398.3 522.649 1396.18 521C1398.69 513.217 1404.09 507.245 1403.5 498.628Z"/>
	<path fill="#98BBD2" transform="scale(0.0683594 0.0683594)" d="M401.35 472.279C413.085 471.632 423.66 474.17 434.965 476.946L434.986 499.369C431.192 492.411 426.683 485.92 419.414 482.176C412.338 478.531 401.76 477.496 394.189 480.125L393.5 480.37C386.24 482.903 381.36 487.98 377.911 494.802C373.94 502.657 374.615 516.733 377.414 524.783C380.388 533.336 386.796 540.51 394.948 544.422C403.154 548.359 412.112 547.861 420.497 544.891C428.225 540.093 431.349 532.349 438.039 527.156L432.38 551.862C422.027 555.108 404.722 556.493 393.938 554.427C383.267 552.384 373.307 545.819 367.306 536.754C363.859 531.547 358.885 519.604 360.392 513.061C360.557 512.347 360.716 511.799 360.776 511.057C361.358 503.786 364.47 496.405 368.721 490.522C376.734 479.433 388.096 474.311 401.35 472.279Z"/>
	<path fill="#98BBD2" transform="scale(0.0683594 0.0683594)" d="M517.968 476.878L579.735 534.172L579.076 488.5C576.749 484.873 574.847 483.139 570.66 481.848C569.714 481.557 569.726 481.277 569.16 480.5C577.702 480.947 586.236 479.662 594.738 480.46C592.753 481.495 590.134 482.65 588.5 484.219C582.801 489.688 584.338 541.257 584.171 552.25C584.061 553.774 584.03 553.786 583 554.922L523.727 500.635C523.612 507.739 522.373 541.938 525.041 546.5C527.942 551.459 529.238 551.589 534.5 552.997C531.673 555.295 512.738 553.935 507.958 553.964L507.844 553.486C510.275 551.946 513.061 550.369 515.133 548.36C516.735 546.807 517.513 544.769 517.816 542.599C518.741 535.97 517.992 528.385 517.997 521.615L517.968 476.878Z"/>
	<path fill="#98BBD2" transform="scale(0.0683594 0.0683594)" d="M1278.21 476.157C1284.52 478.228 1289.24 485.007 1294 489.44L1339.95 533.514L1339.98 502.459C1339.96 495.503 1340.91 487.678 1337.69 481.306L1331.19 479.797L1331.38 478.415L1354 478.155L1354.67 479.5C1351.92 480.833 1348.98 481.707 1348.06 485C1347.34 487.627 1347.93 492.531 1347.88 495.356L1347.37 533.971C1347.3 539.81 1347.88 546.779 1346.94 552.5C1346.68 554.032 1345.76 555.312 1344.77 556.469C1343.62 553.516 1340.54 551.422 1338.22 549.337L1322.24 534.683L1287.61 499.773L1287.94 533.329C1287.93 536.396 1287.1 542.363 1287.9 544.957C1288.59 547.183 1290.85 549.879 1292.27 551.707C1294.2 551.829 1295.7 551.959 1297.49 552.743L1296.5 553.984C1291.33 554.018 1274.28 555.669 1270.73 553.027C1271.97 550.105 1272.73 552.167 1275 551.162C1275.87 550.776 1277.36 549.16 1278.14 548.5C1280.73 542.997 1279.35 531.451 1279.42 525.214L1280.02 494.012C1280.06 488.401 1280.68 482.399 1278.6 477.082L1278.21 476.157Z"/>
	<path fill="#98BBD2" transform="scale(0.0683594 0.0683594)" d="M299.627 489.881C302.385 489.857 303.31 489.731 305.74 491.22C308.663 501.488 300.102 514.916 296.177 524.315L278.317 566.476L268.229 551.966L243.461 520.614C246.117 516.218 292.436 493.372 299.627 489.881Z"/>
	<path fill="#98BBD2" transform="scale(0.0683594 0.0683594)" d="M1460.68 478.499C1467.68 477.432 1475.52 477.963 1482.64 477.915C1488.2 477.878 1494.67 477.359 1500.1 478.645C1506.57 480.175 1513.99 484.315 1517.39 490.221C1519.53 493.932 1519.72 501.98 1518.4 506.039C1516.03 513.32 1510.63 516.837 1504.83 521.364C1510.69 529.715 1516.97 540.702 1524.89 547.056C1528.64 550.063 1533.63 552.04 1538 554.004C1532.13 554.009 1518.17 555.441 1513.74 552.075L1508.74 548.5C1508.64 547.676 1508.45 547.25 1507.98 546.561C1504.38 541.309 1493.62 525.359 1487.49 524.274C1485.39 523.901 1484.78 523.731 1482.93 525L1483.03 547.5C1485.4 550.971 1486.44 551.024 1490.25 552.5L1489.5 553.865L1464.5 553.958L1463.57 552.5C1465.17 552.28 1466.45 551.934 1467.72 550.875C1469.43 549.444 1470.58 547.767 1470.77 545.5C1471.44 537.492 1472.57 488.433 1469.94 483.5C1468.11 480.083 1463.49 481.973 1460.68 478.499Z"/>
	<path fill="#427AA1" transform="scale(0.0683594 0.0683594)" d="M1481.75 484.498C1485.46 483.483 1489.74 483.385 1493.5 484.198C1497.12 484.98 1500.27 487.981 1502.22 491C1505.03 495.348 1504.56 505.021 1503.47 509.868C1502.74 513.091 1500.86 514.322 1498.23 515.979C1495.27 519.852 1487.55 520.442 1482.86 521.414L1483.01 497.515C1483.01 493.431 1483.48 489.022 1482.02 485.155L1481.75 484.498Z"/>
	<path fill="#EBF2FA" transform="scale(0.0683594 0.0683594)" d="M0 -0L128.068 0C116.508 1.59042 103.563 2.92667 92.3237 6.03707C63.1939 14.0988 37.7533 34.0196 19.7151 57.8623C10.9698 69.4218 5.1639 82.5217 0 95.9638L0 -0Z"/>
	<path fill="#EBF2FA" transform="scale(0.0683594 0.0683594)" d="M2011.11 907.5L2013.17 908.326C2012.57 922.774 2002.82 940.375 1994.66 951.978C1977.99 975.682 1948.27 999.355 1919.01 1004.5L1917.81 1004C1917.88 988.835 1925.97 969.325 1934.06 956.681C1952.21 928.31 1979.21 914.509 2011.11 907.5Z"/>
	<path fill="#EBF2FA" transform="scale(0.0683594 0.0683594)" d="M14.2728 907.459C35.5267 910.02 55.29 917.161 71.7495 931.154C94.0301 950.095 107.236 974.679 109.661 1003.82C95.2093 1000.13 82.5361 996.282 69.9727 987.985C47.852 973.376 28.4245 952.696 19.2074 927.5C16.8634 921.092 15.6483 914.125 14.2728 907.459Z"/>
	<path fill="#EBF2FA" transform="scale(0.0683594 0.0683594)" d="M106.238 22.0327L109 21.6035L110.028 22.5C107.846 40.1015 102.532 56.6868 92.9579 71.6928C75.1164 99.6552 49.0039 114.837 17.2978 121.768L15.0159 121.695L14.3807 120.5C17.047 108.712 20.778 97.3784 26.3193 86.6076C43.0724 54.0435 71.9817 32.9624 106.238 22.0327Z"/>
	<path fill="#EBF2FA" transform="scale(0.0683594 0.0683594)" d="M1915.81 19.484C1921.63 20.6373 1927.21 22.6443 1932.74 24.7761C1964.67 37.1045 1993.38 62.4371 2007.27 94.0699C2009.86 99.96 2016.63 115.525 2014.49 121.01L2013.21 121.751C2010.29 121.391 2007.53 120.651 2004.71 119.841C1966.29 108.816 1938.57 83.2673 1923.91 46.3266C1920.62 38.0608 1920.66 27.779 1916.3 20.2955L1915.81 19.484Z"/>
	<path fill="#EBF2FA" transform="scale(0.0683594 0.0683594)" d="M2011.5 390.499C2013.53 390.205 2015.15 390.075 2017.17 390.5C2017.1 406.501 2007.56 426.19 1998.76 439.235C1986.01 458.138 1967.5 472.162 1947.4 482.426C1939.87 486.269 1932.34 489.899 1923.98 491.501C1922.58 491.941 1922.44 491.91 1921.02 491.5C1920.25 481.243 1925.78 466.273 1930.08 456.956C1942.26 430.522 1962.3 411.297 1988.61 398.954C1996.04 395.467 2003.82 393.318 2011.5 390.499Z"/>
	<path fill="#EBF2FA" transform="scale(0.0683594 0.0683594)" d="M1040.93 901.816L1055.83 904.944C1085.55 913.066 1113.33 934.836 1128.47 961.564C1133.84 971.045 1137.55 981.169 1140.62 991.594C1141.98 996.207 1143.57 1000.37 1142.24 1005.18C1141.61 1004.83 1141.23 1004.72 1140.53 1004.54C1102.5 994.434 1067.12 967.791 1050.98 931.394C1047 922.408 1046.32 910.677 1041.45 902.65L1040.93 901.816Z"/>
	<path fill="#EBF2FA" transform="scale(0.0683594 0.0683594)" d="M1917.77 534.218L1922.25 534.927C1929.84 536.616 1937.22 540.058 1944.17 543.445C1968.31 555.208 1989.11 572.694 2003.36 595.586C2008.95 604.572 2020.58 626.657 2018.16 636.964L2000.74 633.381C1965.86 623.485 1937.98 598.471 1926.32 563.825C1924.8 559.333 1923.17 554.732 1922.23 550.082C1921.19 544.937 1920.99 539.585 1918.24 534.976L1917.77 534.218Z"/>
	<path fill="#EBF2FA" transform="scale(0.0683594 0.0683594)" d="M996.648 902.178C998.362 901.882 999.24 901.864 1000.87 902.5C998.624 915.459 992.112 929.966 985.58 941.366C967.07 973.674 936.488 993.356 901.218 1003.01L898 1003.58L896.609 1002.5C899.321 988.415 904.31 973.881 911.905 961.656C931.924 929.434 960.156 910.612 996.648 902.178Z"/>
	<path fill="#EBF2FA" transform="scale(0.0683594 0.0683594)" d="M112.491 533.987C113.619 533.829 114.403 534.028 115.5 534.247C114.637 548.516 106.883 566.283 99.5602 578.384C80.6094 609.7 50.9061 626.927 16.1578 635.489C14.2637 635.575 14.1857 635.733 12.6129 634.5C14.4376 622.95 18.1993 611.977 23.5757 601.602C42.389 565.296 74.7356 546.061 112.491 533.987Z"/>
	<path fill="#EBF2FA" transform="scale(0.0683594 0.0683594)" d="M14.191 389.376C30.91 393.708 46.7666 397.876 61.4693 407.448C93.4085 428.242 108.599 456.785 116.38 493.042C96.1781 488.227 76.4607 479.059 60.0098 466.385C34.3205 446.595 18.3693 421.512 14.191 389.376Z"/>
	<path fill="#EBF2FA" transform="scale(0.0683594 0.0683594)" d="M895.213 20.3213C913.677 25.1077 931.918 33.0253 947.452 44.1936C975.332 64.2381 992.237 90.6662 997.72 124.546C979.904 121.685 962.724 114.876 947.824 104.699C917.893 84.2571 901.877 55.3702 895.213 20.3213Z"/>
	<path fill="#EBF2FA" transform="scale(0.0683594 0.0683594)" d="M1142.8 20.4984C1143.96 20.8606 1144.11 21.0782 1144.93 22C1141.14 42.222 1134.91 59.6259 1122.74 76.4546C1104.99 101.012 1073.94 119.209 1044.2 124.059L1043.04 122.5C1045.95 110.45 1048.95 99.1197 1054.58 88.0127C1072.99 51.7176 1105.57 32.7166 1142.8 20.4984Z"/>
	<path fill="#98BBD2" transform="scale(0.0683594 0.0683594)" d="M612.344 480.451C619.798 479.665 627.696 480.076 635.211 480.048C643.967 480.015 653.055 479.581 661.747 480.735C672.593 482.175 682.874 486.979 689.587 495.95C695.886 504.367 697.433 513.791 695.824 523.869C694.193 534.079 688.015 541.097 679.985 546.931C660.38 557.09 636.475 553.808 615 553.855L614.164 553C616.305 551.743 618.682 551.642 620.849 550.54C622.537 549.68 624.233 548.059 624.786 546.209C626.081 541.876 625.677 536.069 625.655 531.531L625.224 504.284C625.172 499.313 626.4 490.243 624.053 486C621.85 482.019 616.421 481.602 612.344 480.451Z"/>
	<path fill="#427AA1" transform="scale(0.0683594 0.0683594)" d="M639.658 485.04C648.321 484.865 661.884 484.785 668.91 490.402C675.187 495.421 679.035 503.621 679.839 511.582C680.879 521.865 678.951 533.443 672.357 541.581C666.078 546.997 659.69 549.068 651.505 549.111C646.456 549.137 643.458 548.583 639.863 545C637.813 536.123 639.06 525.501 639.13 516.399C639.21 505.98 638.463 495.404 639.658 485.04Z"/>
	<defs>
		<linearGradient id="gradient_0" gradientUnits="userSpaceOnUse" x1="150.26669" y1="744.22559" x2="80.113747" y2="776.59882">
			<stop offset="0" stop-color="#90B8D2"/>
			<stop offset="1" stop-color="#BDD1DF"/>
		</linearGradient>
	</defs>
	<path fill="url(#gradient_0)" transform="scale(0.0683594 0.0683594)" d="M16.3823 650.327C26.1229 653.408 35.3776 657.674 45.0056 660.989C49.8822 662.667 55.7276 663.293 60.3054 665.543C68.2787 669.461 75.0257 677.634 81.4433 683.63C91.425 692.955 103.516 701.934 112.262 712.275C122.612 724.512 131.6 737.913 140.554 751.182L192.782 836.71C205.064 858.311 218.942 881.034 227.402 904.363C222.679 898.474 219.069 889.992 215.08 883.445C209.229 873.84 202.339 864.794 195.461 855.905L91.2046 733.837L40.8862 681.054C31.9443 671.466 25.9356 659.569 16.3823 650.327Z"/>
	<path fill="#EBF2FA" transform="scale(0.0683594 0.0683594)" d="M1910.8 0L2046.25 0C2047.07 1.20932 2047.82 2.52707 2048 4C2048.76 10.3984 2048.14 17.7124 2048.16 24.1912L2048.18 65.3048L2048.1 86.28C2048.08 89.2929 2048.53 93.4064 2047.87 96.2799C2047.65 97.2315 2047.12 98.1974 2046.62 99.0308C2046.9 103.937 2044.79 109.876 2044.13 114.826C2042.86 124.243 2042.27 133.761 2041.8 143.246L2039.25 211.101L2037.54 269.5L2035.38 184.039C2034.98 156.362 2036.53 126.825 2030.12 99.8128C2027.03 86.7973 2021.13 74.8693 2014 63.621C1997.84 38.1369 1971.59 18.0989 1943.22 8.10875C1932.82 4.44986 1921.54 2.39424 1910.8 0Z"/>
	<defs>
		<linearGradient id="gradient_1" gradientUnits="userSpaceOnUse" x1="1831.163" y1="258.61905" x2="2020.7766" y2="268.53467">
			<stop offset="0" stop-color="#82ADCC"/>
			<stop offset="1" stop-color="#C5DAE4"/>
		</linearGradient>
	</defs>
	<path fill="url(#gradient_1)" transform="scale(0.0683594 0.0683594)" d="M1821.36 123.483C1822.07 123.667 1824.15 123.947 1824.66 124.331C1827.44 126.452 1832.11 135.767 1834.38 139.082L1860.22 174.979L1964.62 301.332L1991.99 331.444C1999.24 339.19 2006.77 346.641 2012.67 355.5C2012.51 358.232 2012.16 361.616 2012.73 364.304C2013.86 369.552 2018.16 375.69 2016.43 380.951C2015.06 381.857 2013.75 381.998 2012.11 381.93C2008.88 381.797 2004.69 379.633 2001.78 378.286C1986.57 371.238 1977.57 359.433 1966.69 347.256C1946.23 324.352 1926.43 301.814 1908.98 276.435C1898.72 261.506 1890.06 245.432 1881.1 229.704L1859.01 192L1833.38 145.5C1829.66 138.557 1826.59 129.275 1821.36 123.483Z"/>
	<path fill="#EBF2FA" transform="scale(0.0683594 0.0683594)" d="M1911.41 1022.15C1940.15 1022.12 1969.35 1009.38 1990.01 989.589C2006.62 973.686 2019.99 954.139 2027 932.089C2030.79 920.172 2031.23 908.195 2031.97 895.82L2034.15 857.949L2037.45 782.5C2039.28 792.25 2038.73 802.783 2039.21 812.699L2042.5 890.705C2042.9 898.583 2043.37 906.466 2044.42 914.289C2045.08 919.186 2046.53 924.116 2046.57 929.059C2047.25 930.287 2047.86 931.589 2048 933C2048.68 939.679 2048.14 947.03 2048.16 953.768L2048.18 996.116C2048.16 1003.03 2049.68 1014.86 2047.84 1021.29C2047.56 1022.25 2046.86 1023.22 2046.25 1024L1910.38 1024L1903.65 1024C1901.57 1021.77 1883.26 1019.63 1879.58 1018.87L1830.83 1006.82L1791.06 992.131C1792.81 991.62 1794.87 991.585 1796.55 992.389C1796.56 992.395 1804.74 991.51 1806 991.51C1806.61 990.387 1807.04 989.189 1807.5 988C1805.32 986.282 1803.45 984.96 1800.84 983.983L1800.19 983.752L1799.3 981.83C1806.74 984.942 1813.31 989.586 1820.51 993.166C1823.86 994.83 1831.81 997.251 1833.69 1000C1845.88 1003.26 1857.46 1008.64 1869.7 1012.05L1896.21 1018.73C1900.2 1019.57 1908.25 1020.07 1911.41 1022.15Z"/>
	<path fill="#EBF2FA" transform="scale(0.0683594 0.0683594)" d="M0 428.062C13.944 460.741 35.6725 486.159 69.2826 499.657C87.2767 506.883 103.892 508.227 123.059 507.993C145.185 505.194 164.365 501.35 185.289 493.5C200.797 487.682 214.852 480.385 225.17 466.973C229.093 461.873 231.653 456.255 234.988 450.803C229.899 469.225 221.53 484.726 204.185 494.594C187.378 504.155 165.806 507.491 146.83 509.692C140.505 510.426 133.756 510.5 127.526 511.647L128 512.579L134.406 513.235C169.771 513.769 216.361 521.724 242.052 548.307C245.221 551.586 253.975 561.679 253.864 566.071L253.817 566.756C247.64 560.487 243.311 554.594 235.924 549.355C222.72 539.991 208.776 535.596 193.564 530.747C170.969 523.545 150.597 518.418 126.82 516.778C119.096 516.797 110.906 516.395 103.256 517.428C75.1474 521.221 48.3372 534.664 28.3604 554.695C15.2553 567.836 7.38451 581.691 0 598.541L0 428.062Z"/>
	<path fill="#98BBD2" transform="scale(0.0683594 0.0683594)" d="M709.928 157.46L857.306 184.436L787.014 271.728L709.03 168.287C708.359 167.371 708.088 166.914 708.034 165.746C707.86 161.984 707.346 160.22 709.928 157.46Z"/>
	<path fill="#98BBD2" transform="scale(0.0683594 0.0683594)" d="M1337.98 881.113C1337.49 881.427 1337.06 881.881 1336.5 882.053C1335.37 882.401 1330.8 881.397 1329.37 881.21L1302.5 877.045L1184.75 859.696L1248.09 784.648C1253.32 778.629 1258.8 769.919 1265 765.264L1267.01 766.5C1270.88 774.479 1278.78 783.045 1284.08 790.397L1326.91 850.335C1330.03 854.805 1339.12 865.581 1338.84 870.604L1338.79 871.1C1339.74 874.206 1340.42 876.802 1338.8 879.894C1338.52 880.433 1338.37 880.586 1337.98 881.113Z"/>
	<path fill="#EBF2FA" transform="scale(0.0683594 0.0683594)" d="M898.324 0L1157.66 0L1157.16 0.165361C1154.49 1.00921 1151.77 1.27777 1149 1.60048C1150.93 1.84252 1153.62 1.82337 1155.18 3.04136C1199.88 4.15171 1272.26 21.2302 1303.96 54.362C1305.18 55.6366 1305.54 56.0455 1305.89 57.8436C1306.26 60.6523 1306.55 61.212 1304.97 63.7125L1301.88 64.9873C1298.95 61.4023 1292.79 58.1353 1288.92 55.5162C1263.69 38.4379 1236.35 27.0289 1207.55 17.4328C1190.99 11.9155 1173.5 6.59272 1156.08 4.71933C1151.91 3.50822 1145.75 3.03145 1141.43 2.73627C1115.45 0.963164 1083.57 17.7277 1064.5 34.2491C1034.96 59.8429 1022.08 93.7572 1019.31 131.988C1017.32 127.502 1018.07 119.502 1017.51 114.41C1014.54 87.764 1004.79 65.1112 986.966 44.8296C971.352 27.0648 950.935 15.359 928.653 7.96069C921.285 5.51427 913.245 2.96038 905.46 2.5295L904.505 2.48352L898.324 0Z"/>
	<path fill="#98BBD2" transform="scale(0.0683594 0.0683594)" d="M1857.66 725.257C1861.97 723.031 1873.33 717.731 1877.74 719.032C1882.33 722.194 1885.17 728.01 1888.14 732.628L1904.4 757.592L1958.53 841.193C1943.44 840.618 1929.34 837.949 1914.5 835.487L1839.34 821.477C1822.9 818.296 1804.95 816.543 1789.03 811.633C1797.55 801.109 1857.33 729.853 1857.66 725.257Z"/>
	<path fill="#EBF2FA" transform="scale(0.0683594 0.0683594)" d="M1909.24 509.185C1917.31 509.189 1925.6 509.455 1933.62 508.444C1957.87 505.385 1978.83 494.915 1997.37 479.191C2015.42 463.884 2029.47 442.117 2034.82 419C2037.92 405.615 2038.42 391.323 2039.56 377.649L2046.55 425.046C2047.24 426.286 2047.85 427.574 2048 429C2049.12 439.422 2048.12 451.239 2048.14 461.79L2048.17 533.795L2048.09 580.028C2048.07 585.498 2048.99 593.132 2047.88 598.3C2047.66 599.276 2047.14 600.269 2046.65 601.134C2047.1 604.969 2044.2 611.39 2043.47 615.486C2041.55 626.28 2040.9 637.148 2039.56 648.019C2037.01 609.452 2029.89 579.159 2001.35 551.208C1974.15 524.58 1941.42 516.418 1904.41 516.75C1887.97 518.597 1871.4 520.792 1855.77 526.468C1837.3 533.18 1815.73 544.252 1804.76 561.32C1802.03 565.575 1800.51 570.782 1798.35 575.381C1799.52 562.847 1805.06 550.783 1813.81 541.73C1836.38 518.397 1873.93 514.577 1904.65 513.873C1903.5 513.019 1901.78 512.624 1900.41 512.154C1872.08 511.303 1840.15 504.954 1818.07 486.092C1807.03 476.669 1800.63 465.108 1799.43 450.5L1800.15 450.854C1801.72 457.135 1805.42 463.325 1809.55 468.284C1832.32 495.599 1875.38 506.117 1909.24 509.185Z"/>
	<path fill="#98BBD2" transform="scale(0.0683594 0.0683594)" d="M170.432 328.702C149.217 294.954 124.028 262.711 104.55 228.019C102.197 223.827 101.089 219.2 99.0251 214.863C96.1333 208.784 92.6046 203.083 89.8317 196.925L262.038 229.313L189.034 321.854C184.978 327.101 180.977 331.67 176.218 336.287L170.432 328.702Z"/>
	<path fill="#98BBD2" transform="scale(0.0683594 0.0683594)" d="M1791.06 992.131L1755.21 976.584L1732.31 967.717C1730.71 967.173 1727.11 965.462 1725.61 965.472C1724.45 965.479 1722.05 966.253 1720.94 966.706C1716.82 968.381 1711.2 966.139 1707.24 967.847L1706.5 968.19C1703.75 966.896 1699.52 967.455 1696.48 967.459L1674.27 967.457C1672.08 967.433 1668.18 967.837 1666.24 966.888L1665.51 966.5C1663.24 967.839 1661.03 967.409 1658.41 967.426L1641.71 967.453C1639.38 967.442 1636.1 967.041 1633.92 967.891L1633 968.28C1626.92 965.699 1615.89 967.91 1609.2 967.768C1604.69 967.672 1593.07 968.551 1589.58 971.268L1589.19 971.601L1589.2 968.5L1738.91 817.532C1731.21 848.362 1728.74 888.845 1741.85 918.635C1749.46 935.927 1762.87 951.704 1776.72 964.288C1781.34 968.488 1786.35 972.046 1791.53 975.52C1794.13 977.268 1797.84 978.984 1799.3 981.83L1800.19 983.752L1800.84 983.983C1803.45 984.96 1805.32 986.282 1807.5 988C1807.04 989.189 1806.61 990.387 1806 991.51C1804.74 991.51 1796.56 992.395 1796.55 992.389C1794.87 991.585 1792.81 991.62 1791.06 992.131Z"/>
	<defs>
		<linearGradient id="gradient_2" gradientUnits="userSpaceOnUse" x1="383.12341" y1="4.8758101" x2="263.37817" y2="163.85921">
			<stop offset="0" stop-color="#76A4C2"/>
			<stop offset="1" stop-color="#9ABED5"/>
		</linearGradient>
	</defs>
	<path fill="url(#gradient_2)" transform="scale(0.0683594 0.0683594)" d="M232.651 36.5872L235.628 33.7011C240.027 29.9589 242.617 31.1214 248.123 31.5795C260.059 34.7127 272.22 42.5844 283.113 48.474C293.709 54.203 304.256 58.6966 315.862 61.9568C322.288 63.1456 329.354 63.5052 335.892 63.6084C339.052 63.6583 344.206 63.3386 346.489 60.9476C347.269 60.1313 348.954 61.4406 350.021 61.4088C351.045 61.3782 353.635 59.9233 354.75 59.495L355.5 61.49L362.75 60.6522L360.25 59.75C363.258 59.6917 366.052 59.6851 368.94 58.7357L369.505 58.5374C372.338 59.5194 376.166 58.5723 379.275 58.5277L413.884 56.8441C424.963 56.2149 436.138 56.6732 447.126 54.9928L452.85 54.3644C456.631 57.9276 458.996 67.6632 460.839 72.7064C444.027 92.7871 425.655 110.671 407.008 128.999C377.678 157.826 347.609 185.822 315.506 211.558C315.193 208.565 317.362 203.154 317.956 200.047C319.08 194.169 319.643 188.005 319.909 182.028C320.91 159.494 314.576 137.382 301.514 119.045C297.607 113.56 292.462 108.835 289.122 103C288.645 99.3779 288.582 97.0871 290.326 93.791L290.757 93C279.952 67.5212 254.501 51.3359 232.651 36.5872Z"/>
	<path fill="#98BBD2" transform="scale(0.0683594 0.0683594)" d="M770.725 610.323C774.487 609.648 778.959 609.899 782.817 609.714C771.376 614.503 759.602 619.078 748.895 625.392C723.223 640.529 701.341 665.383 687.693 691.701C671.508 722.91 663.034 758.046 674.136 792.502C681.244 814.562 693.317 829.621 713.995 840.032C743.787 855.032 781.702 852.187 811.557 838.988C816.852 836.647 822.052 833.909 827.025 830.949C829.086 829.722 832.436 826.952 834.618 826.317C837.016 825.62 843.877 826.968 846.627 827.177L871.697 828.038C898.309 827.987 926.028 825.44 952.313 821.261C1008.82 812.276 1065.89 798.953 1119.85 779.849C1148.12 769.842 1175.51 756.644 1203.92 747.332C1188.12 757.532 1171.44 765.862 1154.93 774.761C1145.69 779.735 1136.25 786.028 1126.33 789.364L1126.08 789.758C1124.7 791.407 1120.02 793.095 1117.97 794.118L1092.69 806.507L987.828 853.671C940.158 873.628 890.624 891.849 839.516 900.5C776.403 911.183 703.27 913.947 648.551 874.822C622.883 856.47 604.257 832.504 599.192 800.668C593.114 762.47 605.959 724.517 628.201 693.653C662.573 645.96 713.748 619.473 770.725 610.323Z"/>
	<path fill="#98BBD2" transform="scale(0.0683594 0.0683594)" d="M1258.85 114.495L1260.67 114.355C1309.41 111.039 1366.22 120.524 1404.07 153.83C1429.77 176.443 1445.96 206.389 1447.9 240.904C1450.17 281.453 1434.24 321.269 1407.23 351.161C1373.58 388.407 1319.33 413.466 1269.08 416.083C1293.78 403.226 1316.18 390.433 1336.06 370.63C1362.61 344.194 1381.04 308.376 1380.88 270.214C1380.77 243.821 1371.21 217.636 1352.18 199.044C1333.95 181.233 1307.66 173.837 1282.75 174.169C1253.54 176.878 1232.92 187.198 1209.52 204.313C1137.12 196.578 1065 207.347 995.609 228.473C964.916 237.818 933.829 248.8 904.296 261.351L867.614 277.7C864.525 279.086 857.961 283.03 854.739 282.5L940.989 234.912L998.878 203.811C1006.61 199.819 1015.63 196.532 1023 192.142C1034.94 185.035 1047.74 179.532 1060.37 173.59C1107.41 151.457 1158.18 132.212 1209.15 121.492C1225.56 118.04 1242.21 116.346 1258.85 114.495Z"/>
	<path fill="#98BBD2" transform="scale(0.0683594 0.0683594)" d="M1823.28 31.0879C1821.58 34.5226 1810.11 40.5966 1806.43 43.5024C1794.18 53.1624 1783.4 64.4407 1774.04 76.9221C1720.39 148.478 1728.17 271.779 1770.03 346.814C1779.77 364.275 1790.74 379.731 1803.61 394.994C1805.38 397.089 1809.59 401.416 1810.5 403.913C1810.86 404.905 1810.93 406.898 1811.06 408C1811.56 412.455 1815.3 415.763 1818.2 418.98C1837.06 439.881 1860.85 446.265 1887.93 447.662L1871.64 449.672C1848.9 451.265 1819.42 450.175 1798 441.964C1793.6 440.279 1788.91 438.579 1784.74 436.382C1780.99 434.401 1777.86 431.92 1773.76 430.55L1737.01 418.904C1709.29 408.589 1684.1 393.338 1661.82 373.925C1610.59 329.278 1588.02 271.462 1583.5 205.003L1717.46 251.082L1593.82 187.243L1613.82 153.49C1637.73 117.898 1668.13 83.4326 1704.38 60.0586C1711.35 55.5678 1720.36 53.2539 1728 50.0239C1759.21 36.8292 1789.6 23.764 1823.1 17.1795L1823.99 19.0466L1828.51 18.5L1829.5 21.51L1827.51 24C1828.13 25.3878 1828.29 25.6054 1829.51 26.5L1823.51 29.5L1823.28 31.0879Z"/>
	<defs>
		<linearGradient id="gradient_3" gradientUnits="userSpaceOnUse" x1="450.60675" y1="747.74341" x2="-32.55135" y2="828.67871">
			<stop offset="0" stop-color="#85AFCA"/>
			<stop offset="1" stop-color="#E3EDF3"/>
		</linearGradient>
	</defs>
	<path fill="url(#gradient_3)" transform="scale(0.0683594 0.0683594)" d="M154.455 1013.79C167.61 1008.34 181.915 1005.24 195.235 999.707C238.302 981.831 275.539 948.01 293.628 904.53C319.399 842.587 317.798 768.802 292.24 707.049C286.172 692.387 279.059 678.138 270.683 664.655C265.93 657.003 260.998 649.722 255.263 642.772C250.292 636.75 243.267 630.429 239.62 623.579C238.536 621.544 238.3 619.252 238.188 616.988C237.859 610.337 229.492 603.635 224.825 599.436C214.116 589.801 200.909 580.862 187.082 576.405C180.59 574.312 173.47 573.574 166.757 572.293C183.477 571.659 199.57 573.771 216.045 576.41C231.183 578.834 246.782 581.708 261.395 586.402C266.873 588.162 271.94 591.384 277.532 593.306C288.821 597.185 300.362 600.506 311.409 605.045C338.624 616.226 366.14 632.683 387.807 652.693C428.709 690.467 455.148 738.498 457.264 794.8L457.703 808.069L329.572 766.183L423.306 816.25L441.913 826.089C444.744 827.549 448.546 828.967 450.858 831.153C421.567 903.274 353.651 955.486 283.545 985.049C248.607 999.781 211.409 1010.65 174.209 1017.95C169.761 1018.82 161.887 1021.22 157.582 1020.52C150.361 1021.6 142.472 1022.11 135.458 1024L-0 1024L0 932.61C13.4809 967.077 35.7665 996.841 70.5142 1011.95C99.3729 1024.49 124.715 1020 154.455 1013.79Z"/>
	<path fill="#98BBD2" transform="scale(0.0683594 0.0683594)" d="M189.034 321.854L189.792 321.788C194.415 321.317 198.827 319.053 203.051 317.233L225.501 306.54C298.905 267.078 359.223 206.053 414.51 144.5L445.038 109.024C451.656 101.012 458.592 90.6703 466.578 84.1853C463.694 91.8083 459.662 98.2111 455.715 105.279C445.904 122.847 434.474 139.529 422.482 155.674C365.854 231.915 300.075 300.54 220.782 353.5L222 354.194C324.142 290.701 412.111 200.435 465.471 91.9252C468.988 103.901 470.187 117.329 471.058 129.781C474.861 184.156 463.899 243.786 437.676 291.87C412.105 338.76 375.622 378.744 328.3 404.317C306.258 416.228 280.088 425.474 256.071 432.569C245.378 435.728 234.3 436.577 223.233 437.255C180.687 439.859 140.898 430.06 103.78 409.539C82.4912 397.769 64.0319 382.708 44.9706 367.81C39.2148 363.311 33.1876 360.117 28.364 354.467C15.8808 339.845 6.8487 320.431 1.5716 302.018L0.449278 298.035C5.70323 303.609 9.26755 310.168 14.963 315.488C33.3627 332.678 63.2121 340.037 87.8088 340.718C98.3592 341.009 109.038 339.556 119.5 338.37C136.876 336.402 153.701 334.021 170.432 328.702L176.218 336.287C180.977 331.67 184.978 327.101 189.034 321.854Z"/>
	<path fill="#98BBD2" transform="scale(0.0683594 0.0683594)" d="M1857.66 725.257C1853.7 725.807 1849.14 728.019 1845.37 729.471L1823.02 738.449C1813.33 742.768 1803.63 746.669 1794.34 751.87C1752.02 775.559 1715.67 809.403 1681.61 843.499L1587.34 947.45C1595.18 930.255 1604.65 914.784 1614.7 898.832C1640.85 857.336 1671.29 820.455 1705.13 785.093C1740.66 747.96 1779.92 711.814 1823.88 684.721L1823.5 683.51C1779.65 709.982 1740.71 743.57 1704.62 779.742C1672.05 812.393 1641.53 847.408 1616.83 886.526C1605.28 904.817 1596.44 923.795 1587 943.167C1575.71 891.435 1574.01 837.809 1590.14 786.809C1609.48 725.635 1644.34 671.638 1699.41 637.08C1712.57 628.822 1726.75 622.5 1741.02 616.44C1758.28 609.111 1777.37 607.88 1793.99 599.518C1799.16 596.917 1806.03 597.056 1811.73 596.751C1840.06 595.239 1869.46 600.074 1896.41 608.737C1923.22 617.354 1946.15 631.155 1970.04 645.701C1981.7 652.798 1993.68 658.953 2003.16 668.987C2018.64 685.379 2028.94 704.96 2039.16 724.859C2027.03 719.293 2015.34 714.96 2002.45 711.421C1968.51 702.097 1930.63 705.632 1896.81 713.405C1891 714.742 1883.46 715.611 1878.37 718.643L1877.74 719.032C1873.33 717.731 1861.97 723.031 1857.66 725.257Z"/>
	<defs>
		<linearGradient id="gradient_4" gradientUnits="userSpaceOnUse" x1="1363.8646" y1="663.20917" x2="909.40479" y2="1026.0123">
			<stop offset="0" stop-color="#8BB4D0"/>
			<stop offset="1" stop-color="#D2D9DE"/>
		</linearGradient>
	</defs>
	<path fill="url(#gradient_4)" transform="scale(0.0683594 0.0683594)" d="M1290.73 767.24C1288.29 762.189 1284.17 757.694 1280.69 753.312L1258.49 727.203C1238.99 706.223 1218.87 686.188 1196.29 668.468C1157.82 638.29 1114.58 615.205 1069.73 596.22L1104.67 553.193C1114.81 556.711 1125.21 559.093 1135.51 562.094L1182.1 577.235C1282.14 612.926 1394.19 671.178 1442.47 771.245C1459.1 805.729 1460.79 841.519 1448.13 877.575C1438.01 906.407 1419.22 931.765 1397.54 952.981C1391.95 958.451 1384.92 965.496 1377.76 968.792C1372.16 971.367 1365.24 970.256 1359.25 970.72C1352.84 971.216 1344.81 972.725 1338.69 974.769C1332.2 976.935 1326.8 984.172 1320.78 987.706C1311.12 993.379 1300.05 997.194 1289.52 1000.92C1263.25 1010.21 1235.8 1015.57 1208.33 1019.99C1198.69 1021.55 1188.37 1021.74 1178.94 1024L1160.98 1024L907.099 1024L907.75 1021.89C935.154 1018.61 959.353 1008.05 979.841 989.316C995.845 974.677 1009.27 953.582 1014.74 932.5C1017.93 920.236 1018.85 907.097 1019.39 894.5C1021 896.379 1023.15 923.186 1024.41 928.335C1032.4 960.954 1054.09 988.222 1082.78 1005.44C1110.98 1022.35 1139.97 1026.88 1171.87 1018.94C1186.03 1015.19 1200.18 1011.58 1213.93 1006.48C1246.9 994.273 1277.71 977.009 1306.41 956.75C1311.05 953.47 1314.41 948.265 1317.59 943.626C1328.26 928.028 1335.21 912.191 1338.46 893.5C1339.31 888.613 1340.93 885.301 1337.98 881.113C1338.37 880.586 1338.52 880.433 1338.8 879.894C1340.42 876.802 1339.74 874.206 1338.79 871.1L1341.24 868.5C1341.2 848.536 1339.11 831.223 1333.88 811.896C1328.33 791.437 1319.23 772.148 1308.72 753.796C1276.84 698.12 1227.55 650.715 1172 618.815L1170.85 619.5C1213.45 647.674 1253.71 681.639 1282.3 724.404C1288.97 734.372 1294.33 744.708 1299.22 755.622C1300.48 758.441 1302.91 762.394 1302.16 765.501L1302.02 765.957C1298.84 765.895 1293.94 766.655 1290.73 767.24Z"/>
	<path fill="#98BBD2" transform="scale(0.0683594 0.0683594)" d="M897.314 0L898.324 0L904.505 2.48352C846.547 4.09516 784.697 31.6918 744.923 73.6662C722.707 97.111 712.279 124.016 709.144 156L709.928 157.46C707.346 160.22 707.86 161.984 708.034 165.746C708.088 166.914 708.359 167.371 709.03 168.287C708.556 181.262 709.79 194.649 712.516 207.342C728.444 281.509 783.949 346.813 842.251 392.688C861.059 407.487 881.45 420.438 901.5 433.47C902.24 431.436 897.529 429.325 895.768 428.119C877.216 415.404 859.57 401.723 842.618 386.954C793.118 343.833 752.099 289.21 729.244 227.39C744.201 246.632 759 266.518 775.371 284.554C793.926 304.996 814.089 323.462 834.833 341.603C875.581 377.238 920.066 409.989 967.817 435.574C967.305 440.121 932.402 482.095 926.799 489.963C842.404 461.019 759.43 429.325 688.684 373.302C642.271 336.548 594.273 285.581 587.406 224.04C581.995 175.559 598.021 128.309 628.421 90.5953C637.962 78.7589 649.066 67.1174 660.867 57.5C662.586 56.0998 666.016 52.6382 667.969 51.922C669.347 51.4162 673.607 52.0931 675.391 52.1422L699.171 52.6468C705.873 52.6142 712.613 51.8822 719.274 51.184C718.434 47.9886 717.169 44.3296 717.112 41.0079C716.93 30.346 734.535 26.7815 742.748 24.1007C777.508 12.7539 813.606 5.58386 850.15 3.35387C864.22 2.49527 878.355 3.31087 892.439 2.17099C894.553 1.99991 895.749 1.44768 897.314 0Z"/>
	<path fill="#98BBD2" transform="scale(0.0683594 0.0683594)" d="M1277.4 186.498L1277.99 186.438C1306.91 183.729 1328.13 191.561 1350.04 209.536C1345.36 210.164 1340.22 208.968 1335.27 209.557C1316.27 211.82 1298.75 226.435 1285.94 239.958C1272.98 253.64 1261.48 268.975 1250.26 284.073L1184.5 381.934L1083.61 539.453C1060.71 574.141 1037.48 608.687 1011.89 641.484C962.343 704.957 904.794 769.046 835.714 811.57C816.002 823.704 794.348 835.029 771.054 837.887C766.005 838.791 760.627 839.024 755.5 838.916C736.368 838.515 712.651 830.958 699.274 816.824C703.372 816.941 707.796 817.318 711.855 816.745C732.771 813.796 747.157 801.71 761 786.582C775.531 770.702 787.744 751.68 799.611 733.773L855.905 645.038C905.225 565.868 954.293 486.465 1009.66 411.311C1030.84 382.577 1054.04 355.347 1078.12 329.023C1116.55 286.991 1159.02 246.486 1207.26 215.788C1218.45 208.663 1229.6 201.409 1241.83 196.158C1253.22 191.271 1265.19 188.345 1277.4 186.498Z"/>
</svg>
