<svg xmlns="http://www.w3.org/2000/svg" xmlns:xlink="http://www.w3.org/1999/xlink" width="100" zoomAndPan="magnify" viewBox="0 0 75 30.000001" height="40" preserveAspectRatio="xMidYMid meet" version="1.0"><defs><g/><clipPath id="fd2d83bd3a"><path d="M 48.796875 2.902344 L 66.214844 2.902344 L 66.214844 20.324219 L 48.796875 20.324219 Z M 48.796875 2.902344 " clip-rule="nonzero"/></clipPath></defs><g clip-path="url(#fd2d83bd3a)"><path fill="#ffffff" d="M 63.53125 3.945312 L 62.878906 3.945312 L 62.878906 3.425781 C 62.878906 3.136719 62.648438 2.902344 62.359375 2.902344 C 62.070312 2.902344 61.835938 3.136719 61.835938 3.425781 L 61.835938 3.945312 L 53.492188 3.945312 L 53.492188 3.425781 C 53.492188 3.136719 53.257812 2.902344 52.96875 2.902344 C 52.679688 2.902344 52.449219 3.136719 52.449219 3.425781 L 52.449219 3.945312 L 51.796875 3.945312 C 50.140625 3.945312 48.796875 5.292969 48.796875 6.945312 L 48.796875 17.640625 C 48.796875 19.292969 50.140625 20.640625 51.796875 20.640625 L 63.53125 20.640625 C 65.1875 20.640625 66.53125 19.292969 66.53125 17.640625 L 66.53125 6.945312 C 66.53125 5.292969 65.1875 3.945312 63.53125 3.945312 Z M 65.488281 17.640625 C 65.488281 18.71875 64.613281 19.597656 63.53125 19.597656 L 51.796875 19.597656 C 50.714844 19.597656 49.839844 18.71875 49.839844 17.640625 L 49.839844 9.164062 L 65.488281 9.164062 Z M 65.488281 8.121094 L 49.839844 8.121094 L 49.839844 6.945312 C 49.839844 5.867188 50.714844 4.988281 51.796875 4.988281 L 52.449219 4.988281 L 52.449219 6.035156 C 52.449219 6.320312 52.679688 6.554688 52.96875 6.554688 C 53.257812 6.554688 53.492188 6.320312 53.492188 6.035156 L 53.492188 4.988281 L 61.835938 4.988281 L 61.835938 6.035156 C 61.835938 6.320312 62.070312 6.554688 62.359375 6.554688 C 62.648438 6.554688 62.878906 6.320312 62.878906 6.035156 L 62.878906 4.988281 L 63.53125 4.988281 C 64.613281 4.988281 65.488281 5.867188 65.488281 6.945312 Z M 65.488281 8.121094 " fill-opacity="1" fill-rule="nonzero"/></g><path fill="#ffffff" d="M 55.65625 15.03125 L 55.363281 16.753906 C 55.289062 17.179688 55.738281 17.503906 56.117188 17.300781 L 57.664062 16.492188 L 59.210938 17.300781 C 59.59375 17.503906 60.039062 17.175781 59.964844 16.753906 L 59.671875 15.03125 L 60.921875 13.8125 C 61.230469 13.511719 61.058594 12.984375 60.632812 12.921875 L 58.90625 12.671875 L 58.132812 11.105469 C 57.941406 10.71875 57.386719 10.71875 57.195312 11.105469 L 56.421875 12.671875 L 54.695312 12.921875 C 54.269531 12.984375 54.097656 13.511719 54.40625 13.8125 Z M 55.65625 15.03125 " fill-opacity="1" fill-rule="nonzero"/><g fill="#ffffff" fill-opacity="1"><g transform="translate(6.366002, 19.128873)"><g><path d="M 4.09375 0 L 0.265625 0 C 0.410156 -0.125 0.519531 -0.34375 0.59375 -0.65625 C 0.675781 -0.96875 0.71875 -1.285156 0.71875 -1.609375 L 0.71875 -10.921875 C 0.71875 -11.242188 0.675781 -11.554688 0.59375 -11.859375 C 0.519531 -12.171875 0.410156 -12.394531 0.265625 -12.53125 L 3.640625 -12.53125 L 6.515625 -5.921875 L 9.390625 -12.53125 L 12.765625 -12.53125 C 12.617188 -12.394531 12.503906 -12.171875 12.421875 -11.859375 C 12.347656 -11.554688 12.3125 -11.242188 12.3125 -10.921875 L 12.3125 -1.609375 C 12.3125 -1.285156 12.347656 -0.96875 12.421875 -0.65625 C 12.503906 -0.34375 12.617188 -0.125 12.765625 0 L 8.9375 0 C 9.082031 -0.125 9.191406 -0.34375 9.265625 -0.65625 C 9.347656 -0.976562 9.390625 -1.300781 9.390625 -1.625 L 9.390625 -7.234375 L 6.515625 -0.359375 L 3.640625 -7.265625 L 3.640625 -1.625 C 3.640625 -1.300781 3.675781 -0.976562 3.75 -0.65625 C 3.832031 -0.34375 3.945312 -0.125 4.09375 0 Z M 4.09375 0 "/></g></g></g><g fill="#ffffff" fill-opacity="1"><g transform="translate(19.851371, 19.128873)"><g><path d="M 4.875 0.1875 C 4.113281 0.1875 3.445312 0.0625 2.875 -0.1875 C 2.3125 -0.4375 1.847656 -0.78125 1.484375 -1.21875 C 1.117188 -1.65625 0.84375 -2.15625 0.65625 -2.71875 C 0.476562 -3.289062 0.390625 -3.898438 0.390625 -4.546875 C 0.390625 -5.179688 0.484375 -5.785156 0.671875 -6.359375 C 0.859375 -6.929688 1.144531 -7.4375 1.53125 -7.875 C 1.914062 -8.3125 2.394531 -8.65625 2.96875 -8.90625 C 3.550781 -9.15625 4.234375 -9.28125 5.015625 -9.28125 C 5.671875 -9.28125 6.242188 -9.144531 6.734375 -8.875 C 7.234375 -8.601562 7.617188 -8.253906 7.890625 -7.828125 C 8.160156 -7.398438 8.296875 -6.953125 8.296875 -6.484375 C 8.296875 -6.054688 8.179688 -5.640625 7.953125 -5.234375 C 7.722656 -4.828125 7.34375 -4.492188 6.8125 -4.234375 C 6.289062 -3.984375 5.585938 -3.859375 4.703125 -3.859375 L 3.1875 -3.859375 C 3.289062 -3.398438 3.492188 -3.039062 3.796875 -2.78125 C 4.109375 -2.519531 4.507812 -2.390625 5 -2.390625 C 5.320312 -2.390625 5.597656 -2.453125 5.828125 -2.578125 C 6.054688 -2.710938 6.242188 -2.863281 6.390625 -3.03125 C 6.546875 -3.195312 6.65625 -3.335938 6.71875 -3.453125 C 6.925781 -3.117188 7.175781 -2.789062 7.46875 -2.46875 C 7.769531 -2.15625 8.054688 -1.878906 8.328125 -1.640625 C 7.941406 -1.035156 7.4375 -0.578125 6.8125 -0.265625 C 6.195312 0.0351562 5.550781 0.1875 4.875 0.1875 Z M 3.15625 -4 C 3.570312 -4.070312 3.972656 -4.207031 4.359375 -4.40625 C 4.753906 -4.601562 5.078125 -4.847656 5.328125 -5.140625 C 5.585938 -5.429688 5.71875 -5.765625 5.71875 -6.140625 C 5.71875 -6.316406 5.65625 -6.484375 5.53125 -6.640625 C 5.40625 -6.804688 5.207031 -6.890625 4.9375 -6.890625 C 4.6875 -6.890625 4.421875 -6.800781 4.140625 -6.625 C 3.859375 -6.445312 3.613281 -6.179688 3.40625 -5.828125 C 3.207031 -5.484375 3.109375 -5.054688 3.109375 -4.546875 C 3.109375 -4.359375 3.125 -4.175781 3.15625 -4 Z M 3.15625 -4 "/></g></g></g><g fill="#ffffff" fill-opacity="1"><g transform="translate(28.897865, 19.128873)"><g><path d="M 4.875 0.1875 C 4.113281 0.1875 3.445312 0.0625 2.875 -0.1875 C 2.3125 -0.4375 1.847656 -0.78125 1.484375 -1.21875 C 1.117188 -1.65625 0.84375 -2.15625 0.65625 -2.71875 C 0.476562 -3.289062 0.390625 -3.898438 0.390625 -4.546875 C 0.390625 -5.179688 0.484375 -5.785156 0.671875 -6.359375 C 0.859375 -6.929688 1.144531 -7.4375 1.53125 -7.875 C 1.914062 -8.3125 2.394531 -8.65625 2.96875 -8.90625 C 3.550781 -9.15625 4.234375 -9.28125 5.015625 -9.28125 C 5.671875 -9.28125 6.242188 -9.144531 6.734375 -8.875 C 7.234375 -8.601562 7.617188 -8.253906 7.890625 -7.828125 C 8.160156 -7.398438 8.296875 -6.953125 8.296875 -6.484375 C 8.296875 -6.054688 8.179688 -5.640625 7.953125 -5.234375 C 7.722656 -4.828125 7.34375 -4.492188 6.8125 -4.234375 C 6.289062 -3.984375 5.585938 -3.859375 4.703125 -3.859375 L 3.1875 -3.859375 C 3.289062 -3.398438 3.492188 -3.039062 3.796875 -2.78125 C 4.109375 -2.519531 4.507812 -2.390625 5 -2.390625 C 5.320312 -2.390625 5.597656 -2.453125 5.828125 -2.578125 C 6.054688 -2.710938 6.242188 -2.863281 6.390625 -3.03125 C 6.546875 -3.195312 6.65625 -3.335938 6.71875 -3.453125 C 6.925781 -3.117188 7.175781 -2.789062 7.46875 -2.46875 C 7.769531 -2.15625 8.054688 -1.878906 8.328125 -1.640625 C 7.941406 -1.035156 7.4375 -0.578125 6.8125 -0.265625 C 6.195312 0.0351562 5.550781 0.1875 4.875 0.1875 Z M 3.15625 -4 C 3.570312 -4.070312 3.972656 -4.207031 4.359375 -4.40625 C 4.753906 -4.601562 5.078125 -4.847656 5.328125 -5.140625 C 5.585938 -5.429688 5.71875 -5.765625 5.71875 -6.140625 C 5.71875 -6.316406 5.65625 -6.484375 5.53125 -6.640625 C 5.40625 -6.804688 5.207031 -6.890625 4.9375 -6.890625 C 4.6875 -6.890625 4.421875 -6.800781 4.140625 -6.625 C 3.859375 -6.445312 3.613281 -6.179688 3.40625 -5.828125 C 3.207031 -5.484375 3.109375 -5.054688 3.109375 -4.546875 C 3.109375 -4.359375 3.125 -4.175781 3.15625 -4 Z M 3.15625 -4 "/></g></g></g><g fill="#ffffff" fill-opacity="1"><g transform="translate(37.944358, 19.128873)"><g><path d="M 0 -6.625 L 0 -9.09375 C 0.238281 -9.195312 0.507812 -9.34375 0.8125 -9.53125 C 1.125 -9.71875 1.441406 -9.9375 1.765625 -10.1875 C 2.085938 -10.4375 2.382812 -10.695312 2.65625 -10.96875 C 2.9375 -11.25 3.164062 -11.519531 3.34375 -11.78125 L 3.421875 -11.78125 L 3.421875 -9.09375 L 5.375 -9.09375 L 5.375 -6.625 L 3.421875 -6.625 L 3.421875 -3.671875 C 3.421875 -3.085938 3.503906 -2.691406 3.671875 -2.484375 C 3.847656 -2.285156 4.097656 -2.1875 4.421875 -2.1875 C 4.617188 -2.1875 4.796875 -2.222656 4.953125 -2.296875 C 5.109375 -2.378906 5.242188 -2.492188 5.359375 -2.640625 C 5.398438 -2.242188 5.46875 -1.863281 5.5625 -1.5 C 5.664062 -1.132812 5.75 -0.804688 5.8125 -0.515625 C 5.601562 -0.304688 5.300781 -0.132812 4.90625 0 C 4.519531 0.125 4.117188 0.1875 3.703125 0.1875 C 2.734375 0.1875 2 -0.09375 1.5 -0.65625 C 1.007812 -1.226562 0.765625 -2.039062 0.765625 -3.09375 L 0.765625 -6.625 Z M 0 -6.625 "/></g></g></g></svg>