            <svg version="1.1" id="svg1" width="500" height="300" viewBox="0 0 1000 666.66669"
                sodipodi:docname="sunset-landscape.svg" inkscape:version="1.3.2 (091e20e, 2023-11-25)"
                xmlns:inkscape="http://www.inkscape.org/namespaces/inkscape"
                xmlns:sodipodi="http://sodipodi.sourceforge.net/DTD/sodipodi-0.dtd" xmlns="http://www.w3.org/2000/svg"
                xmlns:svg="http://www.w3.org/2000/svg">
                <style>

                .sunrise__layer1, .sunrise__layer2, .sunrise__layer3, .sunrise__layer4 {
  animation: 4s color-change infinite alternate linear;
}

@keyframes color-change { 
  0% {
    fill: #fa6271;
  }
  50% {
    fill: #fb996f;
  }
  100% {
    fill: #fcbe6e;
  }
}

.sunrise__layer-horizon, .sunrise__layer-water {
  animation: 4s color-change-background infinite alternate linear;
}

@keyframes color-change-background { /*animation name is color-change-background here*/
  0% {
    fill: #7d4389;
   }
   /*
   50% {
    fill: #000000;
  }  */
  100% {
    fill:#75b5f1;
  }
}

 .sunrise__layer-water--light {
  animation: 4s color-change-water--light infinite alternate linear;
}

@keyframes color-change-water--light { /*animation name is color-change-background here*/
  0% {
    fill: #ab64b9;
  }
  /* 50% {
    fill: #b680b7; 
  }*/
  100% {
    fill:#81aed8;
  }
}

.sunrise__layer-water--dark {
  animation: 4s color-change-water--dark infinite alternate linear;
}

@keyframes color-change-water--dark { 
  0% {
    fill: #a251b0;
  }
  /* 50% {
    fill: #6c67b4;
  } */
  100% {
    fill:#5082b1;
  }
}

.sunrise__layer-water--medium {
  animation: 4s color-change-water--medium infinite alternate linear;
}

@keyframes color-change-water--medium { 
  0% {
    fill: #bd66cf; 
  }
  /* 50% {
    fill: #ab61ba;
  } */
  100% {
    fill:#4795d4;
  }
} 

@keyframes cloud-move {
  from {
    translate: 150vw 0;
    scale: 200% 1;
  }

  to {
    translate: 0 0;
    scale: 100% 1;
  }
}

.cloud__move-large, .cloud__move-small {
  animation-duration: 15s;
  animation-name: cloud-move;
  animation-iteration-count: infinite;
  animation-direction: alternate;
  animation-timing-function: linear;
} 

 


                </style>
                <defs id="defs1">
                    <clipPath clipPathUnits="userSpaceOnUse" id="clipPath5">
                        <path
                            d="M 5000,4590 H 2500 C 1345.73,4590 410.004,3654.27 410.004,2500 v 0 C 410.004,1345.72 1345.73,410 2500,410 h 2500 c 1154.27,0 2090,935.72 2090,2090 v 0 c 0,1154.27 -935.73,2090 -2090,2090"
                            transform="translate(0,2.5e-5)" id="path5" />
                    </clipPath>
                    <clipPath clipPathUnits="userSpaceOnUse" id="clipPath7">
                        <path
                            d="M 5000,4590 H 2500 C 1345.73,4590 410.004,3654.27 410.004,2500 v 0 C 410.004,1345.72 1345.73,410 2500,410 h 2500 c 1154.27,0 2090,935.72 2090,2090 v 0 c 0,1154.27 -935.73,2090 -2090,2090"
                            transform="translate(0,2.5e-5)" id="path7" />
                    </clipPath>
                    <clipPath clipPathUnits="userSpaceOnUse" id="clipPath9">
                        <path
                            d="M 5000,4590 H 2500 C 1345.73,4590 410.004,3654.27 410.004,2500 v 0 C 410.004,1345.72 1345.73,410 2500,410 h 2500 c 1154.27,0 2090,935.72 2090,2090 v 0 c 0,1154.27 -935.73,2090 -2090,2090"
                            transform="translate(0,2.5e-5)" id="path9" />
                    </clipPath>
                    <clipPath clipPathUnits="userSpaceOnUse" id="clipPath11">
                        <path
                            d="M 5000,4590 H 2500 C 1345.73,4590 410.004,3654.27 410.004,2500 v 0 C 410.004,1345.72 1345.73,410 2500,410 h 2500 c 1154.27,0 2090,935.72 2090,2090 v 0 c 0,1154.27 -935.73,2090 -2090,2090"
                            transform="translate(0,2.5e-5)" id="path11" />
                    </clipPath>
                    <clipPath clipPathUnits="userSpaceOnUse" id="clipPath13">
                        <path
                            d="M 5000,4590 H 2500 C 1345.73,4590 410.004,3654.27 410.004,2500 v 0 C 410.004,1345.72 1345.73,410 2500,410 h 2500 c 1154.27,0 2090,935.72 2090,2090 v 0 c 0,1154.27 -935.73,2090 -2090,2090"
                            transform="translate(0,2.5e-5)" id="path13" />
                    </clipPath>
                    <clipPath clipPathUnits="userSpaceOnUse" id="clipPath15">
                        <path
                            d="M 5000,4590 H 2500 C 1345.73,4590 410.004,3654.27 410.004,2500 v 0 C 410.004,1345.72 1345.73,410 2500,410 h 2500 c 1154.27,0 2090,935.72 2090,2090 v 0 c 0,1154.27 -935.73,2090 -2090,2090"
                            transform="translate(0,2.5e-5)" id="path15" />
                    </clipPath>
                    <clipPath clipPathUnits="userSpaceOnUse" id="clipPath17">
                        <path
                            d="M 5000,4590 H 2500 C 1345.73,4590 410.004,3654.27 410.004,2500 v 0 C 410.004,1345.72 1345.73,410 2500,410 h 2500 c 1154.27,0 2090,935.72 2090,2090 v 0 c 0,1154.27 -935.73,2090 -2090,2090"
                            transform="translate(0,2.5e-5)" id="path17" />
                    </clipPath>
                    <clipPath clipPathUnits="userSpaceOnUse" id="clipPath19">
                        <path
                            d="M 5000,4590 H 2500 C 1345.73,4590 410.004,3654.27 410.004,2500 v 0 C 410.004,1345.72 1345.73,410 2500,410 h 2500 c 1154.27,0 2090,935.72 2090,2090 v 0 c 0,1154.27 -935.73,2090 -2090,2090"
                            transform="translate(0,2.5e-5)" id="path19" />
                    </clipPath>
                    <clipPath clipPathUnits="userSpaceOnUse" id="clipPath21">
                        <path
                            d="M 5000,4590 H 2500 C 1345.73,4590 410.004,3654.27 410.004,2500 v 0 C 410.004,1345.72 1345.73,410 2500,410 h 2500 c 1154.27,0 2090,935.72 2090,2090 v 0 c 0,1154.27 -935.73,2090 -2090,2090"
                            transform="translate(0,2.5e-5)" id="path21" />
                    </clipPath>
                    <clipPath clipPathUnits="userSpaceOnUse" id="clipPath23">
                        <path
                            d="M 5000,4590 H 2500 C 1345.73,4590 410.004,3654.27 410.004,2500 v 0 C 410.004,1345.72 1345.73,410 2500,410 h 2500 c 1154.27,0 2090,935.72 2090,2090 v 0 c 0,1154.27 -935.73,2090 -2090,2090"
                            transform="translate(0,2.5e-5)" id="path23" />
                    </clipPath>
                    <clipPath clipPathUnits="userSpaceOnUse" id="clipPath25">
                        <path
                            d="M 5000,4590 H 2500 C 1345.73,4590 410.004,3654.27 410.004,2500 v 0 C 410.004,1345.72 1345.73,410 2500,410 h 2500 c 1154.27,0 2090,935.72 2090,2090 v 0 c 0,1154.27 -935.73,2090 -2090,2090"
                            transform="translate(0,2.5e-5)" id="path25" />
                    </clipPath>
                    <clipPath clipPathUnits="userSpaceOnUse" id="clipPath27">
                        <path
                            d="M 5000,4590 H 2500 C 1345.73,4590 410.004,3654.27 410.004,2500 v 0 C 410.004,1345.72 1345.73,410 2500,410 h 2500 c 1154.27,0 2090,935.72 2090,2090 v 0 c 0,1154.27 -935.73,2090 -2090,2090"
                            transform="translate(0,2.5e-5)" id="path27" />
                    </clipPath>
                    <clipPath clipPathUnits="userSpaceOnUse" id="clipPath29">
                        <path
                            d="M 5000,4590 H 2500 C 1345.73,4590 410.004,3654.27 410.004,2500 v 0 C 410.004,1345.72 1345.73,410 2500,410 h 2500 c 1154.27,0 2090,935.72 2090,2090 v 0 c 0,1154.27 -935.73,2090 -2090,2090"
                            transform="translate(0,2.5e-5)" id="path29" />
                    </clipPath>
                    <clipPath clipPathUnits="userSpaceOnUse" id="clipPath31">
                        <path
                            d="M 5000,4590 H 2500 C 1345.73,4590 410.004,3654.27 410.004,2500 v 0 C 410.004,1345.72 1345.73,410 2500,410 h 2500 c 1154.27,0 2090,935.72 2090,2090 v 0 c 0,1154.27 -935.73,2090 -2090,2090"
                            transform="translate(0,2.5e-5)" id="path31" />
                    </clipPath>
                    <clipPath clipPathUnits="userSpaceOnUse" id="clipPath33">
                        <path
                            d="M 5000,4590 H 2500 C 1345.73,4590 410.004,3654.27 410.004,2500 v 0 C 410.004,1345.72 1345.73,410 2500,410 h 2500 c 1154.27,0 2090,935.72 2090,2090 v 0 c 0,1154.27 -935.73,2090 -2090,2090"
                            transform="translate(0,2.5e-5)" id="path33" />
                    </clipPath>
                    <clipPath clipPathUnits="userSpaceOnUse" id="clipPath35">
                        <path
                            d="M 5000,4590 H 2500 C 1345.73,4590 410.004,3654.27 410.004,2500 v 0 C 410.004,1345.72 1345.73,410 2500,410 h 2500 c 1154.27,0 2090,935.72 2090,2090 v 0 c 0,1154.27 -935.73,2090 -2090,2090"
                            transform="translate(0,2.5e-5)" id="path35" />
                    </clipPath>
                    <clipPath clipPathUnits="userSpaceOnUse" id="clipPath37">
                        <path
                            d="M 5000,4590 H 2500 C 1345.73,4590 410.004,3654.27 410.004,2500 v 0 C 410.004,1345.72 1345.73,410 2500,410 h 2500 c 1154.27,0 2090,935.72 2090,2090 v 0 c 0,1154.27 -935.73,2090 -2090,2090"
                            transform="translate(0,2.5e-5)" id="path37" />
                    </clipPath>
                    <clipPath clipPathUnits="userSpaceOnUse" id="clipPath39">
                        <path
                            d="M 5000,4590 H 2500 C 1345.73,4590 410.004,3654.27 410.004,2500 v 0 C 410.004,1345.72 1345.73,410 2500,410 h 2500 c 1154.27,0 2090,935.72 2090,2090 v 0 c 0,1154.27 -935.73,2090 -2090,2090"
                            transform="translate(0,2.5e-5)" id="path39" />
                    </clipPath>
                    <clipPath clipPathUnits="userSpaceOnUse" id="clipPath41">
                        <path
                            d="M 5000,4590 H 2500 C 1345.73,4590 410.004,3654.27 410.004,2500 v 0 C 410.004,1345.72 1345.73,410 2500,410 h 2500 c 1154.27,0 2090,935.72 2090,2090 v 0 c 0,1154.27 -935.73,2090 -2090,2090"
                            transform="translate(0,2.5e-5)" id="path41" />
                    </clipPath>
                    <clipPath clipPathUnits="userSpaceOnUse" id="clipPath43">
                        <path
                            d="M 5000,4590 H 2500 C 1345.73,4590 410.004,3654.27 410.004,2500 v 0 C 410.004,1345.72 1345.73,410 2500,410 h 2500 c 1154.27,0 2090,935.72 2090,2090 v 0 c 0,1154.27 -935.73,2090 -2090,2090"
                            transform="translate(0,2.5e-5)" id="path43" />
                    </clipPath>
                    <clipPath clipPathUnits="userSpaceOnUse" id="clipPath45">
                        <path
                            d="M 5000,4590 H 2500 C 1345.73,4590 410.004,3654.27 410.004,2500 v 0 C 410.004,1345.72 1345.73,410 2500,410 h 2500 c 1154.27,0 2090,935.72 2090,2090 v 0 c 0,1154.27 -935.73,2090 -2090,2090"
                            transform="translate(0,2.5e-5)" id="path45" />
                    </clipPath>
                    <clipPath clipPathUnits="userSpaceOnUse" id="clipPath47">
                        <path
                            d="M 5000,4590 H 2500 C 1345.73,4590 410.004,3654.27 410.004,2500 v 0 C 410.004,1345.72 1345.73,410 2500,410 h 2500 c 1154.27,0 2090,935.72 2090,2090 v 0 c 0,1154.27 -935.73,2090 -2090,2090"
                            transform="translate(0,2.5e-5)" id="path47" />
                    </clipPath>
                    <clipPath clipPathUnits="userSpaceOnUse" id="clipPath49">
                        <path
                            d="M 5000,4590 H 2500 C 1345.73,4590 410.004,3654.27 410.004,2500 v 0 C 410.004,1345.72 1345.73,410 2500,410 h 2500 c 1154.27,0 2090,935.72 2090,2090 v 0 c 0,1154.27 -935.73,2090 -2090,2090"
                            transform="translate(0,2.5e-5)" id="path49" />
                    </clipPath>
                    <clipPath clipPathUnits="userSpaceOnUse" id="clipPath51">
                        <path
                            d="M 5000,4590 H 2500 C 1345.73,4590 410.004,3654.27 410.004,2500 v 0 C 410.004,1345.72 1345.73,410 2500,410 h 2500 c 1154.27,0 2090,935.72 2090,2090 v 0 c 0,1154.27 -935.73,2090 -2090,2090"
                            transform="translate(0,2.5e-5)" id="path51" />
                    </clipPath>
                    <clipPath clipPathUnits="userSpaceOnUse" id="clipPath53">
                        <path
                            d="M 5000,4590 H 2500 C 1345.73,4590 410.004,3654.27 410.004,2500 v 0 C 410.004,1345.72 1345.73,410 2500,410 h 2500 c 1154.27,0 2090,935.72 2090,2090 v 0 c 0,1154.27 -935.73,2090 -2090,2090"
                            transform="translate(0,2.5e-5)" id="path53" />
                    </clipPath>
                    <clipPath clipPathUnits="userSpaceOnUse" id="clipPath55">
                        <path
                            d="M 5000,4590 H 2500 C 1345.73,4590 410.004,3654.27 410.004,2500 v 0 C 410.004,1345.72 1345.73,410 2500,410 h 2500 c 1154.27,0 2090,935.72 2090,2090 v 0 c 0,1154.27 -935.73,2090 -2090,2090"
                            transform="translate(0,2.5e-5)" id="path55" />
                    </clipPath>
                    <clipPath clipPathUnits="userSpaceOnUse" id="clipPath57">
                        <path
                            d="M 5000,4590 H 2500 C 1345.73,4590 410.004,3654.27 410.004,2500 v 0 C 410.004,1345.72 1345.73,410 2500,410 h 2500 c 1154.27,0 2090,935.72 2090,2090 v 0 c 0,1154.27 -935.73,2090 -2090,2090"
                            transform="translate(0,2.5e-5)" id="path57" />
                    </clipPath>
                    <clipPath clipPathUnits="userSpaceOnUse" id="clipPath59">
                        <path
                            d="M 5000,4590 H 2500 C 1345.73,4590 410.004,3654.27 410.004,2500 v 0 C 410.004,1345.72 1345.73,410 2500,410 h 2500 c 1154.27,0 2090,935.72 2090,2090 v 0 c 0,1154.27 -935.73,2090 -2090,2090"
                            transform="translate(0,2.5e-5)" id="path59" />
                    </clipPath>
                    <clipPath clipPathUnits="userSpaceOnUse" id="clipPath61">
                        <path
                            d="M 5000,4590 H 2500 C 1345.73,4590 410.004,3654.27 410.004,2500 v 0 C 410.004,1345.72 1345.73,410 2500,410 h 2500 c 1154.27,0 2090,935.72 2090,2090 v 0 c 0,1154.27 -935.73,2090 -2090,2090"
                            transform="translate(0,2.5e-5)" id="path61" />
                    </clipPath>
                    <clipPath clipPathUnits="userSpaceOnUse" id="clipPath63">
                        <path
                            d="M 5000,4590 H 2500 C 1345.73,4590 410.004,3654.27 410.004,2500 v 0 C 410.004,1345.72 1345.73,410 2500,410 h 2500 c 1154.27,0 2090,935.72 2090,2090 v 0 c 0,1154.27 -935.73,2090 -2090,2090"
                            transform="translate(0,2.5e-5)" id="path63" />
                    </clipPath>
                    <clipPath clipPathUnits="userSpaceOnUse" id="clipPath65">
                        <path
                            d="M 5000,4590 H 2500 C 1345.73,4590 410.004,3654.27 410.004,2500 v 0 C 410.004,1345.72 1345.73,410 2500,410 h 2500 c 1154.27,0 2090,935.72 2090,2090 v 0 c 0,1154.27 -935.73,2090 -2090,2090"
                            transform="translate(0,2.5e-5)" id="path65" />
                    </clipPath>
                </defs>
                <sodipodi:namedview id="namedview1" pagecolor="#ffffff" bordercolor="#000000" borderopacity="0.25"
                    inkscape:showpageshadow="2" inkscape:pageopacity="0.0" inkscape:pagecheckerboard="0"
                    inkscape:deskcolor="#d1d1d1" inkscape:zoom="0.50555349" inkscape:cx="353.07837"
                    inkscape:cy="219.56134" inkscape:window-width="1408" inkscape:window-height="449"
                    inkscape:window-x="0" inkscape:window-y="38" inkscape:window-maximized="0"
                    inkscape:current-layer="group-R5">
                    <inkscape:page x="0" y="0" inkscape:label="1" id="page1" width="1000" height="666.66669" margin="0"
                        bleed="0" />
                </sodipodi:namedview>
                <g id="g1" inkscape:groupmode="layer" inkscape:label="1">
                    <g id="group-R5">
                        <path id="path2" d="M 0,0 H 7500 V 5000 H 0 Z"
                            style="fill:#3a2c44;fill-opacity:1;fill-rule:nonzero;stroke:none"
                            transform="matrix(0.13333333,0,0,-0.13333333,0,666.66667)" />
                        <path id="path3" class="sunrise__layer-horizon"
                            d="M 5000,4590 H 2500 C 1345.73,4590 410.004,3654.27 410.004,2500 v 0 C 410.004,1345.72 1345.73,410 2500,410 h 2500 c 1154.27,0 2090,935.72 2090,2090 v 0 c 0,1154.27 -935.73,2090 -2090,2090"
                            style="fill:#6d3878;fill-opacity:1;fill-rule:nonzero;stroke:none"
                            transform="matrix(0.13333333,0,0,-0.13333333,0,666.66667)" />
                        <path id="path4" class="sunrise__layer4"
                            d="m 3750,4316.84 c 1039.84,0 1882.8,-842.97 1882.8,-1882.81 0,-1039.84 -842.96,-1882.8 -1882.8,-1882.8 -1039.84,0 -1882.8,842.96 -1882.8,1882.8 0,1039.84 842.96,1882.81 1882.8,1882.81"
                            style="fill:#cb4874;fill-opacity:1;fill-rule:nonzero;stroke:none"
                            transform="matrix(0.13333333,0,0,-0.13333333,0,666.66667)" clip-path="url(#clipPath5)" />
                        <path id="path6" class="sunrise__layer3"
                            d="m 3750,3950.76 c 837.66,0 1516.72,-679.06 1516.72,-1516.73 0,-837.67 -679.06,-1516.729 -1516.72,-1516.729 -837.67,0 -1516.73,679.059 -1516.73,1516.729 0,837.67 679.06,1516.73 1516.73,1516.73"
                            style="fill:#fa6271;fill-opacity:1;fill-rule:nonzero;stroke:none"
                            transform="matrix(0.13333333,0,0,-0.13333333,0,666.66667)" clip-path="url(#clipPath7)" />
                        <path id="path8" class="sunrise__layer2"
                            d="m 3750,3573.91 c 629.54,0 1139.88,-510.34 1139.88,-1139.88 0,-629.53 -510.34,-1139.87 -1139.88,-1139.87 -629.54,0 -1139.88,510.34 -1139.88,1139.87 0,629.54 510.34,1139.88 1139.88,1139.88"
                            style="fill:#fb996f;fill-opacity:1;fill-rule:nonzero;stroke:none"
                            transform="matrix(0.13333333,0,0,-0.13333333,0,666.66667)" clip-path="url(#clipPath9)" />
                        <path id="path10" class="sunrise__layer1"
                            d="m 3750,3181.49 c 412.81,0 747.46,-334.65 747.46,-747.46 0,-412.81 -334.65,-747.46 -747.46,-747.46 -412.81,0 -747.46,334.65 -747.46,747.46 0,412.81 334.65,747.46 747.46,747.46"
                            style="fill:#fcbe6e;fill-opacity:1;fill-rule:nonzero;stroke:none"
                            transform="matrix(0.13333333,0,0,-0.13333333,0,666.66667)" clip-path="url(#clipPath11)" />
                        <path id="path12" class="sunrise__layer-water"
                            d="M 458.988,2048.82 C 665.281,1111.44 1500.65,410 2500,410 h 2500 c 999.34,0 1834.72,701.44 2041.01,1638.82 H 458.988"
                            style="fill:#a560ac;fill-opacity:1;fill-rule:nonzero;stroke:none"
                            transform="matrix(0.13333333,0,0,-0.13333333,0,666.66667)" clip-path="url(#clipPath13)" />
                        <path id="path14" class="sunrise__layer-water--medium"
                            d="M 93.5977,1934.39 7356.7,1997.31 V 1876.08 L 93.5977,1930.61 v 3.78"
                            style="fill:#9c59a3;fill-opacity:1;fill-rule:nonzero;stroke:none"
                            transform="matrix(0.13333333,0,0,-0.13333333,0,666.66667)" clip-path="url(#clipPath15)" />
                        <path id="path16" class="sunrise__layer-water--medium"
                            d="M 7356.7,468.309 93.6016,531.23 V 410 L 7356.7,464.531 v 3.778"
                            style="fill:#763f81;fill-opacity:1;fill-rule:nonzero;stroke:none"
                            transform="matrix(0.13333333,0,0,-0.13333333,0,666.66667)" clip-path="url(#clipPath17)" />
                        <path id="path18" class="sunrise__layer-water--medium"
                            d="M 93.5977,1800.83 7356.7,1640.8 v -81.05 L 93.5977,1547.05 v 253.78"
                            style="fill:#92539b;fill-opacity:1;fill-rule:nonzero;stroke:none"
                            transform="matrix(0.13333333,0,0,-0.13333333,0,666.66667)" clip-path="url(#clipPath19)" />
                        <path id="path20" class="sunrise__layer-water--medium"
                            d="M 93.5977,1508.43 7356.7,1465.05 v -159.43 l -7253.169,-10.47 -9.9333,213.28"
                            style="fill:#9c59a3;fill-opacity:1;fill-rule:nonzero;stroke:none"
                            transform="matrix(0.13333333,0,0,-0.13333333,0,666.66667)" clip-path="url(#clipPath21)" />
                        <path id="path22" class="sunrise__layer-water--medium"
                            d="m 241.488,1077.04 4808.452,39 2128.49,-39 -1791.47,-76.41 1190.78,-26.618 373.26,-45.602 -2452.74,3.801 -648.72,-26.602 h -2203.9 l 2532.72,-76.007 2239.43,-3.801 938.91,-66.91 V 710.809 L 6026.76,643.398 3317.14,703.191 2152.17,643.398 93.5977,588.371 V 693.922 L 2775.35,727.352 1805.64,772.602 93.5977,925.91 v 23.852 l 1018.8823,-25.141 3990.1,79.809 -4861.092,72.61"
                            style="fill:#894c92;fill-opacity:1;fill-rule:nonzero;stroke:none"
                            transform="matrix(0.13333333,0,0,-0.13333333,0,666.66667)" clip-path="url(#clipPath23)" />
                        <path id="path24"
                            d="m 4561.64,2361.25 c 65.95,0 126.32,-23.9 172.94,-63.5 42.14,104.6 144.58,178.42 264.25,178.42 68.43,0 131.21,-24.13 180.32,-64.35 25.85,130.7 141.08,229.24 279.36,229.24 43.81,0 85.3,-9.91 122.38,-27.58 54.62,155.74 202.9,267.42 377.28,267.42 178.38,0 329.43,-116.86 380.88,-278.17 14.29,2.2 28.92,3.36 43.83,3.36 96.01,0 180.92,-47.52 232.52,-120.31 17.36,2.78 35.15,4.25 53.3,4.25 152.2,0 280.63,-101.76 321,-240.95 44.52,35.79 101.08,57.22 162.65,57.22 142.71,0 258.53,-115.07 259.79,-257.48 -1168.69,0 -2003.79,0 -3114.01,0 -2.49,14.66 -3.81,29.73 -3.81,45.11 0,147.64 119.68,267.32 267.32,267.32"
                            style="fill:#f9ffe5;fill-opacity:1;fill-rule:nonzero;stroke:none"
                            transform="matrix(0.13333333,0,0,-0.13333333,0,666.66667)" clip-path="url(#clipPath25)" />
                        <path id="path26"
                            d="m 237.129,2370.67 c 67.949,0 130.133,-24.62 178.16,-65.41 43.414,107.74 148.938,183.8 272.227,183.8 70.484,0 135.156,-24.86 185.746,-66.29 26.633,134.63 145.348,236.15 287.798,236.15 45.13,0 87.87,-10.2 126.07,-28.41 56.26,160.43 209.01,275.48 388.65,275.48 183.76,0 339.38,-120.38 392.37,-286.56 14.72,2.28 29.8,3.46 45.15,3.46 98.91,0 186.37,-48.95 239.52,-123.93 17.89,2.86 36.23,4.37 54.92,4.37 156.79,0 289.1,-104.82 330.68,-248.22 45.86,36.87 104.13,58.95 167.55,58.95 147.02,0 266.33,-118.54 267.63,-265.24 -1203.93,0 -2064.22,0 -3207.9164,0 -2.5703,15.1 -3.9258,30.63 -3.9258,46.47 0,152.09 123.2891,275.38 275.3712,275.38"
                            style="fill:#f9ffe5;fill-opacity:1;fill-rule:nonzero;stroke:none"
                            transform="matrix(0.13333333,0,0,-0.13333333,0,666.66667)" clip-path="url(#clipPath27)" />
                        <path id="path28"
                            d="m 2122.22,2358.05 24.23,8.35 c -11.67,1.55 -22.22,2.4 -33.28,7.69 l -6.14,3.8 c -3.75,-4.02 -5.13,-1.08 5.51,-11.95 2.13,-2.17 7.08,-7.54 9.68,-7.89 m 888.59,-590.32 c -54.76,0.74 -245.77,87.89 -244.93,155.55 -8.17,-4.88 -9.87,-9.21 -16.98,-20.83 -57.01,43.63 -103.92,87.44 -120.62,113.44 -6.38,9.92 -10.09,25.97 -14.74,37.19 l -9.07,-24.8 c -16.34,2.54 -72.02,34.92 -92.81,43.73 l -35.39,13.71 -17.97,-26.51 c 58.35,8.17 61.66,18.38 104.84,-31.98 49.07,-57.25 61.3,-80.07 90.3,-152.83 -23.68,3.14 -37.92,-2.07 -59.05,-9.52 26.81,-5.85 49.29,-18.74 66.23,-33.48 17.15,-14.92 17.66,-46.95 19.15,-69.54 1.82,-27.88 3.51,-50.34 -0.51,-84.64 -4.18,-35.78 8.32,-32.41 -47.23,-8.07 l 10.24,-10.02 c 11.31,-10.7 20.38,-25.76 29.56,-38.61 l -25.87,-86.16 -27.27,12.28 11.4,-44.86 -83.01,-124.84 c -3.31,34.04 -18.35,87.59 -25.18,123.62 -6.15,32.48 -26.65,96.78 -18.18,126.06 11.81,40.89 13.35,48.91 30.21,87.31 -20.29,-2.63 -37.22,-23.62 -51.08,-36.58 -2.88,29.58 -30.04,87.06 -31.9,108.27 1.36,10.21 2.62,13.78 6.3,21.77 1.75,3.81 1.42,3.38 4.16,7.89 l 6.71,9 c -4.48,4.19 -10.85,-1.71 -27.6,-8.37 -6.33,6.06 -16.63,33.7 -21.8,44.54 l -23.05,43.59 c -26.56,46.7 -23.47,42.74 -34.81,95.82 l -9.07,-24.8 -87.76,104.58 c -4.61,-4.93 2.88,-8.54 6.14,-14.01 20.27,-34.01 34.86,-68.77 47.75,-106.33 l -32.75,-7.21 c 15.09,-2.35 35.39,-15.75 40.46,-25.16 3.86,-7.14 8.44,-42.35 9.34,-51.53 3.76,-38.46 1.18,-77.28 -0.42,-117.71 -17.08,2.65 -33.27,10.5 -49.98,15.3 4.3,-7.88 9.21,-9.46 15.69,-16.06 9.03,-9.2 20.56,-25.12 24.12,-37.86 5.8,-20.72 -34.06,-105.99 -43.64,-127.66 l -25.77,23.65 c 6.12,-47.13 40.6,-9.41 -24.9,-100.75 l -18.38,14 c 2.84,-43.13 -10.28,-46.54 -42.14,-78.23 -14.65,-14.59 -33.42,-25.49 -51.09,-36.58 3.97,29.96 1.77,57.9 5.5,85.87 12.19,103.67 -3.55,101.99 64.7,182.28 -18.06,-1.77 -32.27,-9.09 -48.45,-16.71 10.93,82.52 0.06,59.53 40.03,127.64 l -25.94,0.55 c 4.39,33.09 9.91,68.13 10.42,97.31 0.31,17.34 4.16,30.58 8.97,43.95 4.52,12.58 10.19,25.53 19.06,36.2 -5.02,4.69 -12.35,-3.54 -21.92,-9.14 l 4.59,87.29 c -28.08,-43.54 -52.98,-94.7 -75.64,-141.12 l -74.19,-156.32 c -66.44,-138.75 -145.25,-374.91 -185.5,-520.73 l -49.89,-191.39 c -18.51,-66.981 -29.78,-130.371 -42.3,-197.961 -6.45,-34.797 -14.46,-64.43 -19.24,-101.489 -2.75,-21.359 -7.15,-32.968 -9.71,-50.609 -35,-254.101 -62.72,-497.09 -59.71,-750.289 0.35,-29.1718 0.95,-54.523 1.89,-82.781 l 3.21,-81.762 c 18.27,-2.41 53,0.84 70.36,1.43 l 96.68,1.222 -47.63,-359.492 -885.25,117.27 75.168,123.25 c 30.252,10.57 61.172,20.023 94.122,28.972 100.92,27.391 205.59,44.821 310.25,61.36 18.38,2.898 27.14,4.597 44.56,11.789 100.68,531.469 155.93,1072.14 328.02,1587.29 23.69,70.95 48.57,137.32 75.28,204.87 39.36,99.52 82.3,196.03 128.85,291.53 15.57,31.94 30.24,61.28 47.08,91.77 8.63,15.61 16.58,29.52 24.45,44.72 8.1,15.65 16.05,28.19 24.91,44.1 8.79,15.79 15.86,27.83 25.16,43.77 l 27.87,41.34 c -4.58,4.29 -9.72,-2.41 -16.79,-5.83 -26.31,-12.72 -52.58,-26.75 -77.41,-42.19 l -30.46,-16.86 -14.99,39.55 c -1.59,-11.99 -2.51,-24.5 -5.53,-36.1 -9.23,-35.56 -16.64,-28.09 -58.52,-60.18 -29.73,-22.77 -58.29,-45.86 -90.29,-65.34 -2.61,20.07 -19.98,39.95 -30.56,56.55 -4.37,-4.67 0.69,-13.31 1.41,-20.2 1.94,-18.84 1.44,-42.1 -0.18,-61.37 -0.65,-7.85 -102.96,-86.72 -116.9,-97.23 l -22.69,38.77 c 0.09,-8.72 5.83,-20.43 3.38,-53.55 -0.79,-10.76 -57.32,-46.84 -67.91,-54.59 l -19.71,25.74 c -7.34,-55.35 -3.51,-43.2 -38.85,-69.21 -32.87,-24.21 -66.17,-47.79 -103.21,-65.15 11.86,89.52 27.17,151.36 54.38,218.84 4.87,12.07 13.78,34.97 20.41,43.33 29.13,36.7 71.47,54.8 113.86,71.21 -3.49,6.39 -1.97,6.12 -2.67,5.85 -0.49,-0.19 -2.1,-0.39 -7.37,1.77 -18.87,6.66 -38.43,2.7 -58.12,1.42 3.41,9.03 9.44,16.92 14.86,23.91 5.33,6.87 10.7,14.17 16.61,21.61 7.19,9.05 61.41,74.63 72.4,78.71 l 60.91,7.1 -20.08,22.89 c 6.89,16.64 28.76,24.89 42.74,34.16 6.87,4.56 8.08,5.64 15.48,9.76 41.93,23.34 90.15,50.75 139.14,58.21 30.31,4.61 62.26,-3.46 92.2,-10.43 l -23.3,20.42 c 11.29,11.79 77.47,5.39 93.14,5 l 0.37,2.84 -97.89,24.53 17,41.11 c -19,-9.38 -37.81,-37.98 -63.39,-31.04 -12.55,3.41 -18.97,3.93 -32.47,6.08 -14.24,2.26 -15.32,4.93 -30.64,7.15 -11.05,1.6 -23.37,2.37 -34.22,4.4 l -64.93,11.5 c 1.89,12.18 15.84,50.25 20.39,66.67 -12.55,-11.1 -28.57,-38.37 -42.65,-44.27 l -65.4,-7.88 -96.94,9.95 c 2.66,17.13 10.51,33.23 15.3,49.99 -10.51,-9.28 -30.52,-44.13 -42.01,-45.09 l -81.58,6.55 4.14,31.24 c -8.14,-4.45 -21.12,-19.48 -31.36,-25.68 -10.55,-6.38 -8.54,-2.84 -23.49,-2.66 l -134.06,-1.54 c 7.85,20.8 48.6,64.97 64.65,78.84 36.86,31.85 127.05,97.05 180.9,93.65 40.82,-2.59 82.73,-7.8 117.27,-33.18 l -1.4,9.98 c -1.67,3.06 -2.22,4.6 -3.75,7.33 -8.89,15.87 -23.55,26.18 -37.14,37.9 l 0.76,5.68 c 11.81,-1.3 26.52,2.33 38.04,3.64 40.75,4.62 83.46,4.11 124.38,0.85 5.72,-0.45 40.92,-24.46 50.95,-29.87 l 0.17,23.1 c 72.05,-9.55 171.51,-42.55 222.68,-92.25 15.98,-15.52 25.74,-32.14 36.36,-51.26 l 4.22,-6.97 -1.16,34.83 c 18.53,-13.19 33.17,-27.94 49.06,-44.07 -2.57,19.83 -49.99,85.63 -63.13,112.42 l 43.31,17.86 c -2.56,2.39 -10.02,1.9 -18.42,1.41 -5.49,-0.32 -11.38,-0.63 -16.57,-0.15 -38.22,3.57 -25.86,5.87 -71.53,65.15 l -15.25,21.49 31.19,13.69 c -1.11,1.03 -3.59,4.63 -4.92,1.98 -2.13,-4.27 -20.7,-3.98 -25.13,-4.31 -20.35,-1.48 -25.78,13.9 -37.34,27.26 l -16.67,20.4 16.08,12.32 c -14.75,1.96 -30.33,1.2 -40.19,10.04 -25.43,22.78 -48.82,49.93 -72.89,74.31 58.49,1.7 111.05,8.93 166.56,-10.21 41.7,-14.38 53.17,-22.72 78.09,-57.56 4.97,-6.95 8.1,-13.75 11.71,-21.65 4.14,-9.07 6.18,-13.79 12.17,-21.3 l 3.55,48.66 c 14.87,-5.61 50.79,-40.22 62.11,-51.95 6.28,-6.51 7.65,-8.05 13.54,-15.15 21.21,-25.6 13.74,-10.37 16.84,-63.65 l 22.14,14.41 c 10.06,-27.13 23.36,-38.67 44.35,-57.89 -5.84,10.67 -19.04,22.59 -26.82,33.05 -14.59,19.63 8.21,74.24 14.78,99.38 2.92,11.2 0.77,18.07 11.3,12.97 l 21.26,-12.29 -21.8,31.79 19.45,58.52 18.95,-8.7 c -14.55,47.88 -10.78,32.17 9.07,81.45 l 19.6,47.7 c 19.37,-8.02 46.55,-107.11 49.89,-122.55 16.2,-74.72 6.44,-70.64 -26.59,-137.75 9.83,0.95 14.26,3.06 22.2,7.66 l 20.95,12.63 c -1.04,-17.07 -1.49,-86.93 -7.49,-100.16 l -27.24,-31.07 22.72,-3.01 c -4.67,-30.14 -14.96,-58.29 -23.02,-86.54 12.99,6.4 24.27,17.45 37.27,24.63 l 40.88,19.93 c -0.42,-8.51 1.12,-14.61 2.51,-21.05 l 6.8,-17.76 c 9.33,70.48 48.97,61.2 134.15,74.71 l -3,-22.73 c 24.73,32.38 22.12,22.23 83.27,17.87 l -5.47,-19.5 30.28,10.44 88.83,-49.35 c -13.18,-1.28 -33.14,-7.37 -44.89,-11.34 -59.17,-20 -113.29,-50.4 -177.14,-28.6 l 31.07,-27.23 c -10.46,-10.92 -73.08,-38.13 -88.38,-34.55 l -13.82,4.73 6.26,-18.16 c -16.43,-8.12 -33.84,-15.59 -49.58,-25.24 l 52.63,4.6 c -8.54,-64.38 -3.9,-35.11 17.2,-19.13 l 31.83,18.41 45.44,-6.02 165.13,-62.34 c -19.3,-21.92 -15.66,-11.06 -40.86,-46.6 l 86.12,17.49 c 7.62,0.26 58.05,-51.77 65.63,-59.45 20.89,-21.19 37.45,-44.07 53.18,-69.01 l -38.69,-12.78 2.47,0.11 c 2.6,0.01 8.32,-0.79 11.11,-1.16 26.06,-3.42 38.25,-3.16 50.2,-28.19 46.44,-64.93 76.85,-117.51 91.81,-243.76"
                            style="fill:#fcbe6e;fill-opacity:1;fill-rule:nonzero;stroke:none"
                            transform="matrix(0.13333333,0,0,-0.13333333,0,666.66667)" clip-path="url(#clipPath29)" />
                        <path id="path30"
                            d="m 2090.62,2352.86 24.23,8.35 c -11.67,1.54 -22.22,2.39 -33.28,7.68 l -6.14,3.8 c -3.75,-4.01 -5.13,-1.07 5.5,-11.94 2.13,-2.18 7.08,-7.55 9.69,-7.89 m 888.59,-590.32 c -54.77,0.74 -245.78,87.89 -244.93,155.54 -8.18,-4.88 -9.87,-9.21 -16.98,-20.83 -57.02,43.64 -103.92,87.45 -120.62,113.45 -6.38,9.92 -10.1,25.97 -14.74,37.2 l -9.07,-24.82 c -16.35,2.54 -72.02,34.92 -92.81,43.73 l -35.4,13.72 -17.96,-26.52 c 58.34,8.18 61.66,18.39 104.83,-31.97 49.08,-57.25 61.3,-80.07 90.31,-152.83 -23.69,3.13 -37.92,-2.06 -59.06,-9.53 26.82,-5.85 49.3,-18.74 66.23,-33.47 17.15,-14.92 17.67,-46.96 19.15,-69.54 1.83,-27.88 3.51,-50.35 -0.5,-84.64 -4.18,-35.78 8.31,-32.41 -47.23,-8.08 l 10.24,-10.02 c 11.31,-10.69 20.38,-25.76 29.55,-38.6 l -25.86,-86.16 -27.27,12.28 11.39,-44.86 -83,-124.84 c -3.32,34.04 -18.36,87.58 -25.18,123.62 -6.15,32.48 -26.65,96.78 -18.18,126.06 11.81,40.88 13.35,48.91 30.21,87.31 -20.29,-2.64 -37.23,-23.62 -51.08,-36.58 -2.89,29.59 -30.04,87.07 -31.9,108.27 1.35,10.21 2.61,13.78 6.3,21.76 1.75,3.81 1.42,3.39 4.16,7.9 l 6.71,9 c -4.48,4.2 -10.85,-1.71 -27.6,-8.38 -6.33,6.07 -16.63,33.71 -21.8,44.54 l -23.05,43.59 c -26.56,46.7 -23.47,42.75 -34.82,95.82 l -9.06,-24.8 -87.77,104.59 c -4.61,-4.93 2.89,-8.54 6.15,-14.01 20.27,-34.01 34.86,-68.77 47.75,-106.33 l -32.75,-7.22 c 15.09,-2.34 35.39,-15.75 40.46,-25.15 3.85,-7.14 8.44,-42.36 9.34,-51.54 3.76,-38.46 1.18,-77.27 -0.42,-117.7 -17.08,2.64 -33.28,10.49 -49.99,15.29 4.31,-7.87 9.22,-9.45 15.7,-16.06 9.03,-9.19 20.55,-25.11 24.12,-37.86 5.8,-20.72 -34.07,-105.98 -43.64,-127.65 l -25.77,23.64 c 6.12,-47.13 40.6,-9.39 -24.91,-100.74 l -18.37,13.99 c 2.84,-43.12 -10.28,-46.53 -42.14,-78.23 -14.66,-14.58 -33.42,-25.49 -51.09,-36.57 3.97,29.97 1.77,57.9 5.5,85.88 12.19,103.66 -3.55,101.98 64.7,182.26 -18.06,-1.76 -32.27,-9.09 -48.45,-16.7 10.93,82.52 0.06,59.52 40.03,127.64 l -25.94,0.55 c 4.39,33.08 9.9,68.13 10.42,97.3 0.31,17.34 4.16,30.59 8.97,43.97 4.52,12.56 10.19,25.51 19.05,36.19 -5.01,4.7 -12.35,-3.55 -21.92,-9.14 l 4.6,87.29 c -28.08,-43.53 -52.98,-94.7 -75.64,-141.12 l -74.19,-156.33 c -66.45,-138.75 -145.25,-374.89 -185.51,-520.72 l -49.88,-191.4 c -18.52,-66.968 -29.79,-130.371 -42.31,-197.96 -6.44,-34.79 -14.45,-64.418 -19.23,-101.481 -2.75,-21.359 -7.15,-32.98 -9.71,-50.617 -35,-254.102 -62.72,-497.09 -59.71,-750.2931 0.34,-29.168 0.95,-54.5079 1.88,-82.7699 l 3.22,-81.75 c 18.27,-2.418 53,0.832 70.36,1.411 l 96.68,1.222 -47.63,-359.492 -885.252,117.289 75.168,123.231 c 30.254,10.582 61.164,20.039 94.124,28.972 100.92,27.399 205.58,44.828 310.25,61.36 18.38,2.91 27.13,4.597 44.56,11.789 100.68,531.48 155.93,1072.148 328.02,1587.299 23.69,70.94 48.57,137.32 75.28,204.87 39.36,99.51 82.3,196.02 128.85,291.52 15.56,31.94 30.24,61.29 47.08,91.78 8.62,15.6 16.58,29.52 24.44,44.71 8.1,15.66 16.06,28.2 24.92,44.11 8.79,15.79 15.86,27.84 25.16,43.77 l 27.87,41.33 c -4.58,4.3 -9.72,-2.4 -16.79,-5.83 -26.31,-12.71 -52.58,-26.73 -77.41,-42.18 l -30.46,-16.87 -14.99,39.56 c -1.6,-12 -2.51,-24.5 -5.53,-36.1 -9.24,-35.57 -16.64,-28.09 -58.53,-60.18 -29.72,-22.77 -58.28,-45.87 -90.29,-65.35 -2.6,20.07 -19.97,39.95 -30.55,56.55 -4.37,-4.67 0.69,-13.31 1.4,-20.18 1.95,-18.86 1.44,-42.1 -0.17,-61.39 -0.66,-7.84 -102.97,-86.72 -116.91,-97.21 l -22.69,38.75 c 0.1,-8.72 5.83,-20.42 3.39,-53.54 -0.79,-10.76 -57.32,-46.85 -67.91,-54.59 l -19.72,25.73 c -7.33,-55.35 -3.51,-43.19 -38.84,-69.21 -32.87,-24.21 -66.18,-47.78 -103.22,-65.14 11.86,89.52 27.18,151.35 54.39,218.84 4.87,12.06 13.77,34.98 20.4,43.33 29.13,36.69 71.47,54.79 113.87,71.21 -3.49,6.38 -1.97,6.11 -2.67,5.84 -0.49,-0.19 -2.1,-0.38 -7.37,1.78 -18.87,6.65 -38.43,2.7 -58.12,1.41 3.41,9.03 9.44,16.92 14.86,23.91 5.33,6.88 10.69,14.17 16.61,21.63 7.19,9.04 61.41,74.62 72.4,78.71 l 60.91,7.09 -20.08,22.89 c 6.88,16.64 28.75,24.88 42.73,34.16 6.88,4.56 8.09,5.63 15.49,9.75 41.93,23.34 90.14,50.75 139.14,58.22 30.31,4.61 62.25,-3.46 92.2,-10.43 l -23.3,20.42 c 11.29,11.79 77.47,5.39 93.13,5 l 0.38,2.84 -97.9,24.53 17.01,41.1 c -19,-9.37 -37.82,-37.97 -63.39,-31.03 -12.55,3.41 -18.97,3.92 -32.47,6.07 -14.25,2.27 -15.32,4.93 -30.64,7.15 -11.06,1.61 -23.37,2.37 -34.23,4.4 l -64.92,11.51 c 1.89,12.19 15.84,50.24 20.39,66.67 -12.56,-11.1 -28.58,-38.36 -42.65,-44.27 l -65.4,-7.89 -96.94,9.95 c 2.66,17.13 10.51,33.23 15.3,49.99 -10.51,-9.28 -30.53,-44.13 -42.02,-45.09 l -81.57,6.56 4.14,31.24 c -8.14,-4.46 -21.12,-19.48 -31.37,-25.68 -10.55,-6.38 -8.53,-2.85 -23.48,-2.66 l -134.06,-1.55 c 7.85,20.81 48.6,64.97 64.65,78.85 36.85,31.85 127.04,97.05 180.89,93.64 40.82,-2.58 82.74,-7.79 117.28,-33.18 l -1.4,9.98 c -1.67,3.07 -2.23,4.61 -3.75,7.33 -8.89,15.87 -23.56,26.18 -37.14,37.9 l 0.75,5.68 c 11.82,-1.29 26.52,2.34 38.05,3.65 40.74,4.62 83.45,4.11 124.38,0.85 5.72,-0.46 40.92,-24.46 50.94,-29.87 l 0.18,23.09 c 72.05,-9.54 171.51,-42.55 222.68,-92.24 15.98,-15.52 25.74,-32.14 36.35,-51.26 l 4.22,-6.97 -1.16,34.83 c 18.54,-13.19 33.17,-27.95 49.07,-44.07 -2.58,19.82 -50,85.62 -63.13,112.41 l 43.3,17.86 c -2.55,2.39 -10.01,1.91 -18.42,1.42 -5.49,-0.32 -11.38,-0.64 -16.57,-0.16 -38.21,3.57 -25.85,5.88 -71.52,65.16 l -15.25,21.48 31.19,13.69 c -1.11,1.04 -3.6,4.63 -4.92,1.98 -2.13,-4.27 -20.7,-3.98 -25.13,-4.3 -20.35,-1.49 -25.78,13.89 -37.34,27.25 l -16.67,20.41 16.08,12.32 c -14.75,1.95 -30.33,1.2 -40.2,10.03 -25.42,22.79 -48.81,49.93 -72.89,74.31 58.5,1.7 111.06,8.94 166.57,-10.2 41.7,-14.37 53.17,-22.72 78.09,-57.56 4.97,-6.95 8.1,-13.76 11.7,-21.65 4.14,-9.07 6.19,-13.79 12.18,-21.3 l 3.55,48.65 c 14.86,-5.6 50.79,-40.22 62.1,-51.94 6.29,-6.52 7.66,-8.05 13.55,-15.15 21.21,-25.61 13.74,-10.37 16.84,-63.65 l 22.14,14.41 c 10.06,-27.13 23.36,-38.68 44.35,-57.9 -5.85,10.68 -19.05,22.59 -26.82,33.06 -14.59,19.62 8.2,74.24 14.77,99.37 2.93,11.21 0.77,18.08 11.3,12.98 l 21.27,-12.29 -21.8,31.78 19.45,58.52 18.94,-8.69 c -14.54,47.88 -10.77,32.16 9.07,81.44 l 19.6,47.71 c 19.37,-8.03 46.56,-107.12 49.9,-122.55 16.2,-74.73 6.44,-70.64 -26.59,-137.76 9.83,0.96 14.25,3.07 22.2,7.66 l 20.94,12.63 c -1.03,-17.07 -1.49,-86.92 -7.49,-100.15 l -27.23,-31.08 22.72,-3.01 c -4.68,-30.13 -14.96,-58.29 -23.02,-86.54 12.98,6.41 24.27,17.45 37.26,24.63 l 40.88,19.93 c -0.41,-8.5 1.12,-14.6 2.52,-21.04 l 6.79,-17.77 c 9.34,70.48 48.97,61.2 134.16,74.71 l -3,-22.72 c 24.72,32.37 22.12,22.22 83.27,17.87 l -5.47,-19.5 30.28,10.43 88.82,-49.33 c -13.18,-1.29 -33.13,-7.38 -44.89,-11.36 -59.17,-20 -113.28,-50.4 -177.13,-28.59 l 31.07,-27.24 c -10.46,-10.92 -73.08,-38.12 -88.38,-34.53 l -13.82,4.72 6.26,-18.17 c -16.43,-8.11 -33.84,-15.58 -49.58,-25.22 l 52.62,4.59 c -8.53,-64.38 -3.89,-35.12 17.21,-19.13 l 31.83,18.4 45.43,-6.01 165.13,-62.33 c -19.3,-21.94 -15.66,-11.08 -40.85,-46.62 l 86.12,17.49 c 7.62,0.27 58.05,-51.76 65.63,-59.45 20.89,-21.18 37.45,-44.06 53.17,-68.99 l -38.69,-12.8 2.48,0.11 c 2.6,0.01 8.31,-0.79 11.1,-1.15 26.07,-3.43 38.26,-3.15 50.2,-28.19 46.45,-64.94 76.86,-117.5 91.82,-243.76"
                            style="fill:#3a2c44;fill-opacity:1;fill-rule:nonzero;stroke:none"
                            transform="matrix(0.13333333,0,0,-0.13333333,0,666.66667)" clip-path="url(#clipPath31)" />
                        <path id="path32"
                            d="m 6510.54,2491.44 c 13.11,7.63 11.01,5.17 8.46,10.03 l -6.91,-2.03 c -12.04,-2.16 -22.42,-0.19 -34.05,1.42 l 21.1,-14.45 c 2.59,-0.36 8.78,3.5 11.4,5.03 z M 5488.09,2154.06 c 47.84,117.47 91.02,159.98 152.89,210.13 18.13,20.9 29.78,17.42 55.75,13.8 2.78,-0.39 8.49,-1.13 10.99,-1.83 l 2.34,-0.75 -33.81,22.55 c 21.73,19.82 43.72,37.44 69.42,52.27 9.32,5.38 71.62,42.06 78.87,39.8 l 78.2,-39.64 c -14.81,40.85 -14.19,29.44 -26.94,55.65 l 175.33,16.2 45.3,-6.24 25.73,-26.14 c 16.07,-20.98 12.77,-50.34 21.62,13.83 l 49.4,-18.35 c -12.59,13.44 -27.35,25.24 -41.01,37.4 l 10.84,15.81 -14.55,-0.88 c -15.66,0.6 -68.68,43.36 -75.85,56.63 l 37.1,17.96 c -67.18,-4.06 -111.19,39.52 -162.79,74.44 -10.25,6.93 -27.83,18.08 -40.18,22.81 l 98.51,23.92 26.36,-18.06 -0.1,20.21 c 59.97,-12.02 60.16,-1.57 75.36,-39.26 l 3.14,22.66 c 78.36,-35.56 118.93,-37.14 109.23,-107.4 l 11.24,15.29 c 3.05,5.82 6.15,11.28 8,19.57 l 34.04,-30 c 10.59,-10.35 18.52,-23.96 29.31,-33.56 -0.26,29.3 -2.69,59.11 0.79,89.33 l 22.65,-3.12 -17.97,37.1 c -2.25,14.31 15.81,81.62 19.34,98.32 l 16.79,-17.7 c 6.43,-6.52 10.13,-9.72 19.33,-13.25 -13.98,73.31 -24.45,71.96 10.93,139.54 7.3,13.96 59.7,102.06 80.45,104.65 l 6.22,-51.08 c 6.02,-52.65 13.81,-38.54 -12.86,-80.73 l 20.52,3.34 3.21,-61.44 -29.4,-24.8 23.72,6.2 c 11.48,2.11 7.58,-3.93 7.42,-15.48 -0.34,-25.92 7.12,-84.49 -12.1,-99.5 -10.26,-8 -26.12,-15.96 -34.56,-24.68 25.28,12.92 41.14,20.5 57.99,43.93 l 17.47,-19.72 c 17.1,50.43 5.88,37.75 33.07,56.76 7.54,5.27 9.27,6.38 17.04,10.98 14,8.28 57.72,32.06 73.49,33.51 l -9.47,-47.74 c 7.75,5.63 10.96,9.63 17.35,17.26 5.55,6.64 10.38,12.35 17,17.72 33.19,26.91 46.44,31.9 90.35,34.68 58.47,3.7 107.09,-17.18 162.9,-34.32 -29.61,-17.07 -59.29,-36.98 -89.78,-52.16 -11.84,-5.88 -26.61,-1.03 -41.32,1 l 12.2,-16.11 -21.44,-15.21 c -14.66,-9.79 -23.95,-23.14 -43.13,-16.32 -4.18,1.48 -22.11,6.12 -23.03,10.8 -0.58,2.9 -3.93,0.1 -5.27,-0.6 l 26.38,-21.44 -20.36,-16.62 c -59.63,-44.91 -48.36,-50.41 -86.04,-43.71 -12.97,2.3 -28.89,10.73 -34,8.05 l 36.92,-28.65 c -19.73,-22.28 -82.78,-73.01 -90.5,-91.39 19.56,11.29 37.54,21.61 58.86,29.38 l -10.34,-33.19 5.91,5.59 c 15.26,15.57 29.05,28.98 48.55,39.67 62.38,34.24 166.78,39.63 238.61,29.73 l -5.96,-22.27 c 11.09,2.55 51.29,16.31 56.92,15.24 40.22,-7.71 81.43,-18.54 119.4,-33.78 10.73,-4.31 23.93,-11.69 35.63,-13.58 l -0.79,-5.66 c -16.17,-7.68 -32.99,-13.71 -45.75,-26.62 -2.2,-2.21 -3.14,-3.54 -5.55,-6.05 l -4,-9.23 c 39.95,15.26 81.65,9.17 121.59,0.84 52.7,-10.99 122.17,-97.6 149.18,-137.99 11.76,-17.6 39.25,-70.88 41.28,-92.96 l -128.52,37 c -14.43,3.78 -13.42,-0.15 -21.88,8.78 -8.21,8.68 -16.72,26.57 -23.37,33.01 l -4.29,-31.14 -80.2,15.3 c -10.79,3.98 -20.81,42.79 -28.46,54.5 0.16,-17.38 3.45,-34.96 1.47,-52.14 l -95.87,16.12 -60.82,24.91 c -11.97,9.41 -20.15,39.88 -29.29,53.88 0.02,-17 3.36,-57.31 1.95,-69.52 l -65.49,6.14 c -10.98,0.92 -23.03,3.43 -34.09,4.83 -15.32,1.92 -17.06,-0.36 -31.36,1.24 -13.56,1.51 -19.87,2.72 -32.84,2.77 -26.44,0.08 -36.96,32.58 -52.75,46.63 l 5.47,-44.04 -100.65,2.35 -0.39,-2.84 c 15.16,-3.77 80.5,-15.15 88.25,-29.48 l -27.82,-13.47 c 30.64,-1.23 63.51,-1.93 91.43,-14.4 45.16,-20.16 84.27,-59.3 118.41,-92.84 6.03,-5.93 6.9,-7.29 12.31,-13.5 10.99,-12.61 29.84,-26.33 32.05,-44.17 l -25.38,-16.7 56.7,-22.96 c 9.49,-6.84 44.28,-84.27 48.79,-94.88 3.71,-8.73 6.94,-17.18 10.25,-25.19 3.36,-8.17 7.07,-17.36 7.95,-26.95 -18.59,6.47 -36.35,15.44 -56.27,14.05 -13.63,-1.64 -3.06,4.22 -11.67,-4.67 36.42,-27.02 72.35,-55.65 90.64,-98.66 4.17,-9.79 6.67,-34.18 8.15,-47.08 8.29,-72.11 6.64,-135.65 -5.67,-224.89 -31.02,26.52 -56.82,58.01 -82.01,90 -27.1,34.39 -26.64,21.68 -19.02,76.86 l -25.79,-19.52 c -8.13,10.25 -52.95,59.93 -50.86,70.49 6.43,32.5 15.04,42.24 17.45,50.6 l -32.09,-31.27 c -10.63,13.8 -88.14,116.76 -86.68,124.48 3.55,18.98 9.23,41.47 16.09,59.09 2.51,6.42 9.67,13.39 6.7,19.04 -14.58,-13.17 -36.54,-27.69 -44.37,-46.3 -25.62,27.23 -46.98,56.99 -69.53,86.78 -31.78,41.95 -40.89,36.73 -40.35,73.39 0.18,11.95 2.6,24.21 4.25,36.18 l -24.89,-34.07 -24.83,24.28 c -19.8,21.44 -41.34,41.89 -63.28,61.09 -5.9,5.16 -9.06,12.97 -14.61,10.06 l 15.86,-47.14 c 4.72,-17.8 8.33,-31.25 12.6,-48.77 4.31,-17.65 8.63,-31.81 12.27,-49.02 3.54,-16.7 7.51,-32.19 11.67,-49.48 8.13,-33.79 14.46,-65.91 20.97,-100.75 19.47,-104.18 35.21,-208.39 46.69,-314.52 7.8,-72.04 14.14,-142.48 18.14,-216.99 29.03,-541.068 -61.07,-1075.728 -105.05,-1613.572 14.86,-11.527 22.83,-15.476 39.74,-23.137 96.29,-43.64 192.34,-88.132 282.14,-141.199 29.33,-17.344 56.55,-34.621 82.85,-52.82 l 39.65,-138.43 -882.51,121.719 49.44,358.3788 92.66,-26.7812 c 16.54,-5.1676 49.08,-17.4996 67.3,-20.0076 l 24.74,77.781 c 8.39,26.918 15.69,51.13675 23.75,79.0977 69.97,242.7303 107.69,483.8003 141.34,737.4493 2.22,17.652 1.06,29.992 4.07,51.262 5.23,36.918 5.37,67.531 8.39,102.711 5.87,68.32 11.83,132.278 11.76,201.598 l 2.72,197.3 c -0.07,150.92 -13.31,398.93 -40.45,549.98 l -29.95,170.01 c -9.49,50.66 -19.88,106.46 -35.35,155.76 l -18.71,-85.16 c -7.72,7.92 -12.6,17.78 -18.66,14.6 5.69,-12.62 7.71,-26.57 8.74,-39.86 1.07,-14.15 1.27,-27.9 -3.03,-44.66 -7.23,-28.2 -11.21,-63.37 -15.76,-96.35 l -25.09,6.35 c 20.4,-76.12 16.04,-51.12 4.69,-133.37 -13.56,11.6 -25.27,22.42 -42.18,28.89 44.38,-95.29 29.68,-89.51 13.94,-192.45 -3.82,-27.89 -13.34,-54.17 -17.46,-84.05 -14.06,15.34 -29.21,30.81 -39.45,48.72 -22.24,38.93 -33.96,45.68 -19.8,86.41 l -21.39,-8.6 c -38.8,105.22 -15.63,59.79 2.75,103.5 l -31.06,-15.92 c -3.47,23.38 -19.22,115.95 -8.15,134.35 6.8,11.31 22.11,23.56 33.23,30.03 7.98,4.63 13.12,4.84 19.35,11.28 -17.35,-0.19 -35.01,-3.45 -52.13,-1.47 9.18,39.31 16.98,77.33 30.78,113.32 3.3,8.59 17.04,41.24 22.64,47.09 7.37,7.7 30.44,15.22 45.57,13.48 l -29.58,15.61 c 22.34,32.72 45.59,62.28 74.1,89.62 4.58,4.4 12.75,5.89 9.62,11.85 l -112.13,-77.35 -2.14,26.26 c -24.97,-48.03 -20.95,-45.05 -58.87,-82.94 l -33.72,-35.81 c -7.84,-9.06 -25.07,-32.92 -32.77,-37.08 -14.34,10.86 -18.9,18.23 -24.32,15.38 l 4.07,-10.43 c 1.44,-5.06 1.23,-4.58 1.91,-8.7 1.43,-8.66 1.69,-12.42 0.28,-22.6 -7.4,-19.91 -48.75,-67.99 -59.36,-95.69 -9.88,16.15 -20.62,40.81 -39.43,48.72 6.04,-41.39 5.39,-49.53 5.92,-91.98 0.38,-30.4 -36.36,-86.82 -50.88,-116.42 -16.12,-32.86 -44.77,-80.37 -56.98,-112.23 l -46.76,142.06 22.85,40.13 -29.49,-4.59 -2.04,89.72 c 12.23,9.92 24.93,22.01 38.66,29.3 l 12.5,6.92 c -59.88,-8.68 -48.74,-15.24 -43.3,20.29 5.24,34.05 12.81,55.2 21.95,81.54 7.41,21.33 16.39,52 36.84,61.81 20.19,9.68 45.24,16.13 72.57,14.65 -18.36,12.77 -30.66,21.54 -54.28,24.8 47.18,62.3 64.98,81.02 127.35,123.07 54.86,37 55.35,26.29 109.3,2.97 l -10.26,30.28 -37.66,-3.82 c -22.34,-2.97 -84.47,-19.37 -100.86,-17.47 l -2.15,26.26 c -7.44,-9.56 -15.27,-24.02 -24.03,-31.87 -22.96,-20.58 -79.67,-50.29 -146.07,-77.15 -3.76,13.06 -4.24,17.67 -10.82,24.53 -17.11,-65.3 -223.91,-98.51 -276.78,-84.72 v 0.01"
                            style="fill:#fcbe6e;fill-opacity:1;fill-rule:nonzero;stroke:none"
                            transform="matrix(0.13333333,0,0,-0.13333333,0,666.66667)" clip-path="url(#clipPath33)" />
                        <path id="path34"
                            d="m 6539.56,2478.06 c 13.11,7.65 11,5.19 8.46,10.04 l -6.91,-2.03 c -12.04,-2.16 -22.41,-0.18 -34.04,1.43 l 21.08,-14.46 c 2.6,-0.36 8.79,3.5 11.41,5.02 z M 5517.12,2140.69 c 47.83,117.47 91.01,159.98 152.89,210.13 18.12,20.91 29.76,17.42 55.74,13.81 2.78,-0.39 8.49,-1.14 10.99,-1.83 l 2.35,-0.76 -33.82,22.55 c 21.73,19.82 43.72,37.44 69.41,52.27 9.33,5.38 71.62,42.06 78.88,39.8 l 78.19,-39.64 c -14.81,40.85 -14.19,29.44 -26.94,55.65 l 175.34,16.21 45.31,-6.25 25.73,-26.14 c 16.05,-20.97 12.75,-50.34 21.61,13.84 l 49.39,-18.36 c -12.57,13.45 -27.34,25.25 -40.99,37.4 l 10.83,15.81 -14.54,-0.88 c -15.67,0.6 -68.69,43.36 -75.86,56.63 l 37.1,17.97 c -67.19,-4.06 -111.18,39.51 -162.79,74.43 -10.25,6.94 -27.83,18.08 -40.17,22.81 l 98.5,23.92 26.36,-18.06 -0.1,20.21 c 59.97,-12.02 60.16,-1.56 75.36,-39.26 l 3.14,22.66 c 78.35,-35.55 118.93,-37.14 109.24,-107.4 l 11.23,15.29 c 3.05,5.82 6.14,11.28 8,19.57 l 34.04,-29.99 c 10.59,-10.35 18.52,-23.97 29.32,-33.57 -0.28,29.31 -2.71,59.11 0.78,89.33 l 22.64,-3.12 -17.96,37.1 c -2.26,14.32 15.81,81.63 19.34,98.32 l 16.8,-17.7 c 6.42,-6.52 10.12,-9.72 19.32,-13.25 -13.99,73.31 -24.45,71.96 10.92,139.54 7.31,13.96 59.71,102.06 80.46,104.65 l 6.21,-51.08 c 6.04,-52.65 13.82,-38.54 -12.85,-80.73 l 20.52,3.34 3.2,-61.43 -29.38,-24.81 23.71,6.2 c 11.48,2.12 7.57,-3.92 7.43,-15.48 -0.34,-25.92 7.12,-84.48 -12.11,-99.49 -10.25,-8 -26.11,-15.97 -34.56,-24.69 25.28,12.92 41.13,20.51 57.99,43.93 l 17.48,-19.72 c 17.1,50.43 5.87,37.75 33.06,56.76 7.54,5.27 9.27,6.38 17.03,10.98 14,8.28 57.72,32.06 73.5,33.51 l -9.47,-47.74 c 7.74,5.64 10.97,9.64 17.35,17.26 5.56,6.64 10.37,12.36 16.99,17.72 33.21,26.91 46.44,31.9 90.37,34.68 58.45,3.7 107.09,-17.18 162.9,-34.32 -29.61,-17.07 -59.3,-36.98 -89.8,-52.16 -11.83,-5.88 -26.61,-1.03 -41.32,1 l 12.21,-16.11 -21.45,-15.21 c -14.65,-9.79 -23.94,-23.14 -43.12,-16.32 -4.18,1.48 -22.11,6.13 -23.04,10.8 -0.56,2.9 -3.91,0.1 -5.25,-0.6 l 26.38,-21.43 -20.38,-16.63 c -59.62,-44.91 -48.35,-50.41 -86.04,-43.71 -12.96,2.3 -28.88,10.74 -33.99,8.05 l 36.92,-28.65 c -19.74,-22.28 -82.77,-73.01 -90.5,-91.39 19.55,11.29 37.54,21.61 58.87,29.39 l -10.35,-33.2 5.9,5.59 c 15.28,15.57 29.07,28.98 48.55,39.67 62.38,34.24 166.79,39.63 238.62,29.73 l -5.95,-22.26 c 11.07,2.55 51.28,16.31 56.91,15.23 40.22,-7.71 81.44,-18.53 119.4,-33.78 10.74,-4.3 23.92,-11.69 35.63,-13.58 l -0.78,-5.66 c -16.17,-7.67 -33.01,-13.71 -45.76,-26.61 -2.19,-2.22 -3.14,-3.55 -5.55,-6.06 l -4,-9.23 c 39.96,15.26 81.65,9.18 121.6,0.84 52.68,-10.99 122.15,-97.6 149.17,-137.99 11.76,-17.59 39.25,-70.87 41.29,-92.96 l -128.54,37 c -14.42,3.78 -13.42,-0.15 -21.87,8.78 -8.22,8.68 -16.72,26.58 -23.36,33.01 l -4.3,-31.14 -80.2,15.3 c -10.8,3.98 -20.81,42.79 -28.45,54.5 0.15,-17.38 3.43,-34.95 1.45,-52.13 l -95.86,16.11 -60.82,24.92 c -11.97,9.4 -20.15,39.87 -29.28,53.87 0.01,-17 3.35,-57.3 1.94,-69.51 l -65.49,6.13 c -10.99,0.92 -23.03,3.45 -34.08,4.83 -15.33,1.93 -17.07,-0.35 -31.37,1.24 -13.55,1.51 -19.87,2.72 -32.84,2.77 -26.44,0.09 -36.96,32.58 -52.74,46.63 l 5.45,-44.04 -100.64,2.35 -0.4,-2.83 c 15.17,-3.78 80.52,-15.15 88.26,-29.49 l -27.83,-13.47 c 30.65,-1.22 63.51,-1.93 91.44,-14.4 45.16,-20.15 84.26,-59.29 118.41,-92.84 6.03,-5.93 6.91,-7.28 12.31,-13.5 10.98,-12.61 29.84,-26.33 32.06,-44.17 l -25.38,-16.7 56.7,-22.95 c 9.49,-6.85 44.26,-84.28 48.78,-94.89 3.72,-8.73 6.95,-17.17 10.25,-25.19 3.36,-8.17 7.07,-17.35 7.95,-26.95 -18.59,6.47 -36.36,15.44 -56.27,14.05 -13.62,-1.63 -3.06,4.23 -11.68,-4.67 36.42,-27.02 72.36,-55.65 90.65,-98.66 4.16,-9.79 6.66,-34.17 8.15,-47.08 8.29,-72.11 6.64,-135.65 -5.68,-224.89 -31.01,26.52 -56.8,58.02 -82,90 -27.1,34.39 -26.64,21.68 -19.03,76.87 l -25.77,-19.53 c -8.15,10.25 -52.95,59.93 -50.86,70.49 6.42,32.5 15.04,42.24 17.44,50.61 l -32.09,-31.28 c -10.63,13.8 -88.14,116.76 -86.69,124.48 3.56,18.98 9.23,41.47 16.1,59.09 2.5,6.43 9.66,13.4 6.7,19.04 -14.58,-13.16 -36.55,-27.69 -44.37,-46.3 -25.62,27.23 -46.97,57 -69.53,86.78 -31.78,41.96 -40.88,36.73 -40.35,73.39 0.18,11.95 2.6,24.22 4.25,36.18 l -24.89,-34.07 -24.83,24.28 c -19.8,21.44 -41.35,41.89 -63.28,61.09 -5.89,5.16 -9.07,12.98 -14.6,10.07 l 15.85,-47.15 c 4.72,-17.8 8.33,-31.25 12.6,-48.77 4.31,-17.65 8.64,-31.81 12.28,-49.02 3.53,-16.69 7.51,-32.18 11.66,-49.48 8.12,-33.79 14.46,-65.9 20.97,-100.75 19.47,-104.18 35.2,-208.38 46.69,-314.52 7.8,-72.04 14.14,-142.48 18.14,-216.99 29.03,-541.061 -61.08,-1075.729 -105.05,-1613.569 14.86,-11.531 22.83,-15.481 39.74,-23.129 96.29,-43.652 192.33,-88.141 282.14,-141.211 29.33,-17.34 56.56,-34.621 82.86,-52.82 l 39.64,-138.43 -882.5,121.719 49.43,358.3787 92.65,-26.7777 c 16.55,-5.171 49.09,-17.5 67.31,-20.011 l 24.75,77.7809 c 8.38,26.918 15.68,51.14847 23.74,79.0977 69.98,242.7424 107.69,483.8004 141.34,737.4534 2.22,17.648 1.06,29.988 4.08,51.258 5.22,36.921 5.36,67.539 8.37,102.71 5.87,68.321 11.83,132.28 11.76,201.61 l 2.74,197.29 c -0.08,150.92 -13.31,398.93 -40.46,549.98 l -29.94,170.01 c -9.51,50.66 -19.9,106.46 -35.36,155.78 l -18.72,-85.18 c -7.72,7.92 -12.58,17.78 -18.66,14.6 5.71,-12.61 7.73,-26.57 8.74,-39.86 1.09,-14.14 1.28,-27.89 -3.02,-44.66 -7.23,-28.2 -11.21,-63.36 -15.76,-96.35 l -25.08,6.35 c 20.39,-76.11 16.02,-51.11 4.67,-133.37 -13.54,11.61 -25.26,22.42 -42.17,28.9 44.37,-95.3 29.68,-89.52 13.94,-192.45 -3.83,-27.9 -13.34,-54.18 -17.46,-84.05 -14.05,15.33 -29.22,30.8 -39.44,48.71 -22.26,38.93 -33.97,45.69 -19.82,86.41 l -21.38,-8.6 c -38.8,105.22 -15.64,59.79 2.74,103.5 l -31.05,-15.91 c -3.46,23.37 -19.21,115.94 -8.15,134.34 6.81,11.31 22.11,23.56 33.23,30.03 7.98,4.63 13.13,4.85 19.35,11.28 -17.35,-0.19 -35,-3.45 -52.13,-1.47 9.17,39.31 16.97,77.33 30.78,113.32 3.29,8.59 17.04,41.24 22.64,47.09 7.36,7.7 30.45,15.22 45.57,13.48 l -29.58,15.61 c 22.35,32.72 45.59,62.28 74.1,89.62 4.58,4.4 12.75,5.89 9.62,11.85 l -112.12,-77.35 -2.15,26.26 c -24.97,-48.03 -20.95,-45.05 -58.87,-82.93 L 6111.15,2073 c -7.84,-9.06 -25.07,-32.92 -32.76,-37.07 -14.35,10.85 -18.91,18.23 -24.33,15.38 l 4.06,-10.44 c 1.45,-5.06 1.24,-4.57 1.92,-8.7 1.42,-8.65 1.68,-12.42 0.28,-22.6 -7.39,-19.91 -48.75,-67.99 -59.36,-95.69 -9.89,16.15 -20.61,40.81 -39.44,48.72 6.04,-41.39 5.4,-49.53 5.93,-91.98 0.39,-30.4 -36.36,-86.81 -50.89,-116.42 -16.11,-32.86 -44.76,-80.37 -56.96,-112.23 l -46.76,142.06 22.84,40.13 -29.48,-4.59 -2.05,89.72 c 12.22,9.93 24.94,22.02 38.66,29.3 l 12.5,6.92 c -59.87,-8.68 -48.75,-15.23 -43.29,20.29 5.22,34.05 12.79,55.2 21.94,81.54 7.41,21.33 16.39,52 36.84,61.82 20.19,9.68 45.23,16.12 72.57,14.65 -18.35,12.76 -30.67,21.53 -54.28,24.79 47.18,62.31 64.98,81.02 127.34,123.08 54.87,36.99 55.36,26.3 109.31,2.97 l -10.26,30.27 -37.67,-3.82 c -22.33,-2.96 -84.45,-19.36 -100.86,-17.47 l -2.14,26.27 c -7.44,-9.57 -15.27,-24.02 -24.03,-31.88 -22.95,-20.58 -79.67,-50.29 -146.08,-77.14 -3.75,13.05 -4.23,17.66 -10.81,24.52 -17.11,-65.3 -223.9,-98.51 -276.77,-84.71"
                            style="fill:#3a2c44;fill-opacity:1;fill-rule:nonzero;stroke:none"
                            transform="matrix(0.13333333,0,0,-0.13333333,0,666.66667)" clip-path="url(#clipPath35)" />
                        <path id="path36" class="cloud__move-small"
                            d="m 2352.83,3224.67 c 17.71,0 33.92,-6.42 46.43,-17.05 11.32,28.08 38.82,47.91 70.96,47.91 18.37,0 35.22,-6.49 48.4,-17.28 6.95,35.09 37.89,61.55 75.02,61.55 11.76,0 22.9,-2.66 32.86,-7.41 14.66,41.82 54.47,71.8 101.29,71.8 47.89,0 88.46,-31.37 102.26,-74.69 3.84,0.6 7.77,0.9 11.78,0.9 25.77,0 48.57,-12.75 62.42,-32.29 4.67,0.74 9.45,1.13 14.32,1.13 40.86,0 75.35,-27.31 86.18,-64.69 11.96,9.61 27.14,15.37 43.68,15.37 38.31,0 69.41,-30.89 69.75,-69.14 -313.79,0 -538.01,0 -836.1,0 -0.67,3.94 -1.02,7.99 -1.02,12.11 0,39.65 32.12,71.78 71.77,71.78"
                            style="fill:#f9ffe5;fill-opacity:1;fill-rule:nonzero;stroke:none"
                            transform="matrix(0.13333333,0,0,-0.13333333,0,666.66667)" clip-path="url(#clipPath37)" />
                        <path id="path38" class="cloud__move-large"
                            d="m 4015.78,4074 c 24.59,0 47.11,-8.91 64.49,-23.68 15.72,39.01 53.92,66.54 98.55,66.54 25.52,0 48.93,-9 67.25,-24 9.64,48.74 52.62,85.49 104.18,85.49 16.35,0 31.82,-3.69 45.64,-10.28 20.38,58.08 75.67,99.73 140.71,99.73 66.52,0 122.86,-43.58 142.04,-103.74 5.33,0.82 10.79,1.25 16.35,1.25 35.81,0 67.47,-17.72 86.71,-44.87 6.47,1.04 13.11,1.59 19.88,1.59 56.77,0 104.66,-37.95 119.72,-89.86 16.6,13.35 37.69,21.34 60.65,21.34 53.22,0 96.42,-42.91 96.88,-96.03 -435.84,0 -747.29,0 -1161.32,0 -0.93,5.47 -1.43,11.09 -1.43,16.83 0,55.06 44.64,99.69 99.7,99.69"
                            style="fill:#f9ffe5;fill-opacity:1;fill-rule:nonzero;stroke:none"
                            transform="matrix(0.13333333,0,0,-0.13333333,0,666.66667)" clip-path="url(#clipPath39)" />
                        <path id="path40"
                            d="m 796.445,4108.78 c 27.926,0 53.477,-10.12 73.219,-26.89 17.844,44.29 61.211,75.54 111.875,75.54 28.971,0 55.551,-10.22 76.341,-27.24 10.94,55.33 59.74,97.05 118.28,97.05 18.55,0 36.11,-4.19 51.81,-11.67 23.13,65.93 85.9,113.21 159.73,113.21 75.52,0 139.47,-49.47 161.26,-117.77 6.04,0.94 12.24,1.42 18.55,1.42 40.65,0 76.6,-20.11 98.44,-50.93 7.35,1.18 14.89,1.8 22.57,1.8 64.44,0 118.81,-43.08 135.9,-102.01 18.85,15.15 42.79,24.22 68.86,24.22 60.43,0 109.46,-48.72 109.99,-109.01 -494.79,0 -848.35,0 -1318.387,0 -1.055,6.21 -1.61,12.59 -1.61,19.1 0,62.51 50.668,113.18 113.172,113.18"
                            style="fill:#3a2c44;fill-opacity:1;fill-rule:nonzero;stroke:none"
                            transform="matrix(0.13333333,0,0,-0.13333333,0,666.66667)" clip-path="url(#clipPath41)" />
                        <path id="path42"
                            d="m 6129.57,3632.01 c 27.93,0 53.48,-10.12 73.22,-26.88 17.84,44.28 61.21,75.54 111.87,75.54 28.98,0 55.55,-10.22 76.34,-27.25 10.95,55.33 59.74,97.06 118.28,97.06 18.55,0 36.12,-4.2 51.81,-11.68 23.13,65.93 85.91,113.22 159.74,113.22 75.51,0 139.47,-49.47 161.25,-117.78 6.05,0.94 12.24,1.43 18.55,1.43 40.66,0 76.6,-20.12 98.45,-50.94 7.34,1.18 14.88,1.8 22.57,1.8 64.43,0 118.81,-43.08 135.9,-102.01 18.84,15.15 42.79,24.22 68.86,24.22 60.42,0 109.46,-48.71 109.99,-109.01 -494.79,0 -848.36,0 -1318.4,0 -1.05,6.21 -1.61,12.6 -1.61,19.1 0,62.51 50.68,113.18 113.18,113.18"
                            style="fill:#3a2c44;fill-opacity:1;fill-rule:nonzero;stroke:none"
                            transform="matrix(0.13333333,0,0,-0.13333333,0,666.66667)" clip-path="url(#clipPath43)" />
                        <path id="path44" class="sunrise__layer-water--light"
                            d="m 3337.11,1102.15 c -2.26,6.71 -3.48,13.87 -3.48,21.31 0,37.09 30.33,67.43 67.42,67.43 h 385.93 c 16.31,0 29.65,13.34 29.65,29.65 0,16.31 -13.34,29.65 -29.65,29.65 h -896.06 c -19.7,0 -35.83,16.14 -35.83,35.84 0,4.62 0.88,9.04 2.49,13.1 l 1167.85,1.68 c 5.13,-8.9 14.75,-14.92 25.71,-14.92 h 8.93 356.38 c 17.79,0 32.34,-14.56 32.34,-32.36 0,-17.79 -14.55,-32.34 -32.34,-32.34 h -119.79 -107.42 c -22.7,0 -41.28,-18.58 -41.28,-41.29 0,-22.7 18.58,-41.28 41.28,-41.28 h 107.42 309.7 c 17.26,0 32.14,-10.74 38.28,-25.87 l -1307.53,-10.6 m 912.57,381.45 -1479.45,8.84 c 3.32,1.05 6.85,1.61 10.51,1.61 h 793.04 c 19.39,0 35.25,15.86 35.25,35.25 0,9.19 -3.56,17.59 -9.37,23.88 l 1286.72,2.25 c 7.15,-6.46 11.65,-15.8 11.65,-26.13 0,-19.39 -15.86,-35.25 -35.25,-35.25 h -588.13 c -9.73,0 -18.58,-4.01 -24.97,-10.45 m 649.23,211.35 -1123.27,24.75 c -1.8,23.41 -21.52,42 -45.36,42 H 2696.65 c -6.43,0 -12.4,2.11 -17.23,5.69 -0.78,13.04 -1.7,28.27 -5.59,41.37 5.34,6.76 13.59,11.11 22.82,11.11 h 131.05 c 56.4,-32.72 122.74,-56.94 151.51,-57.33 v 0 0 c -0.45,3.75 -0.91,7.44 -1.38,11.07 13.35,-3.69 24.71,-5.77 32.98,-5.88 v 0 0 c -2.25,18.94 -4.84,36.22 -7.78,52.14 h 427.39 c 15.99,0 29.08,13.09 29.08,29.08 v 0.01 c 0,16 -13.09,29.08 -29.08,29.08 h -222.48 c -16,0 -29.08,13.08 -29.08,29.09 v 0.01 c 0,0.1 0,0.2 0,0.31 l 1529.56,-11.49 c 1.84,-5.65 2.84,-11.67 2.84,-17.92 0,-32 -26.18,-58.17 -58.17,-58.17 h -191.22 -138.51 -0.46 c -15.79,-0.24 -28.63,-13.24 -28.63,-29.08 0,-15.85 12.84,-28.84 28.63,-29.08 v -0.01 h 535.83 c 25.01,0 45.49,-20.47 45.49,-45.49 0,-7.67 -1.93,-14.91 -5.31,-21.26"
                            style="fill:#b680b7;fill-opacity:1;fill-rule:nonzero;stroke:none"
                            transform="matrix(0.13333333,0,0,-0.13333333,0,666.66667)" clip-path="url(#clipPath45)" />
                        <path id="path46" class="sunrise__layer-water--dark"
                            d="m 4708.42,1895.96 -1529.56,11.49 c 0.17,15.85 13.18,28.76 29.08,28.76 h 918.19 334.38 192.58 c 25.75,0 47.73,-16.95 55.33,-40.25"
                            style="fill:#af7ab0;fill-opacity:1;fill-rule:nonzero;stroke:none"
                            transform="matrix(0.13333333,0,0,-0.13333333,0,666.66667)" clip-path="url(#clipPath47)" />
                        <path id="path48" class="sunrise__layer-water--dark"
                            d="m 3599.66,1553.18 c -6.46,6.99 -15.68,11.38 -25.88,11.38 h -515.4 -403.35 l 16.8,55.96 c -8.02,11.22 -15.95,24.14 -25.37,34.35 0.1,2.14 0.19,4.66 0.36,7.58 16.22,-7.56 23.85,-11.84 27.54,-11.84 4.42,0 3.2,6.13 4.27,20.1 h 379.75 618.82 53.08 c 25.02,0 45.5,20.47 45.5,45.5 0,1.17 -0.05,2.34 -0.14,3.49 l 1123.27,-24.75 c -7.66,-14.39 -22.83,-24.24 -40.18,-24.24 h -811.02 c -29.19,0 -53.08,-23.89 -53.08,-53.08 0,-29.19 23.89,-53.07 53.08,-53.07 h 815.07 c 9.06,0 17.34,-3.46 23.6,-9.13 l -1286.72,-2.25"
                            style="fill:#a775aa;fill-opacity:1;fill-rule:nonzero;stroke:none"
                            transform="matrix(0.13333333,0,0,-0.13333333,0,666.66667)" clip-path="url(#clipPath49)" />
                        <path id="path50" class="sunrise__layer-water--dark"
                            d="m 2857.58,1299.13 c 5.26,13.28 18.25,22.74 33.34,22.74 h 474.62 c 23.97,0 43.54,22.86 43.54,50.83 0,27.96 -19.57,50.83 -43.54,50.83 h -584.8 c -19.39,0 -35.25,15.87 -35.25,35.26 0,15.73 10.44,29.15 24.74,33.65 l 1479.45,-8.84 c -6.34,-6.38 -10.27,-15.16 -10.27,-24.81 0,-19.39 15.86,-35.26 35.24,-35.26 h 369.96 c 21.57,0 39.19,-17.61 39.19,-39.16 0,-21.55 -17.62,-39.18 -39.19,-39.18 h -103.6 -358 -76.94 -54.93 c -16.31,0 -29.65,-13.34 -29.65,-29.66 0,-5.34 1.43,-10.37 3.94,-14.72 l -1167.85,-1.68"
                            style="fill:#af7ab0;fill-opacity:1;fill-rule:nonzero;stroke:none"
                            transform="matrix(0.13333333,0,0,-0.13333333,0,666.66667)" clip-path="url(#clipPath51)" />
                        <path id="path52" class="sunrise__layer-water--dark"
                            d="M 4606.36,1056.05 H 3401.05 c -29.64,0 -54.97,19.38 -63.94,46.1 l 1307.53,10.6 c 1.93,-4.77 3,-9.97 3,-15.42 0,-22.7 -18.58,-41.28 -41.28,-41.28"
                            style="fill:#9f70a3;fill-opacity:1;fill-rule:nonzero;stroke:none"
                            transform="matrix(0.13333333,0,0,-0.13333333,0,666.66667)" clip-path="url(#clipPath53)" />
                        <path id="path54"
                            d="m 2655.03,1564.56 h -30.05 l 15.24,50.77 c -9.17,12.84 -18.24,27.91 -29.55,38.6 l -10.24,10.02 c 26.68,-11.69 37.66,-18.54 42.33,-18.54 3.07,0 3.42,2.96 3.7,9.46 9.42,-10.21 17.35,-23.13 25.37,-34.35 l -16.8,-55.96 m 19.33,86.05 c -3.69,0 -11.32,4.28 -27.54,11.84 0.15,2.47 0.36,5.22 0.69,8.26 h 31.12 c -1.07,-13.97 0.15,-20.1 -4.27,-20.1 m 5.06,116.78 c -7.17,5.31 -11.85,13.83 -11.85,23.4 0,6.77 2.34,13.02 6.26,17.97 3.89,-13.1 4.81,-28.33 5.59,-41.37 m 331.39,0.34 c -8.27,0.11 -19.63,2.19 -32.98,5.88 -2.17,16.68 -4.63,32.02 -7.38,46.26 h 32.58 c 2.94,-15.92 5.53,-33.2 7.78,-52.14"
                            style="fill:#fbcb86;fill-opacity:1;fill-rule:nonzero;stroke:none"
                            transform="matrix(0.13333333,0,0,-0.13333333,0,666.66667)" clip-path="url(#clipPath55)" />
                        <path id="path56"
                            d="m 2624.98,1564.56 h -7.29 c -29.2,0 -53.08,23.88 -53.08,53.07 0,29.2 23.88,53.08 53.08,53.08 h 29.82 c -0.33,-3.04 -0.54,-5.79 -0.69,-8.26 -0.17,-2.92 -0.26,-5.44 -0.36,-7.58 -0.28,-6.5 -0.63,-9.46 -3.7,-9.46 -4.67,0 -15.65,6.85 -42.33,18.54 l 10.24,-10.02 c 11.31,-10.69 20.38,-25.76 29.55,-38.6 l -15.24,-50.77 m 354.23,197.98 c -28.77,0.39 -95.11,24.61 -151.51,57.33 h 142.75 c 2.75,-14.24 5.21,-29.58 7.38,-46.26 0.47,-3.63 0.93,-7.32 1.38,-11.07"
                            style="fill:#605664;fill-opacity:1;fill-rule:nonzero;stroke:none"
                            transform="matrix(0.13333333,0,0,-0.13333333,0,666.66667)" clip-path="url(#clipPath57)" />
                        <path id="path58"
                            d="m 5310.3,3170.04 -31.37,13.27 c 15.61,0.99 29.68,1.16 44.84,7.17 l 8.48,4.48 c 4.61,-5.67 6.71,-1.9 -8.39,-15.34 -3.02,-2.7 -10.07,-9.36 -13.56,-9.58 z M 4078,2467.94 c 72.71,-4 333.98,94.21 339.01,184.01 10.42,-7.22 12.26,-13.1 20.63,-29.16 79.6,52.68 145.79,106.51 170.32,139.48 9.36,12.58 15.75,33.53 22.93,48 l 9.77,-33.74 c 21.91,1.88 98.71,39.77 127.08,49.56 l 48.19,14.97 21.41,-36.82 c -76.63,16.16 -80.11,30.01 -141.95,-32.86 -70.31,-71.46 -88.59,-100.62 -133.68,-194.49 31.69,2.01 50.1,-6.19 77.46,-18 -36.1,-5.31 -67.09,-20.36 -90.89,-38.37 -24.1,-18.23 -27.71,-60.67 -31.73,-90.49 -4.96,-36.81 -9.24,-66.44 -7.04,-112.31 2.29,-47.84 -13.98,-42.23 61.91,-15.01 l -14.49,-12.35 c -15.99,-13.16 -29.38,-32.32 -42.71,-48.52 l 26.45,-116.63 37.3,13.81 -19.2,-58.47 98.73,-173.13 c 7.5,44.85 32.31,114.49 44.64,161.67 11.12,42.52 44.16,125.94 35.6,165.55 -11.95,55.29 -13.26,66.08 -32.13,118.55 26.67,-5.35 47.23,-34.72 64.43,-53.17 6.51,38.97 47.76,112.74 52.14,140.69 -0.86,13.67 -2.2,18.53 -6.35,29.45 -1.99,5.21 -1.59,4.62 -4.81,10.84 l -8.07,12.57 c 6.31,5.14 14.22,-3.27 35.84,-13.64 8.94,7.47 25.12,43.2 32.96,57.1 l 34.55,55.72 c 39.48,59.52 35.01,54.56 54.89,123.92 l 9.76,-33.73 125.93,130.73 c 5.67,-6.95 -4.61,-11.06 -9.42,-18.01 -29.98,-43.27 -52.5,-88.05 -73.01,-136.68 l 42.77,-12.56 c -20.22,-1.74 -48.37,-17.68 -55.94,-29.68 -5.78,-9.13 -15.06,-55.42 -17.08,-67.5 -8.5,-50.67 -8.61,-102.4 -10.17,-156.17 22.9,1.97 45.1,10.9 67.69,15.74 -6.42,-10.04 -13.08,-11.69 -22.27,-19.86 -12.81,-11.38 -29.55,-31.44 -35.44,-48.03 -9.58,-26.96 35.54,-143.67 46.27,-173.28 l 36.33,29.02 c -12.42,-61.97 -54.71,-8.78 23.86,-135.89 l 25.64,16.88 c -7.69,-56.93 9.4,-62.65 48.78,-107.59 18.1,-20.68 42,-36.86 64.43,-53.17 -2.54,40.12 2.92,76.96 0.52,114.41 -6.74,138.6 13.99,134.95 -69.23,247.63 23.8,-3.97 41.97,-14.99 62.75,-26.56 -7,110.45 5.34,78.96 -41.48,172.94 l 34.45,-1.64 c -2.8,44.29 -6.93,91.27 -4.97,130.01 1.18,23.04 -2.72,40.95 -7.89,59.12 -4.84,17.09 -11.19,34.78 -21.97,49.75 7.07,5.76 16.05,-5.82 28.24,-14.12 l 1.86,116.19 c 33.27,-60.3 61.64,-130.42 87.47,-194.06 l 84.18,-214.09 c 75.49,-190.08 158.51,-510.46 198.64,-707.54 l 48.74,-258.4 c 18.47,-90.5 27.64,-175.62 38.1,-266.4 5.38,-46.74 13.3,-86.77 16.27,-136.36 1.71,-28.571 6.48,-44.379 8.27,-68.02 23.3,-340.191 37.95,-665.02 10.91,-1000.5703 -3.11,-38.6597 -6.22,-72.2187 -10.03,-109.6097 l -11.7,-108.14 c -24.47,-1.551 -70.23,5.929 -93.21,8.281 l -128.1,10.43 30.44,-481.141 1184.81,74.969 -88.47,170.293 c -39.16,16.797 -79.31,32.148 -122.2,47.019 -131.37,45.5 -268.59,78.149 -405.92,109.61 -24.1,5.519 -35.57,8.558 -58.03,19.679 -85.15,714.078 -109.22,1436.22 -290.58,2135.15 -24.97,96.25 -51.93,186.56 -81.21,278.57 -43.15,135.58 -91.32,267.49 -144.36,398.39 -17.74,43.79 -34.53,84.05 -54.1,126.02 -10.01,21.48 -19.31,40.66 -28.35,61.53 -9.32,21.51 -18.73,38.86 -29.02,60.76 -10.24,21.75 -18.51,38.37 -29.39,60.35 l -33.21,57.37 c 6.46,5.27 12.67,-4.09 21.75,-9.26 33.73,-19.27 67.29,-40.26 98.83,-63.01 l 38.86,-25.14 23.48,51.1 c 1.02,-16.06 1.1,-32.73 4.04,-48.38 9.02,-48.02 19.52,-38.78 72.15,-85.15 37.35,-32.91 73.14,-66.13 113.81,-94.89 5.28,26.37 30.13,51.17 45.68,72.22 5.36,-6.58 -2.13,-17.58 -3.7,-26.65 -4.31,-24.82 -5.74,-55.71 -5.36,-81.42 0.16,-10.47 128.67,-124.39 146.21,-139.6 l 33.61,49.36 c -0.91,-11.56 -9.58,-26.57 -9.36,-70.72 0.08,-14.34 71.77,-67.35 85.12,-78.58 l 28.48,32.33 c 4.68,-74.08 0.73,-57.6 45.23,-95.33 41.38,-35.09 83.42,-69.39 130.96,-95.79 -7.58,119.81 -22.27,203.21 -52.21,295.21 -5.36,16.44 -15.09,47.63 -23.13,59.31 -35.29,51.34 -89.8,79.19 -144.54,104.82 8.9,13.91 -3.35,3.44 14.01,9.2 25.64,7.1 51.23,0.08 77.21,-3.43 -3.69,12.3 -10.96,23.31 -17.52,33.08 -6.44,9.6 -12.9,19.77 -20.07,30.19 -8.7,12.65 -74.65,104.56 -88.86,110.98 l -80.14,14.96 28.72,28.53 c -7.63,22.7 -35.88,35.62 -53.57,49.19 -8.71,6.69 -10.21,8.22 -19.66,14.36 -53.49,34.76 -114.93,75.51 -179.25,89.87 -39.78,8.87 -82.88,1.08 -123.24,-5.45 l 32.77,24.97 c -13.9,16.66 -102.26,14.2 -123.07,15.11 l -0.25,3.81 132.07,23.62 -18.81,56.06 c 24.35,-14.17 46.71,-53.81 81.26,-46.93 16.96,3.38 25.52,3.48 43.63,5.1 19.09,1.71 20.76,5.15 41.28,6.69 14.81,1.13 31.22,1.02 45.8,2.73 l 87.15,9.35 c -1.39,16.33 -16.44,68.08 -20.97,90.27 15.64,-15.85 34.4,-53.47 52.53,-62.59 l 86.03,-16.42 129.47,4.38 c -1.96,22.96 -10.9,45.04 -15.73,67.7 13.1,-13.27 36.47,-61.31 51.62,-63.63 l 108.79,1.27 -2.64,41.81 c 10.39,-6.64 26.24,-27.75 39.26,-36.91 13.41,-9.43 11.06,-4.55 30.89,-5.68 l 177.68,-14.24 c -8.51,28.3 -58.54,90.6 -78.57,110.46 -45.98,45.59 -159.67,140.28 -231.4,140.67 -54.38,0.29 -110.44,-2.81 -158.58,-33.34 l 2.78,13.11 c 2.49,3.92 3.37,5.9 5.64,9.38 13.23,20.24 33.62,32.58 52.71,46.89 l -0.48,7.61 c -15.79,-0.65 -34.97,5.51 -50.13,8.29 -53.63,9.83 -110.32,13.05 -164.89,12.45 -7.64,-0.08 -56.5,-28.72 -70.29,-34.98 l 1.87,30.65 c -96.44,-6.1 -231.36,-40.83 -303.75,-102.08 -22.62,-19.13 -37.07,-40.29 -52.89,-64.68 l -6.23,-8.87 4.72,46.1 c -25.8,-15.8 -46.55,-34.05 -69.1,-53.98 5.22,26.05 74.11,109.01 93.97,143.34 l -55.81,27.63 c 5.96,4.86 28.98,-1.93 46.52,-1.5 51.01,1.25 34.83,5.43 100.79,79.89 l 22.19,27.12 -40.13,20.99 c 1.57,1.28 5.2,5.82 6.71,2.19 2.44,-5.87 27.09,-7.17 32.94,-8 26.86,-3.82 35.45,16.08 52,32.75 l 23.97,25.54 -20.21,17.81 c 19.75,1.25 40.34,-1.18 54.23,9.65 35.8,27.9 69.29,61.78 103.44,91.92 -77.43,7.58 -146.48,21.97 -221.85,1.63 -56.62,-15.27 -72.58,-25.29 -108.8,-69.24 -7.23,-8.76 -12.01,-17.5 -17.5,-27.65 -6.32,-11.65 -9.47,-17.72 -18.09,-27.14 l -0.28,64.86 c -20.23,-6.08 -71.03,-48.73 -87.1,-63.25 -8.93,-8.07 -10.9,-9.97 -19.34,-18.86 -30.48,-32.03 -19.18,-12.5 -28.14,-82.89 l -28.05,21.13 c -15.8,-35.07 -34.49,-49.18 -64.09,-72.76 8.72,13.64 27.32,28.24 38.58,41.41 21.13,24.7 -4.13,99.21 -10.56,133.15 -2.86,15.13 0.64,24.05 -13.79,18.24 l -29.33,-14.37 31.8,40.18 -20.46,79.39 -25.92,-9.81 c 23.64,62.17 17.22,41.68 -4.62,108.84 l -21.65,65.06 c -26.43,-8.88 -71.49,-137.83 -77.33,-158 -28.3,-97.64 -14.98,-93.11 22.72,-185.13 -12.95,2.16 -18.62,5.36 -28.75,12.18 l -26.63,18.66 c -0.19,-22.74 -5.94,-115.43 0.82,-133.53 l 33.29,-43.69 -30.41,-1.92 c 3.47,-40.39 14.54,-78.68 22.67,-116.88 -16.64,9.68 -30.62,25.35 -47.2,36.06 l -52.4,30.15 c -0.22,-11.31 -2.82,-19.27 -5.26,-27.68 l -10.62,-22.94 c -5.97,94.33 -59.38,85.63 -171.13,111.3 l 1.91,-30.42 c -29.85,45.19 -27.31,31.49 -108.82,31.29 l 5.48,-26.37 -39.21,16.6 -122.3,-57.36 c 17.37,-2.9 43.28,-12.8 58.51,-19.13 76.65,-31.92 145.67,-77.17 232.34,-54.06 l -43.7,-33.3 c 12.89,-15.43 93.46,-57.21 114.08,-53.84 l 18.77,5.01 -9.96,-23.54 c 21.05,-12.25 43.46,-23.74 63.45,-37.96 l -69.37,10.87 c 5.45,-86.16 1.97,-46.93 -24.56,-23.8 l -40.54,27.32 -60.81,-3.86 -224.7,-67.64 c 23.61,-30.84 19.77,-16.11 49.94,-65.54 l -112.62,31.04 c -10.08,1.04 -81.71,-63.39 -92.46,-72.89 -29.63,-26.18 -53.68,-55.02 -76.81,-86.67 l 50.15,-20.48 c -0.98,0.11 -2.12,0.28 -3.27,0.37 -3.45,0.24 -11.1,-0.3 -14.84,-0.53 -34.88,-2.16 -51.02,-0.7 -69.14,-32.81 C 4154.46,2701 4109.33,2634.04 4078,2467.95 v -0.01"
                            style="fill:#fcbe6e;fill-opacity:1;fill-rule:nonzero;stroke:none"
                            transform="matrix(0.13333333,0,0,-0.13333333,0,666.66667)" clip-path="url(#clipPath59)" />
                        <path id="path60"
                            d="m 5347.42,3153.79 -31.37,13.28 c 15.62,0.99 29.68,1.15 44.84,7.16 l 8.49,4.48 c 4.61,-5.66 6.7,-1.89 -8.4,-15.34 -3.01,-2.69 -10.07,-9.36 -13.56,-9.58 z M 4115.13,2451.7 c 72.7,-4 333.98,94.2 339.01,184.01 10.41,-7.22 12.26,-13.1 20.62,-29.17 79.6,52.69 145.8,106.52 170.32,139.49 9.36,12.58 15.76,33.52 22.93,47.99 l 9.77,-33.73 c 21.91,1.88 98.71,39.76 127.09,49.55 l 48.18,14.98 21.42,-36.82 c -76.64,16.16 -80.11,30.01 -141.95,-32.86 -70.31,-71.47 -88.6,-100.62 -133.7,-194.49 31.71,2 50.11,-6.19 77.47,-18 -36.09,-5.31 -67.08,-20.37 -90.88,-38.37 -24.11,-18.24 -27.72,-60.67 -31.73,-90.5 -4.97,-36.81 -9.25,-66.44 -7.05,-112.31 2.29,-47.83 -13.98,-42.22 61.91,-15 l -14.48,-12.36 c -15.99,-13.16 -29.39,-32.32 -42.73,-48.51 l 26.47,-116.64 37.28,13.81 -19.19,-58.46 98.73,-173.13 c 7.5,44.84 32.31,114.49 44.64,161.67 11.13,42.52 44.16,125.94 35.6,165.54 -11.95,55.3 -13.26,66.09 -32.13,118.55 26.67,-5.34 47.23,-34.72 64.42,-53.16 6.52,38.97 47.78,112.74 52.16,140.69 -0.87,13.67 -2.2,18.52 -6.36,29.45 -1.99,5.21 -1.58,4.61 -4.81,10.84 l -8.08,12.56 c 6.32,5.15 14.23,-3.26 35.85,-13.63 8.95,7.47 25.13,43.19 32.96,57.1 l 34.54,55.71 c 39.49,59.52 35.02,54.56 54.9,123.93 l 9.77,-33.73 125.93,130.73 c 5.65,-6.95 -4.61,-11.06 -9.43,-18.01 -29.98,-43.28 -52.5,-88.05 -73.01,-136.69 l 42.77,-12.56 c -20.21,-1.73 -48.37,-17.67 -55.95,-29.68 -5.76,-9.12 -15.04,-55.41 -17.08,-67.5 -8.48,-50.67 -8.59,-102.39 -10.15,-156.16 22.89,1.97 45.09,10.9 67.69,15.74 -6.42,-10.05 -13.08,-11.69 -22.27,-19.87 -12.82,-11.38 -29.55,-31.44 -35.45,-48.02 -9.57,-26.96 35.54,-143.68 46.27,-173.29 l 36.33,29.03 c -12.42,-61.97 -54.71,-8.78 23.85,-135.89 l 25.65,16.88 c -7.69,-56.94 9.4,-62.65 48.78,-107.59 18.11,-20.68 42.01,-36.86 64.43,-53.17 -2.54,40.12 2.92,76.96 0.52,114.41 -6.73,138.6 13.99,134.94 -69.22,247.63 23.8,-3.98 41.96,-14.99 62.73,-26.56 -6.98,110.44 5.36,78.95 -41.46,172.94 l 34.44,-1.64 c -2.8,44.29 -6.93,91.27 -4.96,130.01 1.17,23.03 -2.72,40.95 -7.89,59.12 -4.85,17.09 -11.2,34.78 -21.98,49.75 7.08,5.76 16.05,-5.83 28.24,-14.12 l 1.86,116.19 c 33.28,-60.3 61.64,-130.42 87.47,-194.06 l 84.18,-214.09 c 75.49,-190.08 158.52,-510.46 198.64,-707.54 l 48.74,-258.4 c 18.47,-90.5 27.65,-175.62 38.1,-266.41 5.38,-46.73 13.31,-86.76 16.27,-136.349 1.7,-28.57 6.49,-44.39 8.28,-68.019 23.29,-340.203 37.95,-665.02 10.9,-1000.5706 -3.11,-38.6604 -6.22,-72.2224 -10.03,-109.6094 l -11.7,-108.152 c -24.46,-1.539 -70.22,5.941 -93.2,8.289 l -128.11,10.422 30.45,-481.141 1184.81,74.98 -88.47,170.29 c -39.17,16.789 -79.31,32.152 -122.21,47.011 -131.37,45.508 -268.6,78.16 -405.91,109.621 -24.11,5.52 -35.57,8.559 -58.04,19.68 -85.14,714.078 -109.23,1436.218 -290.58,2135.148 -24.97,96.25 -51.93,186.56 -81.21,278.57 -43.15,135.57 -91.31,267.49 -144.36,398.39 -17.74,43.78 -34.53,84.05 -54.1,126.02 -10.01,21.48 -19.31,40.65 -28.34,61.53 -9.33,21.5 -18.73,38.85 -29.03,60.75 -10.23,21.75 -18.51,38.38 -29.39,60.35 l -33.21,57.37 c 6.47,5.27 12.68,-4.08 21.75,-9.26 33.73,-19.26 67.29,-40.26 98.83,-63 l 38.87,-25.14 23.48,51.1 c 1.01,-16.07 1.1,-32.73 4.04,-48.38 9.01,-48.02 19.51,-38.78 72.14,-85.15 37.35,-32.92 73.14,-66.14 113.82,-94.89 5.28,26.37 30.12,51.17 45.67,72.22 5.36,-6.58 -2.13,-17.59 -3.7,-26.65 -4.31,-24.82 -5.74,-55.71 -5.36,-81.42 0.16,-10.47 128.67,-124.39 146.22,-139.6 l 33.61,49.36 c -0.91,-11.57 -9.59,-26.57 -9.36,-70.73 0.07,-14.33 71.77,-67.34 85.11,-78.57 l 28.48,32.33 c 4.69,-74.08 0.72,-57.6 45.23,-95.33 41.39,-35.1 83.41,-69.39 130.96,-95.79 -7.58,119.81 -22.27,203.21 -52.21,295.2 -5.36,16.45 -15.09,47.63 -23.12,59.32 -35.29,51.34 -89.81,79.19 -144.54,104.82 8.9,13.91 -3.35,3.44 14,9.19 25.65,7.11 51.22,0.09 77.22,-3.42 -3.7,12.29 -10.98,23.3 -17.53,33.07 -6.44,9.61 -12.9,19.78 -20.07,30.19 -8.7,12.66 -74.66,104.57 -88.85,110.99 l -80.15,14.95 28.72,28.54 c -7.62,22.69 -35.88,35.62 -53.56,49.19 -8.72,6.68 -10.22,8.21 -19.66,14.35 -53.5,34.77 -114.94,75.51 -179.26,89.87 -39.77,8.88 -82.88,1.09 -123.23,-5.44 l 32.76,24.97 c -13.91,16.66 -102.26,14.2 -123.07,15.11 l -0.24,3.8 132.07,23.63 -18.81,56.05 c 24.34,-14.16 46.7,-53.8 81.25,-46.92 16.96,3.38 25.52,3.48 43.62,5.1 19.11,1.7 20.77,5.14 41.29,6.69 14.82,1.12 31.21,1.02 45.8,2.73 l 87.15,9.35 c -1.39,16.33 -16.43,68.08 -20.97,90.27 15.64,-15.85 34.4,-53.47 52.54,-62.59 l 86.02,-16.42 129.48,4.37 c -1.97,22.97 -10.91,45.04 -15.73,67.71 13.09,-13.27 36.46,-61.31 51.62,-63.63 l 108.78,1.27 -2.64,41.81 c 10.39,-6.65 26.24,-27.76 39.26,-36.92 13.42,-9.43 11.06,-4.55 30.9,-5.67 l 177.67,-14.24 c -8.51,28.3 -58.54,90.6 -78.56,110.46 -45.98,45.59 -159.68,140.28 -231.41,140.66 -54.38,0.29 -110.44,-2.8 -158.57,-33.33 l 2.77,13.11 c 2.49,3.91 3.37,5.9 5.64,9.38 13.24,20.24 33.62,32.58 52.71,46.89 l -0.48,7.61 c -15.79,-0.65 -34.96,5.5 -50.13,8.28 -53.62,9.84 -110.31,13.06 -164.89,12.46 -7.63,-0.09 -56.5,-28.72 -70.3,-34.98 l 1.88,30.65 c -96.44,-6.1 -231.36,-40.83 -303.75,-102.08 -22.62,-19.13 -37.07,-40.3 -52.88,-64.68 l -6.24,-8.87 4.71,46.1 c -25.79,-15.81 -46.54,-34.06 -69.09,-53.99 5.23,26.06 74.1,109.02 93.97,143.35 l -55.81,27.63 c 5.96,4.86 28.99,-1.93 46.52,-1.51 51.01,1.25 34.83,5.43 100.8,79.9 l 22.18,27.12 -40.12,20.99 c 1.55,1.27 5.19,5.82 6.7,2.19 2.44,-5.87 27.09,-7.17 32.94,-8.01 26.87,-3.82 35.46,16.09 52,32.76 l 23.98,25.54 -20.22,17.81 c 19.76,1.25 40.34,-1.18 54.23,9.65 35.8,27.9 69.29,61.78 103.44,91.92 -77.42,7.58 -146.48,21.97 -221.84,1.63 -56.63,-15.27 -72.6,-25.3 -108.82,-69.24 -7.21,-8.76 -12,-17.51 -17.5,-27.65 -6.31,-11.66 -9.45,-17.73 -18.07,-27.14 l -0.29,64.86 c -20.23,-6.08 -71.02,-48.73 -87.1,-63.25 -8.93,-8.07 -10.89,-9.98 -19.34,-18.86 -30.47,-32.04 -19.17,-12.51 -28.14,-82.89 l -28.04,21.13 c -15.81,-35.07 -34.5,-49.18 -64.09,-72.76 8.72,13.63 27.31,28.24 38.58,41.41 21.13,24.7 -4.14,99.21 -10.56,133.14 -2.87,15.13 0.63,24.05 -13.81,18.25 l -29.32,-14.37 31.81,40.18 -20.47,79.38 -25.92,-9.81 c 23.65,62.18 17.22,41.69 -4.61,108.84 l -21.66,65.06 c -26.43,-8.87 -71.5,-137.82 -77.33,-157.99 -28.29,-97.64 -14.98,-93.11 22.72,-185.14 -12.94,2.17 -18.62,5.37 -28.75,12.19 l -26.63,18.66 c -0.19,-22.74 -5.93,-115.44 0.82,-133.53 l 33.3,-43.69 -30.41,-1.93 c 3.46,-40.39 14.53,-78.67 22.66,-116.88 -16.64,9.69 -30.61,25.36 -47.19,36.07 l -52.4,30.15 c -0.23,-11.32 -2.83,-19.27 -5.26,-27.68 l -10.62,-22.95 c -5.97,94.33 -59.39,85.64 -171.15,111.31 l 1.92,-30.42 c -29.84,45.19 -27.32,31.49 -108.82,31.28 l 5.49,-26.37 -39.22,16.61 -122.3,-57.36 c 17.37,-2.9 43.28,-12.8 58.51,-19.14 76.65,-31.91 145.66,-77.17 232.33,-54.05 l -43.69,-33.3 c 12.88,-15.43 93.47,-57.21 114.09,-53.84 l 18.76,5 -9.97,-23.53 c 21.06,-12.25 43.47,-23.75 63.47,-37.96 l -69.38,10.87 c 5.46,-86.16 1.98,-46.93 -24.55,-23.8 l -40.55,27.32 -60.81,-3.86 -224.69,-67.64 c 23.59,-30.85 19.76,-16.11 49.94,-65.54 l -112.63,31.03 c -10.08,1.04 -81.71,-63.38 -92.47,-72.88 -29.62,-26.18 -53.67,-55.03 -76.8,-86.67 l 50.15,-20.49 c -0.98,0.12 -2.12,0.29 -3.26,0.37 -3.45,0.25 -11.1,-0.29 -14.84,-0.53 -34.88,-2.15 -51.02,-0.69 -69.15,-32.81 -67.51,-81.89 -112.63,-148.86 -143.96,-314.95"
                            style="fill:#3a2c44;fill-opacity:1;fill-rule:nonzero;stroke:none"
                            transform="matrix(0.13333333,0,0,-0.13333333,0,666.66667)" clip-path="url(#clipPath61)" />
                        <path id="path62"
                            d="m 1140.84,3243.07 25.39,15.07 c -13.53,-0.98 -25.62,-2.47 -39.34,0.91 l -7.81,2.86 c -3.3,-5.4 -5.54,-2.41 8.99,-12.2 2.91,-1.95 9.75,-6.86 12.77,-6.64 z m 1140.22,-458.85 c -61.96,-11.93 -297.79,41.86 -312.61,118.39 -8.09,-7.41 -9,-12.69 -14.3,-27.46 -74.51,35.94 -137.64,74.42 -162.56,99.87 -9.5,9.71 -17.44,26.94 -25.3,38.53 l -4.44,-30.11 c -19.04,-0.95 -89.41,22.61 -114.92,27.7 l -43.13,7.23 -14.09,-34.12 c 63.92,22.83 65.29,35.13 125.75,-11.63 68.72,-53.15 87.82,-76.04 137.52,-151.38 -27.46,-1.98 -42.3,-11.16 -64.41,-24.5 31.61,-0.35 59.99,-9.65 82.53,-22.33 22.83,-12.85 30.88,-48.86 37.82,-74 8.56,-31.03 15.7,-55.97 19.17,-95.61 3.62,-41.35 16.94,-34.63 -51.41,-20.13 l 13.89,-8.92 c 15.26,-9.42 29,-24.31 42.35,-36.66 l -9.09,-103.24 -33.63,7.5 23.32,-47.96 -64.55,-160.21 c -11.68,37.63 -41.13,94.53 -57.24,133.61 -14.51,35.2 -52.63,102.97 -49.91,137.98 3.8,48.88 3.66,58.31 13.74,105.56 -22.29,-7.7 -36.5,-35.33 -49.11,-53.19 -10.15,32.71 -54.2,91.23 -61.23,114.72 -0.85,11.84 -0.27,16.16 2.02,26.03 1.09,4.7 0.82,4.15 2.86,9.87 l 5.47,11.73 c -6.03,3.69 -11.84,-4.46 -29.19,-15.89 -8.55,5.36 -26.62,34.15 -34.98,45.18 l -36.17,43.8 c -40.86,46.49 -36.45,42.76 -61.62,100 l -4.44,-30.11 -123.42,97.54 c -4.05,-6.63 5.25,-8.96 10.2,-14.37 30.8,-33.65 55.37,-69.46 78.67,-108.83 l -35.26,-15.79 c 17.57,0.88 43.6,-9.52 51.51,-18.94 6.01,-7.16 19.4,-45.83 22.55,-55.96 13.22,-42.52 19.35,-86.92 26.98,-132.91 -19.89,-0.99 -39.99,4.08 -59.97,5.6 6.7,-7.88 12.61,-8.51 21.45,-14.45 12.34,-8.28 29.05,-23.55 36.05,-37.1 11.37,-22.03 -13.72,-127.52 -19.48,-154.2 l -34.58,20.67 c 17.9,-51.76 48,-1.14 -4.61,-119.48 l -23.99,11.51 c 13.25,-48 -0.75,-54.9 -29.32,-98.1 -13.13,-19.87 -31.75,-36.56 -49.11,-53.18 -2.5,34.74 -11.5,65.74 -13.81,98.18 -10.42,119.8 -27.79,114.23 30.49,220.73 -19.96,-6.2 -34.28,-17.78 -50.76,-30.14 -6.91,95.65 -13.82,67.17 15.4,153.35 l -29.4,-5.44 c -2.77,38.36 -4.71,79.19 -10.93,112.22 -3.7,19.64 -2.44,35.48 -0.13,51.69 2.16,15.24 5.55,31.18 13.05,45.29 -6.75,4.12 -13.1,-6.88 -22.59,-15.42 l -15.18,99.55 c -21.52,-55.67 -37.69,-119.2 -52.43,-176.86 l -47.26,-193.68 c -42.61,-172.04 -76.46,-456.86 -87.87,-630.78 l -11.66,-227.58 c -5.27,-79.87 -3.21,-154.04 -1.57,-233.21 0.84,-40.76 -1.29,-76.06 1.97,-118.99 1.87,-24.74 -0.39,-38.87 0.84,-59.37 19.76,-294.848 45.14,-575.481 107.58,-860.469 7.19,-32.821 13.78,-61.281 21.43,-92.942 l 22.69,-91.488 c 21.17,1.531 59.6,13.301 79.05,18.008 l 108.8,23.922 30.09,-416.711 -1026.156,-74.098 56.075,156.5783 c 31.664,18.9883 64.339,36.8594 99.437,54.6289 107.481,54.4492 221.5,98.5196 335.738,141.5818 20.063,7.551 29.543,11.508 47.532,23.688 -10.34,623.113 -74.075,1246.031 -0.032,1867.391 10.188,85.57 22.782,166.26 37.172,248.7 21.204,121.46 47.144,240.36 77.394,358.97 10.12,39.66 19.83,76.2 31.73,114.53 6.09,19.61 11.82,37.17 17.15,56.14 5.48,19.56 11.54,35.56 17.82,55.57 6.24,19.87 11.41,35.11 18.18,55.26 l 21.81,53.14 c -6.16,3.77 -10.4,-4.99 -17.59,-10.5 -26.71,-20.48 -53.08,-42.43 -77.5,-65.65 l -30.43,-26.13 -26.14,41.13 c 1,-13.9 2.88,-28.23 2.19,-42.01 -2.13,-42.28 -12.23,-35.58 -52.008,-81.55 -28.227,-32.62 -55.071,-65.34 -86.633,-94.78 -7.625,22.03 -31.852,40.41 -47.664,56.68 -3.836,-6.29 3.883,-14.85 6.289,-22.45 6.598,-20.82 11.445,-47.17 14.121,-69.3 1.09,-9 -95.949,-121.85 -109.23,-136.95 l -34.641,38.44 c 2.144,-9.81 11.344,-21.69 16.309,-59.62 1.617,-12.33 -53.754,-66.22 -63.903,-77.42 l -28.234,24.43 c 4.633,-64.16 6.113,-49.55 -27.692,-87.15 -31.441,-34.97 -63.527,-69.34 -101.265,-97.57 -7.489,103.77 -4.629,177.11 10.332,259.59 2.676,14.76 7.387,42.68 12.922,53.65 24.304,48.2 67.863,78.49 111.867,106.9 -9.266,10.9 2.473,3.35 -13.11,6.26 -22.839,3.1 -43.988,-5.92 -65.898,-11.97 1.738,10.99 6.699,21.3 11.184,30.45 4.406,9 8.761,18.48 13.699,28.27 6,11.88 51.89,98.51 63.336,105.69 l 67.07,22.2 -28.004,21.15 c 3.899,20.38 26.653,34.78 40.258,48.5 6.695,6.76 7.805,8.25 15.203,14.63 41.863,36.1 89.867,78.27 143.418,98.12 33.113,12.27 71.039,10.62 106.454,9.72 l -31.055,17.62 c 9.996,15.93 86.155,24.14 103.915,27.36 l -0.23,3.29 -116.174,4.85 9.598,50.34 c -19.246,-15.01 -33.813,-51.66 -64.285,-49.79 -14.953,0.91 -22.321,0 -38.055,-0.73 -16.601,-0.76 -18.43,2 -36.234,0.93 -12.852,-0.77 -26.918,-2.78 -39.645,-3.01 l -75.937,-2.16 c -0.707,14.18 6.164,60.38 7.461,79.97 -11.575,-15.45 -23.289,-49.95 -37.793,-59.89 l -71.957,-24.16 -111.684,-11.37 c -0.996,19.94 4.105,39.95 5.594,59.97 -9.692,-12.92 -24.145,-56.91 -36.891,-60.67 l -93.562,-11.63 -2.614,36.22 c -8.144,-6.92 -19.285,-26.9 -29.402,-36.29 -10.414,-9.66 -8.961,-5.2 -25.871,-8.48 l -150.899,-33 c 4.004,25.3 39.68,84.64 54.551,104.03 34.16,44.53 120.719,139.12 182.274,147.84 46.652,6.61 95.16,10.5 140.058,-10.09 l -3.914,10.94 c -2.597,3.06 -3.586,4.67 -5.945,7.39 -13.731,15.83 -32.676,24.04 -50.734,34.1 l -0.477,6.59 c 13.633,1.29 29.379,8.82 42.074,12.97 44.899,14.72 93.203,24.11 140.137,29.97 6.562,0.82 51.871,-18.05 64.449,-21.82 l -5.195,26.1 c 83.519,6.03 203.437,-8.02 272.758,-52.15 21.654,-13.79 36.534,-30.27 52.964,-49.36 l 6.4,-6.88 -9.44,39.03 c 23.99,-10.57 43.95,-23.8 65.64,-38.29 -7.53,21.77 -76.37,84.96 -97.44,112.11 l 44.69,30.25 c -5.69,3.47 -24.66,-5.05 -39.77,-6.73 -43.943,-4.89 -30.54,0.6 -95.892,56.83 l -22.215,20.68 31.996,22.72 c -1.484,0.91 -5.136,4.39 -6.011,1.09 -1.411,-5.31 -22.426,-9.32 -27.348,-10.71 -22.617,-6.43 -32.324,9.66 -48.485,22.04 l -23.566,19.13 15.27,17.66 c -17.106,-1.24 -34.496,-5.72 -47.692,1.95 -34,19.77 -66.719,44.95 -99.566,66.84 65.605,15.56 123.215,35.98 190.304,27.33 50.411,-6.5 65.293,-13.24 101.528,-46.74 7.226,-6.68 12.357,-13.63 18.257,-21.7 6.79,-9.26 10.2,-14.12 18.71,-21.19 l -7.34,55.72 c 18.07,-2.85 66.68,-33.53 82.18,-44.13 8.61,-5.88 10.52,-7.29 18.81,-13.93 29.92,-23.94 17.93,-8.49 33.85,-67.88 l 21.62,21.41 c 17.67,-28.26 35.37,-38.19 63.53,-54.98 -9.07,10.69 -26.75,21.05 -37.97,31.04 -21.03,18.74 -8.04,85.68 -6.5,115.57 0.7,13.33 -3.34,20.58 9.73,17.28 l 26.86,-8.91 -32.01,30.78 8.3,70.56 23.4,-5.39 c -27.57,50.63 -19.66,33.78 -8.76,94 l 11,58.4 c 23.72,-4.54 77.5,-110 84.87,-126.63 35.7,-80.54 23.74,-78.2 2.12,-161.63 10.86,3.37 15.37,6.78 23.26,13.82 l 20.69,19.14 c 2.81,-19.51 18.59,-98.43 14.9,-114.76 l -23.48,-41.41 26.34,1.9 c 1.74,-35.08 -3.29,-69.25 -5.8,-103.01 13.15,10.26 23.32,25.35 36.3,36.48 l 41.48,32.02 c 1.51,-9.69 4.67,-16.21 7.75,-23.15 l 11.8,-18.46 c -5.9,81.69 40.98,80.47 133.95,115.57 l 1.91,-26.35 c 20.35,42.3 19.77,30.24 89.79,39.59 l -1.63,-23.28 31.73,18.84 111.73,-34.96 c -14.58,-4.52 -35.67,-16.05 -48.01,-23.27 -62.09,-36.37 -116.06,-83.29 -193.19,-73.57 l 41.41,-23.49 c -9.26,-14.75 -73.57,-60.05 -91.66,-59.57 l -16.7,2.11 11.3,-19.04 c -16.65,-12.98 -34.55,-25.48 -50.05,-40.03 l 58.3,17.45 c 5.39,-74.62 3.79,-40.52 23.87,-17.56 l 31.61,28.19 52.68,3.8 200.85,-31.83 c -16.67,-29.24 -15.09,-16.14 -35.23,-62.11 l 93.09,39.82 c 8.53,2.07 77.57,-44.88 87.91,-51.78 28.51,-19.02 52.52,-40.98 76.08,-65.45 l -40.67,-23.45 c 0.84,0.22 1.79,0.5 2.76,0.7 2.94,0.61 9.58,1.05 12.81,1.28 30.2,2.22 43.89,5.36 63.21,-20.09 67.55,-62.43 114.11,-114.66 160.43,-253.62 v -0.01"
                            style="fill:#fcbe6e;fill-opacity:1;fill-rule:nonzero;stroke:none"
                            transform="matrix(0.13333333,0,0,-0.13333333,0,666.66667)" clip-path="url(#clipPath63)" />
                        <path id="path64"
                            d="m 1106.4,3229.84 25.38,15.07 c -13.52,-0.97 -25.62,-2.47 -39.34,0.91 l -7.81,2.86 c -3.3,-5.4 -5.54,-2.41 9,-12.19 2.91,-1.96 9.75,-6.87 12.77,-6.65 z m 1140.21,-458.85 c -61.96,-11.93 -297.79,41.86 -312.6,118.39 -8.1,-7.41 -9,-12.68 -14.31,-27.45 -74.51,35.93 -137.64,74.41 -162.55,99.86 -9.51,9.71 -17.44,26.95 -25.3,38.53 l -4.45,-30.1 c -19.03,-0.96 -89.41,22.6 -114.91,27.69 l -43.13,7.22 -14.09,-34.11 c 63.92,22.83 65.28,35.13 125.74,-11.62 68.72,-53.15 87.83,-76.05 137.53,-151.39 -27.46,-1.98 -42.31,-11.16 -64.42,-24.5 31.61,-0.35 59.99,-9.65 82.53,-22.33 22.83,-12.84 30.89,-48.86 37.82,-74 8.57,-31.03 15.7,-55.98 19.18,-95.61 3.62,-41.35 16.93,-34.63 -51.41,-20.13 l 13.88,-8.91 c 15.26,-9.43 29,-24.32 42.35,-36.67 l -9.09,-103.25 -33.63,7.5 23.32,-47.95 -64.54,-160.21 c -11.68,37.64 -41.14,94.54 -57.24,133.6 -14.52,35.22 -52.64,102.99 -49.91,138 3.8,48.87 3.66,58.3 13.73,105.55 -22.28,-7.71 -36.5,-35.33 -49.11,-53.19 -10.15,32.71 -54.19,91.23 -61.23,114.72 -0.85,11.84 -0.27,16.16 2.03,26.03 1.09,4.7 0.81,4.15 2.86,9.88 l 5.46,11.72 c -6.03,3.69 -11.83,-4.46 -29.19,-15.89 -8.54,5.37 -26.62,34.15 -34.98,45.18 l -36.17,43.8 c -40.85,46.49 -36.44,42.76 -61.62,100 l -4.44,-30.11 -123.41,97.55 c -4.05,-6.64 5.24,-8.96 10.2,-14.38 30.8,-33.65 55.37,-69.46 78.66,-108.83 l -35.26,-15.78 c 17.57,0.87 43.6,-9.52 51.51,-18.95 6.02,-7.16 19.41,-45.82 22.56,-55.97 13.21,-42.51 19.35,-86.91 26.97,-132.9 -19.89,-0.99 -39.99,4.09 -59.97,5.6 6.7,-7.88 12.61,-8.51 21.46,-14.45 12.33,-8.28 29.05,-23.55 36.04,-37.1 11.37,-22.03 -13.72,-127.53 -19.47,-154.2 l -34.58,20.67 c 17.9,-51.76 47.99,-1.15 -4.61,-119.48 l -24,11.51 c 13.26,-48 -0.75,-54.9 -29.31,-98.1 -13.13,-19.86 -31.76,-36.56 -49.11,-53.18 -2.51,34.74 -11.51,65.74 -13.82,98.17 -10.41,119.82 -27.78,114.25 30.5,220.74 -19.97,-6.2 -34.29,-17.78 -50.77,-30.14 -6.91,95.65 -13.82,67.17 15.4,153.35 l -29.39,-5.44 c -2.77,38.36 -4.71,79.18 -10.93,112.23 -3.7,19.63 -2.45,35.47 -0.14,51.68 2.17,15.24 5.55,31.18 13.06,45.29 -6.75,4.12 -13.11,-6.88 -22.6,-15.43 l -15.17,99.56 c -21.53,-55.67 -37.69,-119.2 -52.44,-176.86 l -47.26,-193.68 c -42.6,-172.04 -76.46,-456.85 -87.87,-630.77 l -11.65,-227.58 c -5.28,-79.88 -3.21,-154.04 -1.57,-233.22 0.84,-40.75 -1.29,-76.06 1.96,-118.99 1.87,-24.73 -0.38,-38.87 0.84,-59.37 19.76,-294.849 45.14,-575.481 107.58,-860.458 7.2,-32.82 13.79,-61.281 21.43,-92.953 l 22.69,-91.481 c 21.18,1.524 59.6,13.301 79.06,18.012 l 108.79,23.91 30.09,-416.711 -1026.151,-74.097 56.07,156.57 c 31.668,19 64.344,36.8789 99.442,54.6485 107.476,54.4297 221.5,98.5078 335.738,141.5705 20.059,7.558 29.547,11.519 47.535,23.691 -10.344,623.117 -74.078,1246.028 -0.039,1867.388 10.195,85.56 22.789,166.27 37.176,248.7 21.203,121.45 47.149,240.37 77.389,358.97 10.12,39.67 19.83,76.2 31.73,114.53 6.09,19.61 11.82,37.16 17.15,56.14 5.49,19.56 11.54,35.56 17.83,55.57 6.23,19.87 11.4,35.11 18.18,55.26 l 21.81,53.14 c -6.17,3.77 -10.41,-4.99 -17.59,-10.5 -26.72,-20.48 -53.08,-42.43 -77.5,-65.65 l -30.44,-26.13 -26.137,41.13 c 1.008,-13.91 2.883,-28.22 2.183,-42.01 -2.125,-42.28 -12.226,-35.58 -51.996,-81.55 -28.226,-32.63 -55.074,-65.34 -86.636,-94.78 -7.621,22.03 -31.852,40.42 -47.664,56.68 -3.84,-6.28 3.886,-14.85 6.293,-22.46 6.597,-20.81 11.441,-47.15 14.117,-69.28 1.093,-9.01 -95.953,-121.86 -109.235,-136.96 l -34.632,38.45 c 2.14,-9.82 11.335,-21.7 16.308,-59.63 1.609,-12.33 -53.758,-66.22 -63.902,-77.42 l -28.242,24.44 c 4.632,-64.17 6.117,-49.56 -27.692,-87.16 -31.441,-34.97 -63.519,-69.34 -101.258,-97.56 -7.496,103.76 -4.629,177.1 10.332,259.59 2.676,14.75 7.387,42.67 12.914,53.64 24.313,48.2 67.868,78.49 111.872,106.9 -9.27,10.9 2.472,3.35 -13.106,6.25 -22.848,3.11 -43.996,-5.9 -65.906,-11.96 1.738,10.99 6.707,21.3 11.187,30.45 4.41,9 8.766,18.49 13.703,28.27 5.997,11.89 51.887,98.52 63.332,105.69 l 67.067,22.21 -27.996,21.14 c 3.894,20.39 26.648,34.78 40.258,48.51 6.695,6.75 7.8,8.24 15.199,14.61 41.859,36.11 89.867,78.28 143.414,98.13 33.113,12.27 71.043,10.61 106.461,9.73 l -31.055,17.61 c 9.992,15.94 86.147,24.14 103.917,27.36 l -0.24,3.29 -116.173,4.85 9.606,50.34 c -19.25,-15.01 -33.817,-51.66 -64.29,-49.79 -14.957,0.92 -22.32,0 -38.05,-0.72 -16.602,-0.77 -18.438,1.98 -36.243,0.92 -12.843,-0.77 -26.917,-2.78 -39.636,-3.01 l -75.938,-2.16 c -0.707,14.18 6.16,60.38 7.461,79.97 -11.582,-15.45 -23.297,-49.95 -37.797,-59.89 l -71.953,-24.15 -111.691,-11.38 c -0.992,19.94 4.105,39.95 5.597,59.97 -9.687,-12.92 -24.14,-56.91 -36.886,-60.67 l -93.563,-11.63 -2.621,36.22 c -8.137,-6.92 -19.285,-26.9 -29.398,-36.29 -10.418,-9.66 -8.965,-5.2 -25.867,-8.48 l -150.899,-33 c 4,25.3 39.672,84.64 54.551,104.03 34.156,44.53 120.711,139.13 182.265,147.84 46.657,6.61 95.161,10.5 140.059,-10.09 l -3.906,10.94 c -2.598,3.06 -3.59,4.67 -5.949,7.39 -13.731,15.83 -32.676,24.05 -50.735,34.11 l -0.48,6.58 c 13.633,1.29 29.386,8.82 42.074,12.98 44.902,14.71 93.203,24.1 140.137,29.96 6.562,0.82 51.871,-18.05 64.449,-21.82 l -5.195,26.1 c 83.527,6.03 203.437,-8.01 272.765,-52.15 21.653,-13.78 36.535,-30.27 52.966,-49.36 l 6.39,-6.88 -9.44,39.03 c 24,-10.56 43.95,-23.8 65.64,-38.28 -7.52,21.75 -76.37,84.95 -97.439,112.1 l 44.699,30.26 c -5.69,3.47 -24.67,-5.06 -39.781,-6.74 -43.941,-4.89 -30.531,0.6 -95.882,56.83 l -22.223,20.69 32.004,22.72 c -1.492,0.9 -5.137,4.38 -6.012,1.09 -1.41,-5.32 -22.426,-9.33 -27.355,-10.72 -22.618,-6.42 -32.325,9.67 -48.481,22.04 l -23.562,19.13 15.265,17.66 c -17.101,-1.24 -34.5,-5.72 -47.687,1.94 -34.004,19.78 -66.727,44.96 -99.571,66.85 65.606,15.56 123.211,35.98 190.305,27.33 50.406,-6.5 65.289,-13.24 101.531,-46.74 7.227,-6.68 12.352,-13.63 18.262,-21.7 6.781,-9.27 10.195,-14.11 18.695,-21.19 l -7.335,55.73 c 18.077,-2.86 66.677,-33.54 82.187,-44.13 8.6,-5.89 10.51,-7.29 18.81,-13.93 29.91,-23.95 17.92,-8.5 33.85,-67.89 l 21.61,21.41 c 17.67,-28.26 35.37,-38.19 63.54,-54.97 -9.08,10.67 -26.76,21.05 -37.97,31.04 -21.03,18.74 -8.05,85.67 -6.5,115.56 0.69,13.33 -3.35,20.58 9.72,17.28 l 26.86,-8.91 -32,30.78 8.3,70.56 23.4,-5.39 c -27.57,50.63 -19.66,33.78 -8.76,94.01 l 10.99,58.39 c 23.72,-4.54 77.5,-110 84.87,-126.63 35.7,-80.54 23.74,-78.2 2.12,-161.63 10.87,3.37 15.37,6.78 23.27,13.82 l 20.68,19.13 c 2.82,-19.5 18.59,-98.42 14.91,-114.75 l -23.48,-41.41 26.33,1.9 c 1.75,-35.08 -3.29,-69.25 -5.8,-103.01 13.16,10.26 23.32,25.35 36.31,36.49 l 41.48,32.01 c 1.51,-9.69 4.66,-16.22 7.74,-23.15 l 11.81,-18.46 c -5.9,81.69 40.97,80.47 133.94,115.57 l 1.92,-26.34 c 20.34,42.29 19.77,30.24 89.78,39.58 l -1.63,-23.28 31.73,18.84 111.73,-34.96 c -14.58,-4.52 -35.67,-16.04 -48.01,-23.27 -62.09,-36.37 -116.06,-83.29 -193.18,-73.57 l 41.4,-23.49 c -9.25,-14.75 -73.56,-60.05 -91.66,-59.57 l -16.7,2.11 11.31,-19.04 c -16.65,-12.98 -34.55,-25.47 -50.06,-40.02 l 58.3,17.45 c 5.39,-74.63 3.79,-40.53 23.87,-17.58 l 31.62,28.2 52.67,3.81 200.85,-31.84 c -16.66,-29.23 -15.09,-16.14 -35.23,-62.1 l 93.09,39.81 c 8.53,2.07 77.57,-44.88 87.91,-51.78 28.51,-19.02 52.53,-40.98 76.08,-65.45 l -40.66,-23.45 c 0.83,0.22 1.79,0.5 2.76,0.7 2.93,0.61 9.57,1.04 12.81,1.28 30.2,2.23 43.88,5.37 63.2,-20.09 67.55,-62.43 114.11,-114.66 160.43,-253.62 v -0.01"
                            style="fill:#3a2c44;fill-opacity:1;fill-rule:nonzero;stroke:none"
                            transform="matrix(0.13333333,0,0,-0.13333333,0,666.66667)" clip-path="url(#clipPath65)" />
                        <path id="path66"
                            d="m 5000,4590 v 15 H 2500 C 1337.44,4604.99 395.012,3662.57 395,2500 v 0 C 395.012,1337.43 1337.44,395.012 2500,395 h 2500 c 1162.56,0.012 2104.99,942.43 2105,2105 v 0 c -0.01,1162.56 -942.44,2104.99 -2105,2105 v 0 -15 -15 c 573.04,0 1091.69,-232.23 1467.24,-607.75 C 6842.77,3591.7 7074.99,3073.05 7075,2500 v 0 C 7074.99,1926.95 6842.77,1408.3 6467.24,1032.75 6091.69,657.23 5573.04,425.012 5000,425 H 2500 C 1926.96,425.012 1408.3,657.23 1032.76,1032.75 657.23,1408.3 425.008,1926.95 425,2500 v 0 c 0.008,573.04 232.23,1091.7 607.76,1467.25 C 1408.3,4342.77 1926.96,4575 2500,4575 v 0 h 2500 v 15"
                            style="fill:#3a2c44;fill-opacity:1;fill-rule:nonzero;stroke:none"
                            transform="matrix(0.13333333,0,0,-0.13333333,0,666.66667)" />
                    </g>
                </g>
            </svg>
